TwilioSansMono-RetinaItalic.ufo
<glyph name="numbersign" format="2">
	<unicode hex="0023"/>
	<advance width="600"/>
	<outline>
		<contour>
			<point x="32" y="240" type="line"/>
			<point x="22" y="166" type="line"/>
			<point x="124" y="166" type="line"/>
			<point x="85" y="0" type="line"/>
			<point x="163" y="0" type="line"/>
			<point x="202" y="166" type="line"/>
			<point x="338" y="166" type="line"/>
			<point x="299" y="0" type="line"/>
			<point x="376" y="0" type="line"/>
			<point x="416" y="166" type="line"/>
			<point x="528" y="166" type="line"/>
			<point x="538" y="240" type="line"/>
			<point x="433" y="240" type="line"/>
			<point x="484" y="455" type="line"/>
			<point x="592" y="455" type="line"/>
			<point x="603" y="529" type="line"/>
			<point x="502" y="529" type="line"/>
			<point x="538" y="684" type="line"/>
			<point x="460" y="684" type="line"/>
			<point x="424" y="529" type="line"/>
			<point x="287" y="529" type="line"/>
			<point x="324" y="684" type="line"/>
			<point x="247" y="684" type="line"/>
			<point x="210" y="529" type="line"/>
			<point x="96" y="529" type="line"/>
			<point x="87" y="455" type="line"/>
			<point x="192" y="455" type="line"/>
			<point x="142" y="240" type="line"/>
		</contour>
		<contour>
			<point x="219" y="240" type="line"/>
			<point x="270" y="455" type="line"/>
			<point x="406" y="455" type="line"/>
			<point x="356" y="240" type="line"/>
		</contour>
	</outline>
</glyph>
<glyph name="parenright" format="2">
	<unicode hex="0029"/>
	<advance width="600"/>
	<outline>
		<contour>
			<point x="55" y="-90" type="curve"/>
			<point x="75" y="-168" type="line"/>
			<point x="303" y="-104"/>
			<point x="407" y="58"/>
			<point x="439" y="287" type="curve" smooth="yes"/>
			<point x="473" y="524"/>
			<point x="409" y="706"/>
			<point x="210" y="798" type="curve"/>
			<point x="172" y="722" type="line"/>
			<point x="338" y="649"/>
			<point x="380" y="492"/>
			<point x="352" y="294" type="curve" smooth="yes"/>
			<point x="325" y="100"/>
			<point x="243" y="-36"/>
		</contour>
	</outline>
</glyph>
<glyph name="plus" format="2">
	<unicode hex="002B"/>
	<advance width="600"/>
	<outline>
		<contour>
			<point x="296" y="531" type="line"/>
			<point x="270" y="344" type="line"/>
			<point x="86" y="344" type="line"/>
			<point x="74" y="263" type="line"/>
			<point x="258" y="263" type="line"/>
			<point x="232" y="75" type="line"/>
			<point x="315" y="75" type="line"/>
			<point x="341" y="263" type="line"/>
			<point x="525" y="263" type="line"/>
			<point x="537" y="344" type="line"/>
			<point x="353" y="344" type="line"/>
			<point x="379" y="531" type="line"/>
		</contour>
	</outline>
</glyph>
<glyph name="comma" format="2">
	<unicode hex="002C"/>
	<advance width="600"/>
	<outline>
		<contour>
			<point x="240" y="126" type="line"/>
			<point x="145" y="-175" type="line"/>
			<point x="214" y="-175" type="line"/>
			<point x="372" y="126" type="line"/>
		</contour>
	</outline>
</glyph>
<glyph name="period" format="2">
	<unicode hex="002E"/>
	<advance width="600"/>
	<outline>
		<contour>
			<point x="267" y="-12" type="curve" smooth="yes"/>
			<point x="319" y="-12"/>
			<point x="342" y="9"/>
			<point x="348" y="53" type="curve" smooth="yes"/>
			<point x="355" y="101"/>
			<point x="334" y="129"/>
			<point x="277" y="129" type="curve" smooth="yes"/>
			<point x="224" y="129"/>
			<point x="201" y="106"/>
			<point x="195" y="63" type="curve" smooth="yes"/>
			<point x="188" y="15"/>
			<point x="208" y="-12"/>
		</contour>
	</outline>
</glyph>
<glyph name="slash" format="2">
	<unicode hex="002F"/>
	<advance width="600"/>
	<outline>
		<contour>
			<point x="512" y="792" type="line"/>
			<point x="7" y="-163" type="line"/>
			<point x="102" y="-163" type="line"/>
			<point x="608" y="792" type="line"/>
		</contour>
	</outline>
</glyph>
<glyph name="zero" format="2">
	<unicode hex="0030"/>
	<advance width="600"/>
	<outline>
		<contour>
			<point x="280" y="-14" type="curve" smooth="yes"/>
			<point x="435" y="-14"/>
			<point x="525" y="110"/>
			<point x="552" y="303" type="curve" smooth="yes"/>
			<point x="554" y="317" type="line" smooth="yes"/>
			<point x="590" y="564"/>
			<point x="512" y="698"/>
			<point x="341" y="698" type="curve" smooth="yes"/>
			<point x="192" y="698"/>
			<point x="99" y="574"/>
			<point x="71" y="380" type="curve" smooth="yes"/>
			<point x="69" y="366" type="line" smooth="yes"/>
			<point x="34" y="120"/>
			<point x="109" y="-14"/>
		</contour>
		<contour>
			<point x="284" y="65" type="curve" smooth="yes"/>
			<point x="169" y="65"/>
			<point x="132" y="173"/>
			<point x="159" y="360" type="curve" smooth="yes"/>
			<point x="160" y="367" type="line" smooth="yes"/>
			<point x="183" y="531"/>
			<point x="242" y="619"/>
			<point x="337" y="619" type="curve" smooth="yes"/>
			<point x="454" y="619"/>
			<point x="491" y="511"/>
			<point x="464" y="326" type="curve" smooth="yes"/>
			<point x="463" y="319" type="line" smooth="yes"/>
			<point x="440" y="153"/>
			<point x="384" y="65"/>
		</contour>
		<contour>
			<point x="307" y="274" type="curve" smooth="yes"/>
			<point x="345" y="274"/>
			<point x="368" y="293"/>
			<point x="374" y="337" type="curve" smooth="yes"/>
			<point x="381" y="390"/>
			<point x="357" y="412"/>
			<point x="316" y="412" type="curve" smooth="yes"/>
			<point x="277" y="412"/>
			<point x="254" y="394"/>
			<point x="249" y="349" type="curve" smooth="yes"/>
			<point x="241" y="296"/>
			<point x="265" y="274"/>
		</contour>
	</outline>
</glyph>
<glyph name="one" format="2">
	<unicode hex="0031"/>
	<advance width="600"/>
	<outline>
		<contour>
			<point x="24" y="0" type="line"/>
			<point x="526" y="0" type="line"/>
			<point x="538" y="83" type="line"/>
			<point x="343" y="83" type="line"/>
			<point x="427" y="684" type="line"/>
			<point x="329" y="684" type="line"/>
			<point x="99" y="518" type="line"/>
			<point x="85" y="421" type="line"/>
			<point x="320" y="588" type="line"/>
			<point x="249" y="83" type="line"/>
			<point x="35" y="83" type="line"/>
		</contour>
	</outline>
</glyph>
<glyph name="three" format="2">
	<unicode hex="0033"/>
	<advance width="600"/>
	<outline>
		<contour>
			<point x="261" y="-14" type="curve" smooth="yes"/>
			<point x="419" y="-14"/>
			<point x="520" y="81"/>
			<point x="520" y="232" type="curve" smooth="yes"/>
			<point x="520" y="339"/>
			<point x="460" y="409"/>
			<point x="314" y="411" type="curve"/>
			<point x="563" y="607" type="line"/>
			<point x="574" y="684" type="line"/>
			<point x="131" y="684" type="line"/>
			<point x="120" y="605" type="line"/>
			<point x="439" y="605" type="line"/>
			<point x="168" y="386" type="line"/>
			<point x="159" y="319" type="line"/>
			<point x="187" y="329"/>
			<point x="232" y="338"/>
			<point x="276" y="338" type="curve" smooth="yes"/>
			<point x="388" y="338"/>
			<point x="425" y="291"/>
			<point x="425" y="220" type="curve" smooth="yes"/>
			<point x="425" y="125"/>
			<point x="361" y="66"/>
			<point x="257" y="66" type="curve" smooth="yes"/>
			<point x="187" y="66"/>
			<point x="115" y="92"/>
			<point x="54" y="151" type="curve"/>
			<point x="42" y="65" type="line"/>
			<point x="88" y="25"/>
			<point x="161" y="-14"/>
		</contour>
	</outline>
</glyph>
<glyph name="six" format="2">
	<unicode hex="0036"/>
	<advance width="600"/>
	<outline>
		<contour>
			<point x="288" y="-14" type="curve" smooth="yes"/>
			<point x="440" y="-14"/>
			<point x="540" y="90"/>
			<point x="540" y="255" type="curve" smooth="yes"/>
			<point x="540" y="374"/>
			<point x="470" y="445"/>
			<point x="351" y="445" type="curve" smooth="yes"/>
			<point x="271" y="445"/>
			<point x="204" y="410"/>
			<point x="160" y="325" type="curve"/>
			<point x="190" y="528"/>
			<point x="247" y="620"/>
			<point x="383" y="620" type="curve" smooth="yes"/>
			<point x="458" y="620"/>
			<point x="528" y="592"/>
			<point x="572" y="556" type="curve"/>
			<point x="584" y="638" type="line"/>
			<point x="545" y="668"/>
			<point x="472" y="698"/>
			<point x="377" y="698" type="curve" smooth="yes"/>
			<point x="184" y="698"/>
			<point x="96" y="560"/>
			<point x="69" y="370" type="curve" smooth="yes"/>
			<point x="67" y="356" type="line" smooth="yes"/>
			<point x="35" y="135"/>
			<point x="83" y="-14"/>
		</contour>
		<contour>
			<point x="293" y="63" type="curve" smooth="yes"/>
			<point x="208" y="63"/>
			<point x="156" y="116"/>
			<point x="156" y="205" type="curve" smooth="yes"/>
			<point x="156" y="308"/>
			<point x="215" y="373"/>
			<point x="313" y="373" type="curve" smooth="yes"/>
			<point x="397" y="373"/>
			<point x="444" y="328"/>
			<point x="444" y="240" type="curve" smooth="yes"/>
			<point x="444" y="131"/>
			<point x="387" y="63"/>
		</contour>
	</outline>
</glyph>
<glyph name="nine" format="2">
	<unicode hex="0039"/>
	<advance width="600"/>
	<outline>
		<contour>
			<point x="246" y="-13" type="curve" smooth="yes"/>
			<point x="440" y="-13"/>
			<point x="525" y="113"/>
			<point x="554" y="315" type="curve" smooth="yes"/>
			<point x="556" y="329" type="line" smooth="yes"/>
			<point x="590" y="568"/>
			<point x="531" y="698"/>
			<point x="336" y="698" type="curve" smooth="yes"/>
			<point x="185" y="698"/>
			<point x="83" y="593"/>
			<point x="83" y="431" type="curve" smooth="yes"/>
			<point x="83" y="309"/>
			<point x="155" y="237"/>
			<point x="275" y="237" type="curve" smooth="yes"/>
			<point x="353" y="237"/>
			<point x="419" y="271"/>
			<point x="462" y="359" type="curve"/>
			<point x="432" y="152"/>
			<point x="378" y="66"/>
			<point x="242" y="66" type="curve" smooth="yes"/>
			<point x="167" y="66"/>
			<point x="99" y="92"/>
			<point x="50" y="144" type="curve"/>
			<point x="39" y="59" type="line"/>
			<point x="81" y="16"/>
			<point x="158" y="-13"/>
		</contour>
		<contour>
			<point x="311" y="311" type="curve" smooth="yes"/>
			<point x="233" y="311"/>
			<point x="178" y="351"/>
			<point x="178" y="444" type="curve" smooth="yes"/>
			<point x="178" y="553"/>
			<point x="236" y="621"/>
			<point x="332" y="621" type="curve" smooth="yes"/>
			<point x="416" y="621"/>
			<point x="466" y="570"/>
			<point x="466" y="479" type="curve" smooth="yes"/>
			<point x="466" y="376"/>
			<point x="404" y="311"/>
		</contour>
	</outline>
</glyph>
<glyph name="less" format="2">
	<unicode hex="003C"/>
	<advance width="600"/>
	<outline>
		<contour>
			<point x="494" y="40" type="line"/>
			<point x="508" y="128" type="line"/>
			<point x="158" y="299" type="line"/>
			<point x="555" y="471" type="line"/>
			<point x="569" y="569" type="line"/>
			<point x="87" y="355" type="line"/>
			<point x="73" y="253" type="line"/>
		</contour>
	</outline>
</glyph>
<glyph name="greater" format="2">
	<unicode hex="003E"/>
	<advance width="600"/>
	<outline>
		<contour>
			<point x="43" y="40" type="line"/>
			<point x="525" y="253" type="line"/>
			<point x="539" y="355" type="line"/>
			<point x="118" y="569" type="line"/>
			<point x="105" y="480" type="line"/>
			<point x="454" y="307" type="line"/>
			<point x="57" y="137" type="line"/>
		</contour>
	</outline>
</glyph>
<glyph name="at" format="2">
	<unicode hex="0040"/>
	<advance width="600"/>
	<outline>
		<contour>
			<point x="327" y="-135" type="curve" smooth="yes"/>
			<point x="394" y="-135"/>
			<point x="454" y="-119"/>
			<point x="491" y="-99" type="curve"/>
			<point x="501" y="-22" type="line"/>
			<point x="453" y="-48"/>
			<point x="397" y="-58"/>
			<point x="336" y="-58" type="curve" smooth="yes"/>
			<point x="166" y="-58"/>
			<point x="97" y="67"/>
			<point x="129" y="292" type="curve" smooth="yes"/>
			<point x="130" y="299" type="line" smooth="yes"/>
			<point x="161" y="515"/>
			<point x="236" y="623"/>
			<point x="365" y="623" type="curve" smooth="yes"/>
			<point x="473" y="623"/>
			<point x="505" y="557"/>
			<point x="491" y="452" type="curve" smooth="yes"/>
			<point x="483" y="396" type="line"/>
			<point x="467" y="459"/>
			<point x="429" y="492"/>
			<point x="367" y="492" type="curve" smooth="yes"/>
			<point x="285" y="492"/>
			<point x="221" y="421"/>
			<point x="202" y="288" type="curve" smooth="yes"/>
			<point x="182" y="147"/>
			<point x="229" y="63"/>
			<point x="325" y="63" type="curve" smooth="yes"/>
			<point x="385" y="63"/>
			<point x="426" y="103"/>
			<point x="451" y="157" type="curve"/>
			<point x="437" y="67" type="line"/>
			<point x="515" y="67" type="line"/>
			<point x="570" y="452" type="line" smooth="yes"/>
			<point x="592" y="608"/>
			<point x="530" y="698"/>
			<point x="371" y="698" type="curve" smooth="yes"/>
			<point x="187" y="698"/>
			<point x="85" y="558"/>
			<point x="49" y="310" type="curve" smooth="yes"/>
			<point x="47" y="296" type="line" smooth="yes"/>
			<point x="7" y="13"/>
			<point x="116" y="-135"/>
		</contour>
		<contour>
			<point x="359" y="130" type="curve" smooth="yes"/>
			<point x="299" y="130"/>
			<point x="267" y="184"/>
			<point x="281" y="282" type="curve" smooth="yes"/>
			<point x="294" y="379"/>
			<point x="333" y="425"/>
			<point x="388" y="425" type="curve" smooth="yes"/>
			<point x="445" y="425"/>
			<point x="482" y="374"/>
			<point x="468" y="275" type="curve" smooth="yes"/>
			<point x="456" y="184"/>
			<point x="420" y="130"/>
		</contour>
	</outline>
</glyph>
<glyph name="C" format="2">
	<unicode hex="0043"/>
	<advance width="600"/>
	<outline>
		<contour>
			<point x="364" y="-12" type="curve" smooth="yes"/>
			<point x="423" y="-12"/>
			<point x="466" y="-1"/>
			<point x="501" y="15" type="curve"/>
			<point x="513" y="97" type="line"/>
			<point x="472" y="78"/>
			<point x="426" y="68"/>
			<point x="378" y="68" type="curve" smooth="yes"/>
			<point x="206" y="68"/>
			<point x="152" y="214"/>
			<point x="175" y="370" type="curve" smooth="yes"/>
			<point x="176" y="377" type="line" smooth="yes"/>
			<point x="198" y="528"/>
			<point x="277" y="615"/>
			<point x="416" y="615" type="curve" smooth="yes"/>
			<point x="475" y="615"/>
			<point x="531" y="599"/>
			<point x="576" y="568" type="curve"/>
			<point x="589" y="652" type="line"/>
			<point x="548" y="676"/>
			<point x="485" y="695"/>
			<point x="412" y="695" type="curve" smooth="yes"/>
			<point x="216" y="695"/>
			<point x="106" y="571"/>
			<point x="80" y="391" type="curve" smooth="yes"/>
			<point x="78" y="377" type="line" smooth="yes"/>
			<point x="49" y="178"/>
			<point x="125" y="-12"/>
		</contour>
	</outline>
	<anchor name="bottom" x="327" y="0"/>
	<anchor name="top" x="427" y="684"/>
</glyph>
<glyph name="E" format="2">
	<unicode hex="0045"/>
	<advance width="600"/>
	<outline>
		<contour>
			<point x="148" y="684" type="line"/>
			<point x="52" y="0" type="line"/>
			<point x="496" y="0" type="line"/>
			<point x="507" y="80" type="line"/>
			<point x="157" y="80" type="line"/>
			<point x="189" y="303" type="line"/>
			<point x="494" y="303" type="line"/>
			<point x="506" y="382" type="line"/>
			<point x="201" y="382" type="line"/>
			<point x="232" y="605" type="line"/>
			<point x="574" y="605" type="line"/>
			<point x="586" y="684" type="line"/>
		</contour>
	</outline>
	<anchor name="bottom" x="295" y="0"/>
	<anchor name="ogonek" x="496" y="0"/>
	<anchor name="top" x="365" y="684"/>
</glyph>
<glyph name="H" format="2">
	<unicode hex="0048"/>
	<advance width="600"/>
	<outline>
		<contour>
			<point x="36" y="0" type="line"/>
			<point x="130" y="0" type="line"/>
			<point x="173" y="306" type="line"/>
			<point x="439" y="306" type="line"/>
			<point x="396" y="0" type="line"/>
			<point x="490" y="0" type="line"/>
			<point x="586" y="684" type="line"/>
			<point x="492" y="684" type="line"/>
			<point x="450" y="386" type="line"/>
			<point x="185" y="386" type="line"/>
			<point x="226" y="684" type="line"/>
			<point x="132" y="684" type="line"/>
		</contour>
	</outline>
	<anchor name="bottom" x="278" y="0"/>
	<anchor name="center" x="337" y="525"/>
	<anchor name="top" x="359" y="684"/>
</glyph>
<glyph name="I" format="2">
	<unicode hex="0049"/>
	<advance width="600"/>
	<outline>
		<contour>
			<point x="45" y="0" type="line"/>
			<point x="480" y="0" type="line"/>
			<point x="492" y="78" type="line"/>
			<point x="321" y="78" type="line"/>
			<point x="395" y="606" type="line"/>
			<point x="565" y="606" type="line"/>
			<point x="577" y="684" type="line"/>
			<point x="141" y="684" type="line"/>
			<point x="130" y="606" type="line"/>
			<point x="301" y="606" type="line"/>
			<point x="226" y="78" type="line"/>
			<point x="56" y="78" type="line"/>
		</contour>
	</outline>
	<anchor name="bottom" x="12628" y="0"/>
	<anchor name="ogonek" x="480" y="0"/>
	<anchor name="top" x="359" y="684"/>
</glyph>
<glyph name="K" format="2">
	<unicode hex="004B"/>
	<advance width="600"/>
	<outline>
		<contour>
			<point x="44" y="0" type="line"/>
			<point x="138" y="0" type="line"/>
			<point x="164" y="185" type="line"/>
			<point x="299" y="336" type="line"/>
			<point x="430" y="0" type="line"/>
			<point x="536" y="0" type="line"/>
			<point x="379" y="400" type="line"/>
			<point x="618" y="684" type="line"/>
			<point x="504" y="684" type="line"/>
			<point x="180" y="301" type="line"/>
			<point x="234" y="684" type="line"/>
			<point x="140" y="684" type="line"/>
		</contour>
	</outline>
	<anchor name="bottom" x="283" y="0"/>
	<anchor name="top" x="404" y="684"/>
</glyph>
<glyph name="L" format="2">
	<unicode hex="004C"/>
	<advance width="600"/>
	<outline>
		<contour>
			<point x="60" y="0" type="line"/>
			<point x="502" y="0" type="line"/>
			<point x="515" y="86" type="line"/>
			<point x="167" y="86" type="line"/>
			<point x="250" y="684" type="line"/>
			<point x="156" y="684" type="line"/>
		</contour>
	</outline>
	<anchor name="bottom" x="281" y="0"/>
	<anchor name="caron" x="390" y="684"/>
	<anchor name="center" x="152" y="325"/>
	<anchor name="top" x="203" y="684"/>
</glyph>
<glyph name="M" format="2">
	<unicode hex="004D"/>
	<advance width="600"/>
	<outline>
		<contour>
			<point x="22" y="0" type="line"/>
			<point x="109" y="0" type="line"/>
			<point x="158" y="350" type="line" smooth="yes"/>
			<point x="165" y="403"/>
			<point x="178" y="510"/>
			<point x="181" y="581" type="curve"/>
			<point x="188" y="581" type="line"/>
			<point x="242" y="178" type="line"/>
			<point x="334" y="178" type="line"/>
			<point x="501" y="581" type="line"/>
			<point x="509" y="581" type="line"/>
			<point x="492" y="511"/>
			<point x="478" y="429"/>
			<point x="467" y="351" type="curve" smooth="yes"/>
			<point x="418" y="0" type="line"/>
			<point x="505" y="0" type="line"/>
			<point x="601" y="684" type="line"/>
			<point x="463" y="684" type="line"/>
			<point x="304" y="284" type="line"/>
			<point x="300" y="284" type="line"/>
			<point x="253" y="684" type="line"/>
			<point x="118" y="684" type="line"/>
		</contour>
	</outline>
</glyph>
<glyph name="N" format="2">
	<unicode hex="004E"/>
	<advance width="600"/>
	<outline>
		<contour>
			<point x="37" y="0" type="line"/>
			<point x="125" y="0" type="line"/>
			<point x="172" y="340" type="line" smooth="yes"/>
			<point x="186" y="433"/>
			<point x="188" y="502"/>
			<point x="190" y="575" type="curve"/>
			<point x="196" y="575" type="line"/>
			<point x="372" y="0" type="line"/>
			<point x="490" y="0" type="line"/>
			<point x="586" y="684" type="line"/>
			<point x="498" y="684" type="line"/>
			<point x="450" y="345" type="line" smooth="yes"/>
			<point x="436" y="246"/>
			<point x="434" y="183"/>
			<point x="433" y="109" type="curve"/>
			<point x="427" y="109" type="line"/>
			<point x="251" y="684" type="line"/>
			<point x="133" y="684" type="line"/>
		</contour>
	</outline>
	<anchor name="bottom" x="245" y="0"/>
	<anchor name="top" x="378" y="684"/>
</glyph>
<glyph name="O" format="2">
	<unicode hex="004F"/>
	<advance width="600"/>
	<outline>
		<contour>
			<point x="279" y="-14" type="curve" smooth="yes"/>
			<point x="436" y="-14"/>
			<point x="525" y="112"/>
			<point x="552" y="305" type="curve" smooth="yes"/>
			<point x="554" y="319" type="line" smooth="yes"/>
			<point x="590" y="566"/>
			<point x="516" y="698"/>
			<point x="346" y="698" type="curve" smooth="yes"/>
			<point x="193" y="698"/>
			<point x="98" y="571"/>
			<point x="70" y="378" type="curve" smooth="yes"/>
			<point x="68" y="364" type="line" smooth="yes"/>
			<point x="33" y="118"/>
			<point x="106" y="-14"/>
		</contour>
		<contour>
			<point x="282" y="65" type="curve" smooth="yes"/>
			<point x="174" y="65"/>
			<point x="137" y="168"/>
			<point x="165" y="359" type="curve" smooth="yes"/>
			<point x="166" y="366" type="line" smooth="yes"/>
			<point x="190" y="538"/>
			<point x="250" y="619"/>
			<point x="342" y="619" type="curve" smooth="yes"/>
			<point x="449" y="619"/>
			<point x="485" y="516"/>
			<point x="458" y="327" type="curve" smooth="yes"/>
			<point x="457" y="320" type="line" smooth="yes"/>
			<point x="432" y="146"/>
			<point x="376" y="65"/>
		</contour>
	</outline>
	<anchor name="bottom" x="273" y="0"/>
	<anchor name="center" x="318" y="351"/>
	<anchor name="top" x="361" y="684"/>
</glyph>
<glyph name="Q" format="2">
	<unicode hex="0051"/>
	<advance width="600"/>
	<outline>
		<contour>
			<point x="285" y="-63" type="curve" smooth="yes"/>
			<point x="443" y="-122" type="line"/>
			<point x="494" y="-51" type="line"/>
			<point x="314" y="9" type="line"/>
			<point x="441" y="20"/>
			<point x="526" y="119"/>
			<point x="554" y="311" type="curve" smooth="yes"/>
			<point x="556" y="325" type="line" smooth="yes"/>
			<point x="589" y="563"/>
			<point x="516" y="698"/>
			<point x="341" y="698" type="curve" smooth="yes"/>
			<point x="191" y="698"/>
			<point x="98" y="572"/>
			<point x="70" y="378" type="curve" smooth="yes"/>
			<point x="68" y="364" type="line" smooth="yes"/>
			<point x="33" y="119"/>
			<point x="105" y="6"/>
		</contour>
		<contour>
			<point x="283" y="65" type="curve" smooth="yes"/>
			<point x="175" y="65"/>
			<point x="137" y="169"/>
			<point x="165" y="359" type="curve" smooth="yes"/>
			<point x="166" y="366" type="line" smooth="yes"/>
			<point x="190" y="538"/>
			<point x="248" y="621"/>
			<point x="339" y="621" type="curve" smooth="yes"/>
			<point x="446" y="621"/>
			<point x="484" y="516"/>
			<point x="458" y="327" type="curve" smooth="yes"/>
			<point x="457" y="320" type="line" smooth="yes"/>
			<point x="432" y="147"/>
			<point x="377" y="65"/>
		</contour>
	</outline>
	<anchor name="bottom" x="252" y="6"/>
	<anchor name="top" x="343" y="684"/>
</glyph>
<glyph name="T" format="2">
	<unicode hex="0054"/>
	<advance width="600"/>
	<outline>
		<contour>
			<point x="215" y="0" type="line"/>
			<point x="310" y="0" type="line"/>
			<point x="394" y="601" type="line"/>
			<point x="602" y="601" type="line"/>
			<point x="614" y="684" type="line"/>
			<point x="104" y="684" type="line"/>
			<point x="93" y="601" type="line"/>
			<point x="300" y="601" type="line"/>
		</contour>
	</outline>
	<anchor name="bottom" x="262" y="0"/>
	<anchor name="center" x="312" y="357"/>
	<anchor name="top" x="359" y="684"/>
</glyph>
<glyph name="U" format="2">
	<unicode hex="0055"/>
	<advance width="600"/>
	<outline>
		<contour>
			<point x="269" y="-14" type="curve" smooth="yes"/>
			<point x="422" y="-14"/>
			<point x="502" y="76"/>
			<point x="524" y="224" type="curve" smooth="yes"/>
			<point x="588" y="684" type="line"/>
			<point x="494" y="684" type="line"/>
			<point x="430" y="224" type="line" smooth="yes"/>
			<point x="416" y="130"/>
			<point x="375" y="65"/>
			<point x="279" y="65" type="curve" smooth="yes"/>
			<point x="185" y="65"/>
			<point x="148" y="138"/>
			<point x="162" y="239" type="curve" smooth="yes"/>
			<point x="225" y="684" type="line"/>
			<point x="130" y="684" type="line"/>
			<point x="69" y="242" type="line" smooth="yes"/>
			<point x="46" y="80"/>
			<point x="117" y="-14"/>
		</contour>
	</outline>
	<anchor name="bottom" x="256" y="0"/>
	<anchor name="ogonek" x="364" y="0"/>
	<anchor name="top" x="359" y="684"/>
</glyph>
<glyph name="V" format="2">
	<unicode hex="0056"/>
	<advance width="600"/>
	<outline>
		<contour>
			<point x="196" y="-2" type="line"/>
			<point x="327" y="-2" type="line"/>
			<point x="630" y="684" type="line"/>
			<point x="529" y="684" type="line"/>
			<point x="273" y="84" type="line"/>
			<point x="185" y="684" type="line"/>
			<point x="88" y="684" type="line"/>
		</contour>
	</outline>
	<anchor name="bottom" x="275" y="0"/>
	<anchor name="ogonek" x="563" y="0"/>
	<anchor name="overlap" x="363" y="684"/>
	<anchor name="top" x="367" y="684"/>
</glyph>
<glyph name="W" format="2">
	<unicode hex="0057"/>
	<advance width="600"/>
	<outline>
		<contour>
			<point x="62" y="0" type="line"/>
			<point x="191" y="0" type="line"/>
			<point x="316" y="411" type="line"/>
			<point x="324" y="411" type="line"/>
			<point x="335" y="0" type="line"/>
			<point x="464" y="0" type="line"/>
			<point x="626" y="684" type="line"/>
			<point x="535" y="684" type="line"/>
			<point x="407" y="103" type="line"/>
			<point x="400" y="103" type="line"/>
			<point x="389" y="528" type="line"/>
			<point x="283" y="528" type="line"/>
			<point x="154" y="103" type="line"/>
			<point x="146" y="103" type="line"/>
			<point x="181" y="684" type="line"/>
			<point x="92" y="684" type="line"/>
		</contour>
	</outline>
	<anchor name="top" x="359" y="684"/>
</glyph>
<glyph name="Y" format="2">
	<unicode hex="0059"/>
	<advance width="600"/>
	<outline>
		<contour>
			<point x="211" y="0" type="line"/>
			<point x="307" y="0" type="line"/>
			<point x="339" y="229" type="line"/>
			<point x="631" y="684" type="line"/>
			<point x="526" y="684" type="line"/>
			<point x="306" y="327" type="line"/>
			<point x="189" y="684" type="line"/>
			<point x="87" y="684" type="line"/>
			<point x="244" y="229" type="line"/>
		</contour>
	</outline>
	<anchor name="bottom" x="257" y="0"/>
	<anchor name="top" x="358" y="684"/>
</glyph>
<glyph name="bracketleft" format="2">
	<unicode hex="005B"/>
	<advance width="600"/>
	<outline>
		<contour>
			<point x="434" y="-93" type="line"/>
			<point x="231" y="-93" type="line"/>
			<point x="345" y="722" type="line"/>
			<point x="549" y="722" type="line"/>
			<point x="559" y="792" type="line"/>
			<point x="268" y="792" type="line"/>
			<point x="133" y="-163" type="line"/>
			<point x="424" y="-163" type="line"/>
		</contour>
	</outline>
</glyph>
<glyph name="bracketright" format="2">
	<unicode hex="005D"/>
	<advance width="600"/>
	<outline>
		<contour>
			<point x="56" y="-163" type="line"/>
			<point x="347" y="-163" type="line"/>
			<point x="482" y="792" type="line"/>
			<point x="191" y="792" type="line"/>
			<point x="181" y="722" type="line"/>
			<point x="384" y="722" type="line"/>
			<point x="270" y="-93" type="line"/>
			<point x="66" y="-93" type="line"/>
		</contour>
	</outline>
</glyph>
<glyph name="underscore" format="2">
	<unicode hex="005F"/>
	<advance width="600"/>
	<outline>
		<contour>
			<point x="-20" y="-98" type="line"/>
			<point x="-31" y="-173" type="line"/>
			<point x="509" y="-173" type="line"/>
			<point x="519" y="-98" type="line"/>
		</contour>
	</outline>
</glyph>
<glyph name="grave" format="2">
	<unicode hex="0060"/>
	<advance width="600"/>
	<outline>
		<contour>
			<point x="265" y="750" type="line"/>
			<point x="350" y="604" type="line"/>
			<point x="427" y="604" type="line"/>
			<point x="371" y="750" type="line"/>
		</contour>
	</outline>
	<anchor name="_top" x="380" y="523"/>
</glyph>
<glyph name="b" format="2">
	<unicode hex="0062"/>
	<advance width="600"/>
	<outline>
		<contour>
			<point x="373" y="537" type="curve" smooth="yes"/>
			<point x="307" y="537"/>
			<point x="249" y="504"/>
			<point x="205" y="426" type="curve"/>
			<point x="251" y="750" type="line"/>
			<point x="158" y="750" type="line"/>
			<point x="53" y="0" type="line"/>
			<point x="223" y="0" type="line" smooth="yes"/>
			<point x="400" y="0"/>
			<point x="510" y="99"/>
			<point x="533" y="260" type="curve" smooth="yes"/>
			<point x="535" y="274" type="line" smooth="yes"/>
			<point x="559" y="441"/>
			<point x="489" y="537"/>
		</contour>
		<contour>
			<point x="440" y="272" type="curve" smooth="yes"/>
			<point x="439" y="265" type="line"/>
			<point x="420" y="137"/>
			<point x="350" y="74"/>
			<point x="232" y="74" type="curve" smooth="yes"/>
			<point x="156" y="74" type="line"/>
			<point x="188" y="301" type="line" smooth="yes"/>
			<point x="201" y="394"/>
			<point x="252" y="461"/>
			<point x="334" y="461" type="curve" smooth="yes"/>
			<point x="414" y="461"/>
			<point x="457" y="395"/>
		</contour>
	</outline>
</glyph>
<glyph name="e" format="2">
	<unicode hex="0065"/>
	<advance width="600"/>
	<outline>
		<contour>
			<point x="313" y="-14" type="curve" smooth="yes"/>
			<point x="387" y="-14"/>
			<point x="442" y="3"/>
			<point x="479" y="24" type="curve"/>
			<point x="489" y="101" type="line"/>
			<point x="450" y="79"/>
			<point x="397" y="63"/>
			<point x="332" y="63" type="curve" smooth="yes"/>
			<point x="216" y="63"/>
			<point x="158" y="127"/>
			<point x="162" y="237" type="curve"/>
			<point x="526" y="237" type="line"/>
			<point x="531" y="273" type="line" smooth="yes"/>
			<point x="554" y="436"/>
			<point x="474" y="537"/>
			<point x="330" y="537" type="curve" smooth="yes"/>
			<point x="199" y="537"/>
			<point x="96" y="443"/>
			<point x="75" y="296" type="curve" smooth="yes"/>
			<point x="73" y="282" type="line" smooth="yes"/>
			<point x="50" y="120"/>
			<point x="119" y="-14"/>
		</contour>
		<contour>
			<point x="324" y="467" type="curve" smooth="yes"/>
			<point x="407" y="467"/>
			<point x="454" y="406"/>
			<point x="443" y="303" type="curve"/>
			<point x="167" y="303" type="line"/>
			<point x="184" y="407"/>
			<point x="245" y="467"/>
		</contour>
	</outline>
	<anchor name="ogonek" x="422" y="0"/>
	<anchor name="top" x="342" y="531"/>
</glyph>
<glyph name="g" format="2">
	<unicode hex="0067"/>
	<advance width="600"/>
	<outline>
		<contour>
			<point x="205" y="-206" type="curve" smooth="yes"/>
			<point x="232" y="-206" type="line" smooth="yes"/>
			<point x="405" y="-206"/>
			<point x="514" y="-139"/>
			<point x="514" y="-32" type="curve" smooth="yes"/>
			<point x="514" y="43"/>
			<point x="456" y="79"/>
			<point x="344" y="79" type="curve" smooth="yes"/>
			<point x="217" y="79" type="line" smooth="yes"/>
			<point x="168" y="79"/>
			<point x="143" y="89"/>
			<point x="143" y="113" type="curve" smooth="yes"/>
			<point x="143" y="146"/>
			<point x="190" y="165"/>
			<point x="255" y="165" type="curve" smooth="yes"/>
			<point x="276" y="165" type="line" smooth="yes"/>
			<point x="402" y="165"/>
			<point x="495" y="239"/>
			<point x="495" y="353" type="curve" smooth="yes"/>
			<point x="495" y="392"/>
			<point x="479" y="427"/>
			<point x="456" y="447" type="curve"/>
			<point x="573" y="447" type="line"/>
			<point x="585" y="523" type="line"/>
			<point x="304" y="523" type="line" smooth="yes"/>
			<point x="179" y="523"/>
			<point x="84" y="443"/>
			<point x="84" y="328" type="curve" smooth="yes"/>
			<point x="84" y="256"/>
			<point x="121" y="205"/>
			<point x="182" y="181" type="curve"/>
			<point x="100" y="166"/>
			<point x="53" y="132"/>
			<point x="53" y="82" type="curve" smooth="yes"/>
			<point x="53" y="45"/>
			<point x="79" y="20"/>
			<point x="133" y="12" type="curve"/>
			<point x="42" y="-6"/>
			<point x="-6" y="-49"/>
			<point x="-6" y="-100" type="curve" smooth="yes"/>
			<point x="-6" y="-167"/>
			<point x="59" y="-206"/>
		</contour>
		<contour>
			<point x="408" y="354" type="curve" smooth="yes"/>
			<point x="408" y="280"/>
			<point x="360" y="227"/>
			<point x="282" y="227" type="curve" smooth="yes"/>
			<point x="213" y="227"/>
			<point x="173" y="269"/>
			<point x="173" y="331" type="curve" smooth="yes"/>
			<point x="173" y="408"/>
			<point x="221" y="460"/>
			<point x="299" y="460" type="curve" smooth="yes"/>
			<point x="368" y="460"/>
			<point x="408" y="420"/>
		</contour>
		<contour>
			<point x="249" y="-137" type="curve" smooth="yes"/>
			<point x="222" y="-137" type="line"/>
			<point x="133" y="-137"/>
			<point x="86" y="-120"/>
			<point x="86" y="-74" type="curve" smooth="yes"/>
			<point x="86" y="-29"/>
			<point x="144" y="2"/>
			<point x="219" y="2" type="curve" smooth="yes"/>
			<point x="317" y="2" type="line" smooth="yes"/>
			<point x="390" y="2"/>
			<point x="422" y="-16"/>
			<point x="422" y="-52" type="curve" smooth="yes"/>
			<point x="422" y="-106"/>
			<point x="357" y="-137"/>
		</contour>
	</outline>
	<anchor name="bottom" x="259" y="-68"/>
	<anchor name="top" x="333" y="523"/>
</glyph>
<glyph name="i" format="2">
	<unicode hex="0069"/>
	<advance width="600"/>
	<outline>
		<contour>
			<point x="373" y="632" type="curve" smooth="yes"/>
			<point x="420" y="632"/>
			<point x="438" y="650"/>
			<point x="442" y="687" type="curve" smooth="yes"/>
			<point x="447" y="725"/>
			<point x="428" y="744"/>
			<point x="381" y="744" type="curve" smooth="yes"/>
			<point x="333" y="744"/>
			<point x="315" y="725"/>
			<point x="311" y="689" type="curve" smooth="yes"/>
			<point x="307" y="651"/>
			<point x="325" y="632"/>
		</contour>
		<contour>
			<point x="47" y="0" type="line"/>
			<point x="507" y="0" type="line"/>
			<point x="518" y="76" type="line"/>
			<point x="339" y="76" type="line"/>
			<point x="403" y="523" type="line"/>
			<point x="122" y="523" type="line"/>
			<point x="111" y="447" type="line"/>
			<point x="299" y="447" type="line"/>
			<point x="246" y="76" type="line"/>
			<point x="59" y="76" type="line"/>
		</contour>
	</outline>
	<anchor name="ogonek" x="507" y="0"/>
</glyph>
<glyph name="m" format="2">
	<unicode hex="006D"/>
	<advance width="600"/>
	<outline>
		<contour>
			<point x="17" y="0" type="line"/>
			<point x="101" y="0" type="line"/>
			<point x="153" y="368" type="line" smooth="yes"/>
			<point x="157" y="392"/>
			<point x="164" y="418"/>
			<point x="178" y="436" type="curve" smooth="yes"/>
			<point x="190" y="452"/>
			<point x="208" y="463"/>
			<point x="230" y="463" type="curve" smooth="yes"/>
			<point x="265" y="463"/>
			<point x="284" y="437"/>
			<point x="276" y="382" type="curve" smooth="yes"/>
			<point x="223" y="0" type="line"/>
			<point x="304" y="0" type="line"/>
			<point x="355" y="365" type="line"/>
			<point x="355" y="364" type="line"/>
			<point x="359" y="390"/>
			<point x="367" y="418"/>
			<point x="382" y="437" type="curve" smooth="yes"/>
			<point x="395" y="453"/>
			<point x="412" y="463"/>
			<point x="433" y="463" type="curve" smooth="yes"/>
			<point x="468" y="463"/>
			<point x="487" y="437"/>
			<point x="479" y="382" type="curve" smooth="yes"/>
			<point x="426" y="0" type="line"/>
			<point x="510" y="0" type="line"/>
			<point x="565" y="394" type="line" smooth="yes"/>
			<point x="578" y="491"/>
			<point x="541" y="537"/>
			<point x="480" y="537" type="curve" smooth="yes"/>
			<point x="429" y="537"/>
			<point x="389" y="504"/>
			<point x="361" y="447" type="curve"/>
			<point x="355" y="506"/>
			<point x="323" y="537"/>
			<point x="275" y="537" type="curve" smooth="yes"/>
			<point x="225" y="537"/>
			<point x="189" y="506"/>
			<point x="163" y="451" type="curve"/>
			<point x="174" y="523" type="line"/>
			<point x="91" y="523" type="line"/>
		</contour>
	</outline>
	<anchor name="bottom" x="248" y="0"/>
	<anchor name="top" x="369" y="524"/>
</glyph>
<glyph name="q" format="2">
	<unicode hex="0071"/>
	<advance width="600"/>
	<outline>
		<contour>
			<point x="354" y="-194" type="line"/>
			<point x="447" y="-194" type="line"/>
			<point x="547" y="523" type="line"/>
			<point x="377" y="523" type="line" smooth="yes"/>
			<point x="203" y="523"/>
			<point x="90" y="424"/>
			<point x="67" y="263" type="curve" smooth="yes"/>
			<point x="65" y="249" type="line" smooth="yes"/>
			<point x="41" y="81"/>
			<point x="109" y="-14"/>
			<point x="226" y="-14" type="curve" smooth="yes"/>
			<point x="297" y="-14"/>
			<point x="356" y="19"/>
			<point x="395" y="99" type="curve"/>
		</contour>
		<contour>
			<point x="267" y="62" type="curve" smooth="yes"/>
			<point x="185" y="62"/>
			<point x="143" y="130"/>
			<point x="160" y="252" type="curve" smooth="yes"/>
			<point x="161" y="259" type="line" smooth="yes"/>
			<point x="180" y="387"/>
			<point x="251" y="448"/>
			<point x="368" y="448" type="curve" smooth="yes"/>
			<point x="444" y="448" type="line"/>
			<point x="411" y="219" type="line" smooth="yes"/>
			<point x="398" y="130"/>
			<point x="348" y="62"/>
		</contour>
	</outline>
</glyph>
<glyph name="r" format="2">
	<unicode hex="0072"/>
	<advance width="600"/>
	<outline>
		<contour>
			<point x="38" y="0" type="line"/>
			<point x="465" y="0" type="line"/>
			<point x="476" y="76" type="line"/>
			<point x="283" y="76" type="line"/>
			<point x="311" y="276" type="line" smooth="yes"/>
			<point x="323" y="362"/>
			<point x="385" y="443"/>
			<point x="479" y="443" type="curve" smooth="yes"/>
			<point x="513" y="443"/>
			<point x="540" y="436"/>
			<point x="559" y="426" type="curve"/>
			<point x="572" y="516" type="line"/>
			<point x="559" y="524"/>
			<point x="538" y="531"/>
			<point x="505" y="531" type="curve" smooth="yes"/>
			<point x="426" y="531"/>
			<point x="366" y="482"/>
			<point x="325" y="395" type="curve"/>
			<point x="343" y="523" type="line"/>
			<point x="112" y="523" type="line"/>
			<point x="101" y="447" type="line"/>
			<point x="241" y="447" type="line"/>
			<point x="190" y="76" type="line"/>
			<point x="48" y="76" type="line"/>
		</contour>
	</outline>
	<anchor name="bottom" x="224" y="0"/>
	<anchor name="top" x="379" y="523"/>
</glyph>
<glyph name="s" format="2">
	<unicode hex="0073"/>
	<advance width="600"/>
	<outline>
		<contour>
			<point x="273" y="-14" type="curve" smooth="yes"/>
			<point x="414" y="-14"/>
			<point x="495" y="52"/>
			<point x="495" y="162" type="curve" smooth="yes"/>
			<point x="495" y="263"/>
			<point x="417" y="283"/>
			<point x="314" y="304" type="curve" smooth="yes"/>
			<point x="234" y="321"/>
			<point x="197" y="330"/>
			<point x="197" y="380" type="curve" smooth="yes"/>
			<point x="197" y="434"/>
			<point x="241" y="465"/>
			<point x="317" y="465" type="curve" smooth="yes"/>
			<point x="387" y="465"/>
			<point x="475" y="441"/>
			<point x="525" y="399" type="curve"/>
			<point x="536" y="483" type="line"/>
			<point x="483" y="518"/>
			<point x="402" y="538"/>
			<point x="325" y="538" type="curve" smooth="yes"/>
			<point x="182" y="538"/>
			<point x="105" y="465"/>
			<point x="105" y="361" type="curve" smooth="yes"/>
			<point x="105" y="263"/>
			<point x="181" y="240"/>
			<point x="286" y="220" type="curve" smooth="yes"/>
			<point x="370" y="206"/>
			<point x="405" y="195"/>
			<point x="405" y="145" type="curve" smooth="yes"/>
			<point x="405" y="88"/>
			<point x="358" y="60"/>
			<point x="280" y="60" type="curve" smooth="yes"/>
			<point x="217" y="60"/>
			<point x="135" y="78"/>
			<point x="75" y="131" type="curve"/>
			<point x="63" y="49" type="line"/>
			<point x="109" y="12"/>
			<point x="186" y="-14"/>
		</contour>
	</outline>
	<anchor name="bottom" x="273" y="0"/>
	<anchor name="top" x="351" y="523"/>
</glyph>
<glyph name="t" format="2">
	<unicode hex="0074"/>
	<advance width="600"/>
	<outline>
		<contour>
			<point x="355" y="-12" type="curve"/>
			<point x="404" y="-12"/>
			<point x="449" y="-1"/>
			<point x="472" y="11" type="curve"/>
			<point x="481" y="84" type="line"/>
			<point x="458" y="74"/>
			<point x="419" y="65"/>
			<point x="383" y="65" type="curve" smooth="yes"/>
			<point x="303" y="65"/>
			<point x="272" y="97"/>
			<point x="284" y="188" type="curve" smooth="yes"/>
			<point x="320" y="447" type="line"/>
			<point x="533" y="447" type="line"/>
			<point x="545" y="523" type="line"/>
			<point x="331" y="523" type="line"/>
			<point x="355" y="692" type="line"/>
			<point x="277" y="692" type="line"/>
			<point x="254" y="582" type="line" smooth="yes"/>
			<point x="242" y="528"/>
			<point x="219" y="519"/>
			<point x="181" y="519" type="curve" smooth="yes"/>
			<point x="96" y="519" type="line"/>
			<point x="86" y="447" type="line"/>
			<point x="228" y="447" type="line"/>
			<point x="190" y="178" type="line" smooth="yes"/>
			<point x="171" y="37"/>
			<point x="241" y="-12"/>
		</contour>
	</outline>
	<anchor name="bottom" x="322" y="0"/>
	<anchor name="caron" x="502" y="780"/>
	<anchor name="center" x="287" y="291"/>
</glyph>
<glyph name="w" format="2">
	<unicode hex="0077"/>
	<advance width="600"/>
	<outline>
		<contour>
			<point x="125" y="-14" type="curve" smooth="yes"/>
			<point x="179" y="-14"/>
			<point x="218" y="23"/>
			<point x="243" y="79" type="curve"/>
			<point x="251" y="17"/>
			<point x="289" y="-13"/>
			<point x="356" y="-13" type="curve" smooth="yes"/>
			<point x="471" y="-13"/>
			<point x="532" y="90"/>
			<point x="556" y="271" type="curve" smooth="yes"/>
			<point x="569" y="359"/>
			<point x="572" y="452"/>
			<point x="563" y="523" type="curve"/>
			<point x="481" y="523" type="line"/>
			<point x="489" y="447"/>
			<point x="487" y="367"/>
			<point x="474" y="275" type="curve" smooth="yes"/>
			<point x="452" y="122"/>
			<point x="422" y="59"/>
			<point x="370" y="59" type="curve" smooth="yes"/>
			<point x="331" y="59"/>
			<point x="317" y="90"/>
			<point x="324" y="136" type="curve" smooth="yes"/>
			<point x="380" y="523" type="line"/>
			<point x="298" y="523" type="line"/>
			<point x="245" y="146" type="line" smooth="yes"/>
			<point x="238" y="103"/>
			<point x="214" y="59"/>
			<point x="167" y="59" type="curve" smooth="yes"/>
			<point x="132" y="59"/>
			<point x="117" y="86"/>
			<point x="123" y="132" type="curve" smooth="yes"/>
			<point x="178" y="523" type="line"/>
			<point x="95" y="523" type="line"/>
			<point x="37" y="111" type="line" smooth="yes"/>
			<point x="26" y="31"/>
			<point x="59" y="-14"/>
		</contour>
	</outline>
	<anchor name="top" x="339" y="523"/>
</glyph>
<glyph name="x" format="2">
	<unicode hex="0078"/>
	<advance width="600"/>
	<outline>
		<contour>
			<point x="24" y="0" type="line"/>
			<point x="133" y="0" type="line"/>
			<point x="291" y="210" type="line"/>
			<point x="400" y="0" type="line"/>
			<point x="502" y="0" type="line"/>
			<point x="359" y="273" type="line"/>
			<point x="564" y="523" type="line"/>
			<point x="458" y="523" type="line"/>
			<point x="307" y="335" type="line"/>
			<point x="212" y="523" type="line"/>
			<point x="108" y="523" type="line"/>
			<point x="243" y="273" type="line"/>
		</contour>
	</outline>
	<anchor name="bottom" x="298" y="0"/>
	<anchor name="top" x="367" y="523"/>
</glyph>
<glyph name="y" format="2">
	<unicode hex="0079"/>
	<advance width="600"/>
	<outline>
		<contour>
			<point x="225" y="-204" type="curve" smooth="yes"/>
			<point x="356" y="-204"/>
			<point x="454" y="-139"/>
			<point x="476" y="22" type="curve" smooth="yes"/>
			<point x="545" y="523" type="line"/>
			<point x="453" y="523" type="line"/>
			<point x="413" y="239" type="line" smooth="yes"/>
			<point x="408" y="204"/>
			<point x="396" y="168"/>
			<point x="379" y="141" type="curve" smooth="yes"/>
			<point x="355" y="104"/>
			<point x="319" y="83"/>
			<point x="271" y="83" type="curve" smooth="yes"/>
			<point x="198" y="83"/>
			<point x="161" y="129"/>
			<point x="174" y="222" type="curve" smooth="yes"/>
			<point x="217" y="523" type="line"/>
			<point x="123" y="523" type="line"/>
			<point x="78" y="203" type="line" smooth="yes"/>
			<point x="60" y="73"/>
			<point x="129" y="6"/>
			<point x="227" y="6" type="curve" smooth="yes"/>
			<point x="307" y="6"/>
			<point x="357" y="44"/>
			<point x="396" y="114" type="curve"/>
			<point x="385" y="35" type="line" smooth="yes"/>
			<point x="371" y="-76"/>
			<point x="319" y="-128"/>
			<point x="222" y="-128" type="curve" smooth="yes"/>
			<point x="150" y="-128"/>
			<point x="92" y="-101"/>
			<point x="50" y="-64" type="curve"/>
			<point x="39" y="-144" type="line"/>
			<point x="75" y="-173"/>
			<point x="139" y="-204"/>
		</contour>
	</outline>
	<anchor name="top" x="335" y="523"/>
</glyph>
<glyph name="sterling" format="2">
	<unicode hex="00A3"/>
	<advance width="600"/>
	<outline>
		<contour>
			<point x="48" y="77" type="curve"/>
			<point x="38" y="0" type="line"/>
			<point x="500" y="0" type="line"/>
			<point x="510" y="80" type="line"/>
			<point x="160" y="80" type="line"/>
			<point x="197" y="104"/>
			<point x="254" y="167"/>
			<point x="253" y="289" type="curve"/>
			<point x="438" y="289" type="line"/>
			<point x="449" y="363" type="line"/>
			<point x="252" y="363" type="line"/>
			<point x="248" y="396"/>
			<point x="240" y="427"/>
			<point x="240" y="467" type="curve" smooth="yes"/>
			<point x="240" y="559"/>
			<point x="294" y="618"/>
			<point x="384" y="618" type="curve" smooth="yes"/>
			<point x="457" y="618"/>
			<point x="526" y="593"/>
			<point x="576" y="549" type="curve"/>
			<point x="589" y="634" type="line"/>
			<point x="544" y="668"/>
			<point x="476" y="698"/>
			<point x="377" y="698" type="curve" smooth="yes"/>
			<point x="242" y="698"/>
			<point x="149" y="612"/>
			<point x="149" y="479" type="curve" smooth="yes"/>
			<point x="149" y="433"/>
			<point x="157" y="394"/>
			<point x="163" y="363" type="curve"/>
			<point x="80" y="363" type="line"/>
			<point x="69" y="289" type="line"/>
			<point x="162" y="289" type="line"/>
			<point x="161" y="186"/>
			<point x="105" y="110"/>
		</contour>
	</outline>
</glyph>
<glyph name="brokenbar" format="2">
	<unicode hex="00A6"/>
	<advance width="600"/>
	<outline>
		<contour>
			<point x="331" y="792" type="line"/>
			<point x="278" y="418" type="line"/>
			<point x="366" y="418" type="line"/>
			<point x="418" y="792" type="line"/>
		</contour>
		<contour>
			<point x="254" y="244" type="line"/>
			<point x="196" y="-163" type="line"/>
			<point x="284" y="-163" type="line"/>
			<point x="341" y="244" type="line"/>
		</contour>
	</outline>
</glyph>
<glyph name="guillemetleft" format="2">
	<unicode hex="00AB"/>
	<advance width="600"/>
	<outline>
		<contour>
			<point x="300" y="77" type="line"/>
			<point x="166" y="285" type="line"/>
			<point x="360" y="497" type="line"/>
			<point x="257" y="497" type="line"/>
			<point x="67" y="287" type="line"/>
			<point x="202" y="77" type="line"/>
		</contour>
		<contour>
			<point x="505" y="77" type="line"/>
			<point x="372" y="284" type="line"/>
			<point x="565" y="497" type="line"/>
			<point x="462" y="497" type="line"/>
			<point x="272" y="287" type="line"/>
			<point x="408" y="77" type="line"/>
		</contour>
	</outline>
</glyph>
<glyph name="logicalnot" format="2">
	<unicode hex="00AC"/>
	<advance width="600"/>
	<outline>
		<contour>
			<point x="497" y="57" type="line"/>
			<point x="537" y="344" type="line"/>
			<point x="86" y="344" type="line"/>
			<point x="74" y="263" type="line"/>
			<point x="437" y="263" type="line"/>
			<point x="410" y="57" type="line"/>
		</contour>
	</outline>
</glyph>
<glyph name="registered" format="2">
	<unicode hex="00AE"/>
	<advance width="600"/>
	<outline>
		<contour>
			<point x="302" y="105" type="curve" smooth="yes"/>
			<point x="441" y="105"/>
			<point x="547" y="193"/>
			<point x="569" y="345" type="curve" smooth="yes"/>
			<point x="571" y="359" type="line" smooth="yes"/>
			<point x="595" y="532"/>
			<point x="497" y="657"/>
			<point x="331" y="657" type="curve" smooth="yes"/>
			<point x="189" y="657"/>
			<point x="86" y="569"/>
			<point x="65" y="419" type="curve" smooth="yes"/>
			<point x="63" y="405" type="line" smooth="yes"/>
			<point x="38" y="231"/>
			<point x="136" y="105"/>
		</contour>
		<contour>
			<point x="306" y="153" type="curve" smooth="yes"/>
			<point x="167" y="153"/>
			<point x="93" y="255"/>
			<point x="114" y="404" type="curve" smooth="yes"/>
			<point x="115" y="411" type="line" smooth="yes"/>
			<point x="133" y="540"/>
			<point x="211" y="609"/>
			<point x="328" y="609" type="curve" smooth="yes"/>
			<point x="467" y="609"/>
			<point x="540" y="507"/>
			<point x="519" y="360" type="curve" smooth="yes"/>
			<point x="518" y="353" type="line" smooth="yes"/>
			<point x="500" y="222"/>
			<point x="420" y="153"/>
		</contour>
		<contour>
			<point x="205" y="249" type="line"/>
			<point x="254" y="249" type="line"/>
			<point x="267" y="344" type="line"/>
			<point x="312" y="344" type="line" smooth="yes"/>
			<point x="336" y="344"/>
			<point x="346" y="337"/>
			<point x="351" y="311" type="curve" smooth="yes"/>
			<point x="361" y="249" type="line"/>
			<point x="411" y="249" type="line"/>
			<point x="398" y="319" type="line" smooth="yes"/>
			<point x="394" y="349"/>
			<point x="384" y="359"/>
			<point x="364" y="363" type="curve"/>
			<point x="405" y="370"/>
			<point x="433" y="396"/>
			<point x="433" y="439" type="curve" smooth="yes"/>
			<point x="433" y="485"/>
			<point x="403" y="511"/>
			<point x="341" y="511" type="curve" smooth="yes"/>
			<point x="242" y="511" type="line"/>
		</contour>
		<contour>
			<point x="333" y="472" type="line" smooth="yes"/>
			<point x="370" y="472"/>
			<point x="384" y="456"/>
			<point x="384" y="432" type="curve" smooth="yes"/>
			<point x="384" y="402"/>
			<point x="363" y="382"/>
			<point x="325" y="382" type="curve" smooth="yes"/>
			<point x="272" y="382" type="line"/>
			<point x="285" y="472" type="line"/>
		</contour>
	</outline>
</glyph>
<glyph name="macron" format="2">
	<unicode hex="00AF"/>
	<advance width="600"/>
	<outline>
		<contour>
			<point x="210" y="638" type="line"/>
			<point x="495" y="638" type="line"/>
			<point x="504" y="701" type="line"/>
			<point x="219" y="701" type="line"/>
		</contour>
	</outline>
	<anchor name="_top" x="338" y="523"/>
</glyph>
<glyph name="degree" format="2">
	<unicode hex="00B0"/>
	<advance width="600"/>
	<outline>
		<contour>
			<point x="325" y="301" type="curve" smooth="yes"/>
			<point x="439" y="301"/>
			<point x="524" y="397"/>
			<point x="524" y="514" type="curve" smooth="yes"/>
			<point x="524" y="621"/>
			<point x="453" y="696"/>
			<point x="344" y="696" type="curve" smooth="yes"/>
			<point x="228" y="696"/>
			<point x="143" y="605"/>
			<point x="143" y="488" type="curve" smooth="yes"/>
			<point x="143" y="379"/>
			<point x="213" y="301"/>
		</contour>
		<contour>
			<point x="325" y="370" type="curve" smooth="yes"/>
			<point x="257" y="370"/>
			<point x="213" y="420"/>
			<point x="213" y="492" type="curve" smooth="yes"/>
			<point x="213" y="573"/>
			<point x="270" y="628"/>
			<point x="341" y="628" type="curve" smooth="yes"/>
			<point x="413" y="628"/>
			<point x="455" y="581"/>
			<point x="455" y="508" type="curve" smooth="yes"/>
			<point x="455" y="428"/>
			<point x="400" y="370"/>
		</contour>
	</outline>
</glyph>
<glyph name="mu" format="2">
	<unicode hex="00B5"/>
	<advance width="600"/>
	<outline>
		<contour>
			<point x="23" y="-191" type="line"/>
			<point x="115" y="-191" type="line"/>
			<point x="143" y="10" type="line"/>
			<point x="165" y="-6"/>
			<point x="194" y="-14"/>
			<point x="226" y="-14" type="curve" smooth="yes"/>
			<point x="300" y="-14"/>
			<point x="360" y="27"/>
			<point x="397" y="98" type="curve"/>
			<point x="382" y="0" type="line"/>
			<point x="473" y="0" type="line"/>
			<point x="547" y="523" type="line"/>
			<point x="454" y="523" type="line"/>
			<point x="411" y="220" type="line" smooth="yes"/>
			<point x="406" y="181"/>
			<point x="394" y="148"/>
			<point x="377" y="122" type="curve" smooth="yes"/>
			<point x="353" y="85"/>
			<point x="317" y="63"/>
			<point x="267" y="63" type="curve" smooth="yes"/>
			<point x="196" y="63"/>
			<point x="158" y="109"/>
			<point x="171" y="202" type="curve" smooth="yes"/>
			<point x="216" y="523" type="line"/>
			<point x="123" y="523" type="line"/>
			<point x="76" y="187" type="line" smooth="yes"/>
			<point x="76" y="184"/>
			<point x="75" y="181"/>
			<point x="75" y="178" type="curve"/>
		</contour>
	</outline>
	<anchor name="bottom" x="282" y="0"/>
	<anchor name="ogonek" x="495" y="0"/>
	<anchor name="top" x="349" y="534"/>
</glyph>
<glyph name="ordmasculine" format="2">
	<unicode hex="00BA"/>
	<advance width="600"/>
	<outline>
		<contour>
			<point x="312" y="224" type="curve" smooth="yes"/>
			<point x="435" y="224"/>
			<point x="523" y="307"/>
			<point x="542" y="442" type="curve" smooth="yes"/>
			<point x="562" y="594"/>
			<point x="483" y="696"/>
			<point x="345" y="696" type="curve" smooth="yes"/>
			<point x="220" y="696"/>
			<point x="133" y="614"/>
			<point x="114" y="479" type="curve" smooth="yes"/>
			<point x="94" y="326"/>
			<point x="173" y="224"/>
		</contour>
		<contour>
			<point x="316" y="286" type="curve" smooth="yes"/>
			<point x="221" y="286"/>
			<point x="179" y="362"/>
			<point x="196" y="475" type="curve" smooth="yes"/>
			<point x="209" y="576"/>
			<point x="258" y="634"/>
			<point x="341" y="634" type="curve" smooth="yes"/>
			<point x="435" y="634"/>
			<point x="476" y="558"/>
			<point x="460" y="445" type="curve" smooth="yes"/>
			<point x="446" y="344"/>
			<point x="398" y="286"/>
		</contour>
	</outline>
</glyph>
<glyph name="guillemetright" format="2">
	<unicode hex="00BB"/>
	<advance width="600"/>
	<outline>
		<contour>
			<point x="248" y="77" type="line"/>
			<point x="350" y="77" type="line"/>
			<point x="541" y="287" type="line"/>
			<point x="406" y="497" type="line"/>
			<point x="308" y="497" type="line"/>
			<point x="442" y="290" type="line"/>
		</contour>
		<contour>
			<point x="42" y="77" type="line"/>
			<point x="144" y="77" type="line"/>
			<point x="335" y="287" type="line"/>
			<point x="199" y="497" type="line"/>
			<point x="102" y="497" type="line"/>
			<point x="236" y="290" type="line"/>
		</contour>
	</outline>
</glyph>
<glyph name="questiondown" format="2">
	<unicode hex="00BF"/>
	<advance width="600"/>
	<outline>
		<contour>
			<point x="354" y="535" type="curve" smooth="yes"/>
			<point x="306" y="535"/>
			<point x="285" y="516"/>
			<point x="280" y="477" type="curve" smooth="yes"/>
			<point x="274" y="433"/>
			<point x="294" y="408"/>
			<point x="346" y="408" type="curve" smooth="yes"/>
			<point x="394" y="408"/>
			<point x="415" y="428"/>
			<point x="419" y="466" type="curve" smooth="yes"/>
			<point x="426" y="511"/>
			<point x="406" y="535"/>
		</contour>
		<contour>
			<point x="375" y="320" type="curve"/>
			<point x="292" y="320" type="line"/>
			<point x="289" y="290" type="line" smooth="yes"/>
			<point x="274" y="152"/>
			<point x="65" y="150"/>
			<point x="65" y="-17" type="curve" smooth="yes"/>
			<point x="65" y="-109"/>
			<point x="130" y="-175"/>
			<point x="263" y="-175" type="curve" smooth="yes"/>
			<point x="336" y="-175"/>
			<point x="398" y="-156"/>
			<point x="449" y="-125" type="curve"/>
			<point x="461" y="-37" type="line"/>
			<point x="412" y="-71"/>
			<point x="350" y="-94"/>
			<point x="280" y="-94" type="curve" smooth="yes"/>
			<point x="202" y="-94"/>
			<point x="160" y="-63"/>
			<point x="160" y="-4" type="curve" smooth="yes"/>
			<point x="160" y="114"/>
			<point x="356" y="111"/>
			<point x="374" y="281" type="curve" smooth="yes"/>
			<point x="377" y="300"/>
			<point x="376" y="316"/>
		</contour>
	</outline>
</glyph>
<glyph name="AE" format="2">
	<unicode hex="00C6"/>
	<advance width="600"/>
	<outline>
		<contour>
			<point x="-29" y="0" type="line"/>
			<point x="65" y="-1" type="line"/>
			<point x="138" y="179" type="line"/>
			<point x="283" y="179" type="line"/>
			<point x="258" y="0" type="line"/>
			<point x="538" y="0" type="line"/>
			<point x="549" y="78" type="line"/>
			<point x="356" y="78" type="line"/>
			<point x="388" y="304" type="line"/>
			<point x="551" y="304" type="line"/>
			<point x="562" y="381" type="line"/>
			<point x="398" y="381" type="line"/>
			<point x="430" y="607" type="line"/>
			<point x="620" y="607" type="line"/>
			<point x="631" y="684" type="line"/>
			<point x="256" y="684" type="line"/>
		</contour>
		<contour>
			<point x="169" y="255" type="line"/>
			<point x="313" y="607" type="line"/>
			<point x="343" y="607" type="line"/>
			<point x="294" y="255" type="line"/>
		</contour>
	</outline>
	<anchor name="top" x="398" y="684"/>
</glyph>
<glyph name="multiply" format="2">
	<unicode hex="00D7"/>
	<advance width="600"/>
	<outline>
		<contour>
			<point x="123" y="97" type="line"/>
			<point x="302" y="256" type="line"/>
			<point x="433" y="100" type="line"/>
			<point x="494" y="154" type="line"/>
			<point x="363" y="310" type="line"/>
			<point x="543" y="470" type="line"/>
			<point x="492" y="529" type="line"/>
			<point x="313" y="370" type="line"/>
			<point x="182" y="525" type="line"/>
			<point x="120" y="472" type="line"/>
			<point x="252" y="316" type="line"/>
			<point x="72" y="156" type="line"/>
		</contour>
	</outline>
</glyph>
<glyph name="Thorn" format="2">
	<unicode hex="00DE"/>
	<advance width="600"/>
	<outline>
		<contour>
			<point x="143" y="698" type="line"/>
			<point x="45" y="0" type="line"/>
			<point x="139" y="0" type="line"/>
			<point x="157" y="125" type="line"/>
			<point x="320" y="125" type="line" smooth="yes"/>
			<point x="471" y="125"/>
			<point x="575" y="222"/>
			<point x="575" y="380" type="curve" smooth="yes"/>
			<point x="575" y="502"/>
			<point x="498" y="586"/>
			<point x="356" y="586" type="curve" smooth="yes"/>
			<point x="222" y="586" type="line"/>
			<point x="238" y="698" type="line"/>
		</contour>
		<contour>
			<point x="340" y="507" type="line" smooth="yes"/>
			<point x="439" y="507"/>
			<point x="479" y="447"/>
			<point x="479" y="372" type="curve" smooth="yes"/>
			<point x="479" y="266"/>
			<point x="415" y="203"/>
			<point x="314" y="203" type="curve" smooth="yes"/>
			<point x="168" y="203" type="line"/>
			<point x="211" y="507" type="line"/>
		</contour>
	</outline>
</glyph>
<glyph name="germandbls" format="2">
	<unicode hex="00DF"/>
	<advance width="600"/>
	<outline>
		<contour>
			<point x="321" y="-9" type="curve" smooth="yes"/>
			<point x="454" y="-9"/>
			<point x="541" y="78"/>
			<point x="541" y="209" type="curve" smooth="yes"/>
			<point x="541" y="301"/>
			<point x="487" y="359"/>
			<point x="404" y="376" type="curve"/>
			<point x="491" y="392"/>
			<point x="568" y="457"/>
			<point x="568" y="578" type="curve" smooth="yes"/>
			<point x="568" y="686"/>
			<point x="499" y="760"/>
			<point x="358" y="760" type="curve" smooth="yes"/>
			<point x="200" y="760"/>
			<point x="124" y="662"/>
			<point x="105" y="526" type="curve" smooth="yes"/>
			<point x="32" y="0" type="line"/>
			<point x="125" y="0" type="line"/>
			<point x="201" y="529" type="line" smooth="yes"/>
			<point x="215" y="633"/>
			<point x="265" y="684"/>
			<point x="353" y="684" type="curve" smooth="yes"/>
			<point x="431" y="684"/>
			<point x="475" y="643"/>
			<point x="475" y="568" type="curve" smooth="yes"/>
			<point x="475" y="472"/>
			<point x="421" y="412"/>
			<point x="329" y="412" type="curve" smooth="yes"/>
			<point x="235" y="412" type="line"/>
			<point x="225" y="336" type="line"/>
			<point x="307" y="336" type="line" smooth="yes"/>
			<point x="400" y="336"/>
			<point x="447" y="294"/>
			<point x="447" y="209" type="curve" smooth="yes"/>
			<point x="447" y="119"/>
			<point x="393" y="63"/>
			<point x="307" y="63" type="curve" smooth="yes"/>
			<point x="259" y="63"/>
			<point x="222" y="76"/>
			<point x="194" y="95" type="curve"/>
			<point x="183" y="24" type="line"/>
			<point x="211" y="6"/>
			<point x="257" y="-9"/>
		</contour>
	</outline>
</glyph>
<glyph name="eth" format="2">
	<unicode hex="00F0"/>
	<advance width="600"/>
	<outline>
		<contour>
			<point x="276" y="-14" type="curve" smooth="yes"/>
			<point x="420" y="-14"/>
			<point x="510" y="80"/>
			<point x="537" y="260" type="curve" smooth="yes"/>
			<point x="539" y="274" type="line" smooth="yes"/>
			<point x="560" y="411"/>
			<point x="536" y="538"/>
			<point x="471" y="637" type="curve"/>
			<point x="562" y="671" type="line"/>
			<point x="571" y="737" type="line"/>
			<point x="434" y="686" type="line"/>
			<point x="413" y="710"/>
			<point x="390" y="731"/>
			<point x="364" y="750" type="curve"/>
			<point x="236" y="750" type="line"/>
			<point x="279" y="718"/>
			<point x="316" y="687"/>
			<point x="346" y="654" type="curve"/>
			<point x="240" y="615" type="line"/>
			<point x="231" y="549" type="line"/>
			<point x="384" y="605" type="line"/>
			<point x="422" y="549"/>
			<point x="443" y="484"/>
			<point x="449" y="401" type="curve"/>
			<point x="420" y="465"/>
			<point x="366" y="506"/>
			<point x="286" y="506" type="curve" smooth="yes"/>
			<point x="174" y="506"/>
			<point x="85" y="423"/>
			<point x="65" y="284" type="curve" smooth="yes"/>
			<point x="63" y="270" type="line" smooth="yes"/>
			<point x="40" y="108"/>
			<point x="110" y="-14"/>
		</contour>
		<contour>
			<point x="283" y="62" type="curve" smooth="yes"/>
			<point x="188" y="62"/>
			<point x="141" y="138"/>
			<point x="159" y="260" type="curve" smooth="yes"/>
			<point x="160" y="267" type="line" smooth="yes"/>
			<point x="174" y="372"/>
			<point x="229" y="435"/>
			<point x="311" y="435" type="curve" smooth="yes"/>
			<point x="396" y="435"/>
			<point x="454" y="378"/>
			<point x="440" y="253" type="curve" smooth="yes"/>
			<point x="439" y="245" type="line" smooth="yes"/>
			<point x="425" y="128"/>
			<point x="370" y="62"/>
		</contour>
	</outline>
</glyph>
<glyph name="thorn" format="2">
	<unicode hex="00FE"/>
	<advance width="600"/>
	<outline>
		<contour>
			<point x="158" y="750" type="line"/>
			<point x="25" y="-204" type="line"/>
			<point x="118" y="-204" type="line"/>
			<point x="146" y="0" type="line"/>
			<point x="223" y="0" type="line" smooth="yes"/>
			<point x="400" y="0"/>
			<point x="510" y="99"/>
			<point x="533" y="260" type="curve" smooth="yes"/>
			<point x="535" y="274" type="line" smooth="yes"/>
			<point x="559" y="441"/>
			<point x="489" y="537"/>
			<point x="373" y="537" type="curve" smooth="yes"/>
			<point x="307" y="537"/>
			<point x="249" y="505"/>
			<point x="205" y="426" type="curve"/>
			<point x="251" y="750" type="line"/>
		</contour>
		<contour>
			<point x="334" y="461" type="curve" smooth="yes"/>
			<point x="414" y="461"/>
			<point x="457" y="395"/>
			<point x="440" y="272" type="curve" smooth="yes"/>
			<point x="439" y="265" type="line" smooth="yes"/>
			<point x="420" y="137"/>
			<point x="350" y="74"/>
			<point x="232" y="74" type="curve" smooth="yes"/>
			<point x="156" y="74" type="line"/>
			<point x="189" y="301" type="line" smooth="yes"/>
			<point x="203" y="394"/>
			<point x="252" y="461"/>
		</contour>
	</outline>
</glyph>
<glyph name="aogonek" format="2">
	<unicode hex="0105"/>
	<advance width="600"/>
	<outline>
		<contour>
			<point x="212" y="-14" type="curve" smooth="yes"/>
			<point x="292" y="-14"/>
			<point x="346" y="28"/>
			<point x="385" y="91" type="curve"/>
			<point x="372" y="0" type="line"/>
			<point x="389" y="0" type="line"/>
			<point x="318" y="-23"/>
			<point x="276" y="-68"/>
			<point x="276" y="-122" type="curve" smooth="yes"/>
			<point x="276" y="-179"/>
			<point x="318" y="-203"/>
			<point x="385" y="-203" type="curve" smooth="yes"/>
			<point x="408" y="-203"/>
			<point x="432" y="-198"/>
			<point x="445" y="-193" type="curve"/>
			<point x="453" y="-130" type="line"/>
			<point x="444" y="-133"/>
			<point x="428" y="-136"/>
			<point x="411" y="-136" type="curve" smooth="yes"/>
			<point x="380" y="-136"/>
			<point x="358" y="-125"/>
			<point x="358" y="-96" type="curve" smooth="yes"/>
			<point x="358" y="-60"/>
			<point x="385" y="-27"/>
			<point x="463" y="0" type="curve"/>
			<point x="508" y="321" type="line" smooth="yes"/>
			<point x="530" y="474"/>
			<point x="449" y="537"/>
			<point x="318" y="537" type="curve" smooth="yes"/>
			<point x="243" y="537"/>
			<point x="176" y="517"/>
			<point x="127" y="491" type="curve"/>
			<point x="115" y="407" type="line"/>
			<point x="175" y="446"/>
			<point x="238" y="461"/>
			<point x="299" y="461" type="curve" smooth="yes"/>
			<point x="391" y="461"/>
			<point x="428" y="414"/>
			<point x="417" y="327" type="curve"/>
			<point x="299" y="309" type="line" smooth="yes"/>
			<point x="143" y="286"/>
			<point x="63" y="229"/>
			<point x="64" y="115" type="curve" smooth="yes"/>
			<point x="65" y="35"/>
			<point x="120" y="-14"/>
		</contour>
		<contour>
			<point x="249" y="56" type="curve" smooth="yes"/>
			<point x="193" y="56"/>
			<point x="155" y="85"/>
			<point x="155" y="135" type="curve" smooth="yes"/>
			<point x="154" y="198"/>
			<point x="202" y="231"/>
			<point x="305" y="248" type="curve" smooth="yes"/>
			<point x="407" y="264" type="line"/>
			<point x="398" y="197" type="line" smooth="yes"/>
			<point x="386" y="116"/>
			<point x="329" y="56"/>
		</contour>
	</outline>
</glyph>
<glyph name="dcaron" format="2">
	<unicode hex="010F"/>
	<advance width="600"/>
	<outline>
		<contour>
			<point x="218" y="-14" type="curve" smooth="yes"/>
			<point x="285" y="-14"/>
			<point x="346" y="20"/>
			<point x="386" y="104" type="curve"/>
			<point x="371" y="0" type="line"/>
			<point x="458" y="0" type="line"/>
			<point x="564" y="750" type="line"/>
			<point x="474" y="750" type="line"/>
			<point x="443" y="523" type="line"/>
			<point x="367" y="523" type="line" smooth="yes"/>
			<point x="196" y="523"/>
			<point x="87" y="424"/>
			<point x="64" y="263" type="curve" smooth="yes"/>
			<point x="62" y="249" type="line" smooth="yes"/>
			<point x="38" y="83"/>
			<point x="103" y="-14"/>
		</contour>
		<contour>
			<point x="591" y="572" type="line"/>
			<point x="647" y="572" type="line"/>
			<point x="727" y="750" type="line"/>
			<point x="640" y="750" type="line"/>
		</contour>
		<contour>
			<point x="259" y="59" type="curve" smooth="yes"/>
			<point x="179" y="59"/>
			<point x="137" y="130"/>
			<point x="154" y="252" type="curve" smooth="yes"/>
			<point x="155" y="259" type="line" smooth="yes"/>
			<point x="174" y="389"/>
			<point x="243" y="451"/>
			<point x="358" y="451" type="curve" smooth="yes"/>
			<point x="433" y="451" type="line"/>
			<point x="400" y="217" type="line" smooth="yes"/>
			<point x="387" y="126"/>
			<point x="335" y="59"/>
		</contour>
	</outline>
</glyph>
<glyph name="Dcroat" format="2">
	<unicode hex="0110"/>
	<advance width="600"/>
	<outline>
		<contour>
			<point x="33" y="0" type="line"/>
			<point x="263" y="0" type="line" smooth="yes"/>
			<point x="423" y="0"/>
			<point x="529" y="94"/>
			<point x="558" y="299" type="curve" smooth="yes"/>
			<point x="561" y="319" type="line" smooth="yes"/>
			<point x="592" y="545"/>
			<point x="502" y="684"/>
			<point x="321" y="684" type="curve" smooth="yes"/>
			<point x="129" y="684" type="line"/>
			<point x="86" y="374" type="line"/>
			<point x="19" y="374" type="line"/>
			<point x="9" y="309" type="line"/>
			<point x="76" y="309" type="line"/>
		</contour>
		<contour>
			<point x="307" y="605" type="line" smooth="yes"/>
			<point x="426" y="605"/>
			<point x="490" y="518"/>
			<point x="464" y="327" type="curve" smooth="yes"/>
			<point x="462" y="315" type="line" smooth="yes"/>
			<point x="441" y="162"/>
			<point x="379" y="79"/>
			<point x="262" y="79" type="curve" smooth="yes"/>
			<point x="138" y="79" type="line"/>
			<point x="170" y="309" type="line"/>
			<point x="320" y="309" type="line"/>
			<point x="329" y="374" type="line"/>
			<point x="180" y="374" type="line"/>
			<point x="212" y="605" type="line"/>
		</contour>
	</outline>
</glyph>
<glyph name="dcroat" format="2">
	<unicode hex="0111"/>
	<advance width="600"/>
	<outline>
		<contour>
			<point x="226" y="-14" type="curve" smooth="yes"/>
			<point x="296" y="-14"/>
			<point x="358" y="21"/>
			<point x="399" y="107" type="curve"/>
			<point x="383" y="0" type="line"/>
			<point x="474" y="0" type="line"/>
			<point x="557" y="596" type="line"/>
			<point x="625" y="596" type="line"/>
			<point x="633" y="656" type="line"/>
			<point x="566" y="656" type="line"/>
			<point x="579" y="750" type="line"/>
			<point x="486" y="750" type="line"/>
			<point x="473" y="656" type="line"/>
			<point x="316" y="656" type="line"/>
			<point x="307" y="596" type="line"/>
			<point x="465" y="596" type="line"/>
			<point x="455" y="523" type="line"/>
			<point x="377" y="523" type="line" smooth="yes"/>
			<point x="203" y="523"/>
			<point x="90" y="424"/>
			<point x="67" y="263" type="curve" smooth="yes"/>
			<point x="65" y="249" type="line" smooth="yes"/>
			<point x="41" y="81"/>
			<point x="107" y="-14"/>
		</contour>
		<contour>
			<point x="160" y="252" type="curve" smooth="yes"/>
			<point x="161" y="259" type="line"/>
			<point x="180" y="387"/>
			<point x="251" y="448"/>
			<point x="368" y="448" type="curve" smooth="yes"/>
			<point x="444" y="448" type="line"/>
			<point x="412" y="219" type="line" smooth="yes"/>
			<point x="399" y="129"/>
			<point x="348" y="62"/>
			<point x="267" y="62" type="curve" smooth="yes"/>
			<point x="185" y="62"/>
			<point x="143" y="130"/>
		</contour>
	</outline>
</glyph>
<glyph name="eogonek" format="2">
	<unicode hex="0119"/>
	<advance width="600"/>
	<outline>
		<contour>
			<point x="313" y="-14" type="curve" smooth="yes"/>
			<point x="314" y="-14" type="line"/>
			<point x="263" y="-40"/>
			<point x="235" y="-78"/>
			<point x="235" y="-122" type="curve" smooth="yes"/>
			<point x="235" y="-179"/>
			<point x="277" y="-203"/>
			<point x="344" y="-203" type="curve" smooth="yes"/>
			<point x="367" y="-203"/>
			<point x="391" y="-198"/>
			<point x="404" y="-193" type="curve"/>
			<point x="412" y="-130" type="line"/>
			<point x="403" y="-133"/>
			<point x="387" y="-136"/>
			<point x="370" y="-136" type="curve" smooth="yes"/>
			<point x="339" y="-136"/>
			<point x="317" y="-125"/>
			<point x="317" y="-96" type="curve" smooth="yes"/>
			<point x="317" y="-60"/>
			<point x="344" y="-27"/>
			<point x="422" y="0" type="curve"/>
			<point x="421" y="0" type="line"/>
			<point x="444" y="7"/>
			<point x="463" y="15"/>
			<point x="479" y="24" type="curve"/>
			<point x="489" y="101" type="line"/>
			<point x="450" y="79"/>
			<point x="397" y="63"/>
			<point x="332" y="63" type="curve" smooth="yes"/>
			<point x="216" y="63"/>
			<point x="158" y="127"/>
			<point x="162" y="237" type="curve"/>
			<point x="526" y="237" type="line"/>
			<point x="531" y="273" type="line" smooth="yes"/>
			<point x="554" y="436"/>
			<point x="474" y="537"/>
			<point x="330" y="537" type="curve" smooth="yes"/>
			<point x="199" y="537"/>
			<point x="96" y="443"/>
			<point x="75" y="296" type="curve" smooth="yes"/>
			<point x="73" y="282" type="line" smooth="yes"/>
			<point x="50" y="120"/>
			<point x="119" y="-14"/>
		</contour>
		<contour>
			<point x="324" y="467" type="curve" smooth="yes"/>
			<point x="407" y="467"/>
			<point x="454" y="406"/>
			<point x="443" y="303" type="curve"/>
			<point x="167" y="303" type="line"/>
			<point x="184" y="407"/>
			<point x="245" y="467"/>
		</contour>
	</outline>
</glyph>
<glyph name="hbar" format="2">
	<unicode hex="0127"/>
	<advance width="600"/>
	<outline>
		<contour>
			<point x="69" y="596" type="line"/>
			<point x="137" y="596" type="line"/>
			<point x="54" y="0" type="line"/>
			<point x="147" y="0" type="line"/>
			<point x="193" y="322" type="line" smooth="yes"/>
			<point x="196" y="345"/>
			<point x="203" y="367"/>
			<point x="217" y="388" type="curve" smooth="yes"/>
			<point x="240" y="426"/>
			<point x="276" y="459"/>
			<point x="334" y="459" type="curve" smooth="yes"/>
			<point x="402" y="459"/>
			<point x="443" y="414"/>
			<point x="429" y="313" type="curve" smooth="yes"/>
			<point x="384" y="0" type="line"/>
			<point x="477" y="0" type="line"/>
			<point x="523" y="328" type="line" smooth="yes"/>
			<point x="543" y="465"/>
			<point x="480" y="537"/>
			<point x="379" y="537" type="curve" smooth="yes"/>
			<point x="304" y="537"/>
			<point x="247" y="496"/>
			<point x="207" y="425" type="curve"/>
			<point x="231" y="596" type="line"/>
			<point x="387" y="596" type="line"/>
			<point x="395" y="656" type="line"/>
			<point x="239" y="656" type="line"/>
			<point x="252" y="750" type="line"/>
			<point x="159" y="750" type="line"/>
			<point x="146" y="656" type="line"/>
			<point x="78" y="656" type="line"/>
		</contour>
	</outline>
</glyph>
<glyph name="ij" format="2">
	<unicode hex="0133"/>
	<advance width="600"/>
	<outline>
		<contour>
			<point x="213" y="632" type="curve" smooth="yes"/>
			<point x="260" y="632"/>
			<point x="278" y="650"/>
			<point x="282" y="687" type="curve" smooth="yes"/>
			<point x="286" y="725"/>
			<point x="268" y="744"/>
			<point x="221" y="744" type="curve" smooth="yes"/>
			<point x="173" y="744"/>
			<point x="155" y="725"/>
			<point x="151" y="689" type="curve" smooth="yes"/>
			<point x="147" y="651"/>
			<point x="165" y="632"/>
		</contour>
		<contour>
			<point x="500" y="632" type="curve" smooth="yes"/>
			<point x="547" y="632"/>
			<point x="565" y="650"/>
			<point x="569" y="687" type="curve" smooth="yes"/>
			<point x="573" y="725"/>
			<point x="555" y="744"/>
			<point x="508" y="744" type="curve" smooth="yes"/>
			<point x="460" y="744"/>
			<point x="442" y="725"/>
			<point x="437" y="689" type="curve" smooth="yes"/>
			<point x="434" y="651"/>
			<point x="452" y="632"/>
		</contour>
		<contour>
			<point x="238" y="-204" type="curve" smooth="yes"/>
			<point x="342" y="-204"/>
			<point x="431" y="-163"/>
			<point x="450" y="-24" type="curve" smooth="yes"/>
			<point x="527" y="523" type="line"/>
			<point x="434" y="523" type="line"/>
			<point x="360" y="-5" type="line" smooth="yes"/>
			<point x="349" y="-88"/>
			<point x="308" y="-126"/>
			<point x="226" y="-126" type="curve" smooth="yes"/>
			<point x="178" y="-126"/>
			<point x="135" y="-114"/>
			<point x="107" y="-101" type="curve"/>
			<point x="97" y="-176" type="line"/>
			<point x="124" y="-190"/>
			<point x="180" y="-204"/>
		</contour>
		<contour>
			<point x="73" y="0" type="line"/>
			<point x="166" y="0" type="line"/>
			<point x="240" y="523" type="line"/>
			<point x="147" y="523" type="line"/>
		</contour>
	</outline>
</glyph>
<glyph name="Lslash" format="2">
	<unicode hex="0141"/>
	<advance width="600"/>
	<outline>
		<contour>
			<point x="60" y="0" type="line"/>
			<point x="502" y="0" type="line"/>
			<point x="515" y="86" type="line"/>
			<point x="167" y="86" type="line"/>
			<point x="199" y="314" type="line"/>
			<point x="388" y="385" type="line"/>
			<point x="398" y="459" type="line"/>
			<point x="209" y="388" type="line"/>
			<point x="250" y="684" type="line"/>
			<point x="156" y="684" type="line"/>
			<point x="109" y="350" type="line"/>
			<point x="26" y="319" type="line"/>
			<point x="15" y="246" type="line"/>
			<point x="99" y="277" type="line"/>
		</contour>
	</outline>
</glyph>
<glyph name="lslash" format="2">
	<unicode hex="0142"/>
	<advance width="600"/>
	<outline>
		<contour>
			<point x="37" y="0" type="line"/>
			<point x="497" y="0" type="line"/>
			<point x="508" y="76" type="line"/>
			<point x="329" y="76" type="line"/>
			<point x="370" y="357" type="line"/>
			<point x="544" y="421" type="line"/>
			<point x="553" y="495" type="line"/>
			<point x="380" y="432" type="line"/>
			<point x="426" y="750" type="line"/>
			<point x="145" y="750" type="line"/>
			<point x="134" y="674" type="line"/>
			<point x="323" y="674" type="line"/>
			<point x="283" y="396" type="line"/>
			<point x="109" y="333" type="line"/>
			<point x="99" y="259" type="line"/>
			<point x="272" y="322" type="line"/>
			<point x="236" y="76" type="line"/>
			<point x="49" y="76" type="line"/>
		</contour>
	</outline>
</glyph>
<glyph name="eng" format="2">
	<unicode hex="014B"/>
	<advance width="600"/>
	<outline>
		<contour>
			<point x="307" y="-214" type="curve" smooth="yes"/>
			<point x="380" y="-214"/>
			<point x="451" y="-184"/>
			<point x="466" y="-74" type="curve" smooth="yes"/>
			<point x="523" y="328" type="line" smooth="yes"/>
			<point x="543" y="465"/>
			<point x="482" y="537"/>
			<point x="379" y="537" type="curve" smooth="yes"/>
			<point x="302" y="537"/>
			<point x="243" y="494"/>
			<point x="203" y="420" type="curve"/>
			<point x="218" y="523" type="line"/>
			<point x="127" y="523" type="line"/>
			<point x="54" y="0" type="line"/>
			<point x="147" y="0" type="line"/>
			<point x="190" y="302" type="line" smooth="yes"/>
			<point x="194" y="331"/>
			<point x="200" y="361"/>
			<point x="218" y="389" type="curve" smooth="yes"/>
			<point x="240" y="427"/>
			<point x="275" y="459"/>
			<point x="334" y="459" type="curve" smooth="yes"/>
			<point x="402" y="459"/>
			<point x="443" y="414"/>
			<point x="429" y="313" type="curve" smooth="yes"/>
			<point x="376" y="-58" type="line" smooth="yes"/>
			<point x="367" y="-125"/>
			<point x="328" y="-139"/>
			<point x="292" y="-139" type="curve" smooth="yes"/>
			<point x="277" y="-139"/>
			<point x="254" y="-134"/>
			<point x="239" y="-129" type="curve"/>
			<point x="229" y="-200" type="line"/>
			<point x="246" y="-207"/>
			<point x="275" y="-214"/>
		</contour>
	</outline>
</glyph>
<glyph name="scedilla" format="2">
	<unicode hex="015F"/>
	<advance width="600"/>
	<outline>
		<contour>
			<point x="234" y="-221" type="curve" smooth="yes"/>
			<point x="306" y="-221"/>
			<point x="351" y="-186"/>
			<point x="352" y="-124" type="curve" smooth="yes"/>
			<point x="353" y="-77"/>
			<point x="327" y="-51"/>
			<point x="275" y="-47" type="curve"/>
			<point x="295" y="-13" type="line"/>
			<point x="422" y="-7"/>
			<point x="495" y="58"/>
			<point x="495" y="162" type="curve" smooth="yes"/>
			<point x="495" y="263"/>
			<point x="417" y="283"/>
			<point x="314" y="304" type="curve" smooth="yes"/>
			<point x="234" y="321"/>
			<point x="197" y="330"/>
			<point x="197" y="380" type="curve" smooth="yes"/>
			<point x="197" y="434"/>
			<point x="241" y="465"/>
			<point x="317" y="465" type="curve" smooth="yes"/>
			<point x="387" y="465"/>
			<point x="475" y="441"/>
			<point x="525" y="399" type="curve"/>
			<point x="536" y="483" type="line"/>
			<point x="483" y="518"/>
			<point x="402" y="538"/>
			<point x="325" y="538" type="curve" smooth="yes"/>
			<point x="182" y="538"/>
			<point x="105" y="465"/>
			<point x="105" y="361" type="curve" smooth="yes"/>
			<point x="105" y="263"/>
			<point x="181" y="240"/>
			<point x="286" y="220" type="curve" smooth="yes"/>
			<point x="370" y="206"/>
			<point x="405" y="195"/>
			<point x="405" y="145" type="curve" smooth="yes"/>
			<point x="405" y="88"/>
			<point x="358" y="60"/>
			<point x="280" y="60" type="curve" smooth="yes"/>
			<point x="217" y="60"/>
			<point x="135" y="78"/>
			<point x="75" y="131" type="curve"/>
			<point x="63" y="49" type="line"/>
			<point x="103" y="17"/>
			<point x="165" y="-7"/>
			<point x="238" y="-13" type="curve"/>
			<point x="191" y="-91" type="line"/>
			<point x="204" y="-89"/>
			<point x="215" y="-88"/>
			<point x="228" y="-88" type="curve" smooth="yes"/>
			<point x="265" y="-88"/>
			<point x="286" y="-98"/>
			<point x="286" y="-124" type="curve" smooth="yes"/>
			<point x="286" y="-155"/>
			<point x="264" y="-167"/>
			<point x="227" y="-167" type="curve" smooth="yes"/>
			<point x="200" y="-167"/>
			<point x="174" y="-159"/>
			<point x="154" y="-148" type="curve"/>
			<point x="146" y="-200" type="line"/>
			<point x="166" y="-212"/>
			<point x="200" y="-221"/>
		</contour>
	</outline>
</glyph>
<glyph name="Tbar" format="2">
	<unicode hex="0166"/>
	<advance width="600"/>
	<outline>
		<contour>
			<point x="215" y="0" type="line"/>
			<point x="310" y="0" type="line"/>
			<point x="355" y="324" type="line"/>
			<point x="482" y="324" type="line"/>
			<point x="491" y="389" type="line"/>
			<point x="364" y="389" type="line"/>
			<point x="394" y="601" type="line"/>
			<point x="602" y="601" type="line"/>
			<point x="614" y="684" type="line"/>
			<point x="104" y="684" type="line"/>
			<point x="93" y="601" type="line"/>
			<point x="300" y="601" type="line"/>
			<point x="270" y="389" type="line"/>
			<point x="142" y="389" type="line"/>
			<point x="132" y="324" type="line"/>
			<point x="261" y="324" type="line"/>
		</contour>
	</outline>
</glyph>
<glyph name="tbar" format="2">
	<unicode hex="0167"/>
	<advance width="600"/>
	<outline>
		<contour>
			<point x="70" y="259" type="line"/>
			<point x="202" y="259" type="line"/>
			<point x="190" y="178" type="line" smooth="yes"/>
			<point x="171" y="37"/>
			<point x="241" y="-12"/>
			<point x="355" y="-12" type="curve"/>
			<point x="404" y="-12"/>
			<point x="449" y="-1"/>
			<point x="472" y="11" type="curve"/>
			<point x="481" y="84" type="line"/>
			<point x="458" y="74"/>
			<point x="419" y="65"/>
			<point x="383" y="65" type="curve" smooth="yes"/>
			<point x="303" y="65"/>
			<point x="272" y="97"/>
			<point x="284" y="188" type="curve" smooth="yes"/>
			<point x="294" y="259" type="line"/>
			<point x="504" y="259" type="line"/>
			<point x="513" y="322" type="line"/>
			<point x="303" y="322" type="line"/>
			<point x="320" y="447" type="line"/>
			<point x="533" y="447" type="line"/>
			<point x="545" y="523" type="line"/>
			<point x="331" y="523" type="line"/>
			<point x="355" y="692" type="line"/>
			<point x="277" y="692" type="line"/>
			<point x="254" y="582" type="line" smooth="yes"/>
			<point x="242" y="528"/>
			<point x="219" y="519"/>
			<point x="181" y="519" type="curve" smooth="yes"/>
			<point x="96" y="519" type="line"/>
			<point x="86" y="447" type="line"/>
			<point x="228" y="447" type="line"/>
			<point x="211" y="322" type="line"/>
			<point x="78" y="322" type="line"/>
		</contour>
	</outline>
</glyph>
<glyph name="caron" format="2">
	<unicode hex="02C7"/>
	<advance width="600"/>
	<outline>
		<contour>
			<point x="535" y="750" type="line"/>
			<point x="445" y="750" type="line"/>
			<point x="352" y="649" type="line"/>
			<point x="288" y="750" type="line"/>
			<point x="203" y="750" type="line"/>
			<point x="300" y="604" type="line"/>
			<point x="398" y="604" type="line"/>
		</contour>
	</outline>
	<anchor name="_top" x="337" y="523"/>
</glyph>
<glyph name="breve" format="2">
	<unicode hex="02D8"/>
	<advance width="600"/>
	<outline>
		<contour>
			<point x="350" y="594" type="curve" smooth="yes"/>
			<point x="454" y="594"/>
			<point x="504" y="636"/>
			<point x="519" y="750" type="curve"/>
			<point x="447" y="750" type="line"/>
			<point x="438" y="685"/>
			<point x="423" y="651"/>
			<point x="359" y="651" type="curve" smooth="yes"/>
			<point x="292" y="651"/>
			<point x="282" y="685"/>
			<point x="290" y="750" type="curve"/>
			<point x="219" y="750" type="line"/>
			<point x="204" y="641"/>
			<point x="247" y="594"/>
		</contour>
	</outline>
	<anchor name="_top" x="338" y="523"/>
</glyph>
<glyph name="dotaccent" format="2">
	<unicode hex="02D9"/>
	<advance width="600"/>
	<outline>
		<contour>
			<point x="354" y="622" type="curve" smooth="yes"/>
			<point x="402" y="622"/>
			<point x="420" y="641"/>
			<point x="424" y="679" type="curve" smooth="yes"/>
			<point x="428" y="716"/>
			<point x="410" y="736"/>
			<point x="364" y="736" type="curve" smooth="yes"/>
			<point x="316" y="736"/>
			<point x="297" y="717"/>
			<point x="293" y="680" type="curve" smooth="yes"/>
			<point x="289" y="642"/>
			<point x="308" y="622"/>
		</contour>
	</outline>
	<anchor name="_top" x="337" y="523"/>
</glyph>
<glyph name="tilde" format="2">
	<unicode hex="02DC"/>
	<advance width="600"/>
	<outline>
		<contour>
			<point x="186" y="614" type="curve"/>
			<point x="253" y="614" type="line"/>
			<point x="259" y="655"/>
			<point x="272" y="677"/>
			<point x="294" y="677" type="curve" smooth="yes"/>
			<point x="336" y="677"/>
			<point x="361" y="610"/>
			<point x="428" y="610" type="curve" smooth="yes"/>
			<point x="480" y="610"/>
			<point x="516" y="645"/>
			<point x="530" y="736" type="curve"/>
			<point x="463" y="736" type="line"/>
			<point x="456" y="695"/>
			<point x="445" y="672"/>
			<point x="423" y="672" type="curve" smooth="yes"/>
			<point x="381" y="672"/>
			<point x="352" y="740"/>
			<point x="287" y="740" type="curve" smooth="yes"/>
			<point x="231" y="740"/>
			<point x="198" y="696"/>
		</contour>
	</outline>
	<anchor name="_top" x="338" y="523"/>
</glyph>
<glyph name="pi" format="2">
	<unicode hex="03C0"/>
	<advance width="600"/>
	<outline>
		<contour>
			<point x="69" y="-1" type="line"/>
			<point x="158" y="-1" type="line"/>
			<point x="221" y="448" type="line"/>
			<point x="415" y="448" type="line"/>
			<point x="369" y="117" type="line" smooth="yes"/>
			<point x="355" y="24"/>
			<point x="396" y="-12"/>
			<point x="471" y="-12" type="curve" smooth="yes"/>
			<point x="500" y="-12"/>
			<point x="522" y="-7"/>
			<point x="531" y="-3" type="curve"/>
			<point x="542" y="65" type="line"/>
			<point x="533" y="62"/>
			<point x="518" y="60"/>
			<point x="506" y="60" type="curve" smooth="yes"/>
			<point x="471" y="60"/>
			<point x="451" y="75"/>
			<point x="457" y="117" type="curve" smooth="yes"/>
			<point x="504" y="448" type="line"/>
			<point x="595" y="448" type="line"/>
			<point x="606" y="523" type="line"/>
			<point x="55" y="523" type="line"/>
			<point x="44" y="448" type="line"/>
			<point x="132" y="448" type="line"/>
		</contour>
	</outline>
</glyph>
<glyph name="quoteleft" format="2">
	<unicode hex="2018"/>
	<advance width="600"/>
	<outline>
		<contour>
			<point x="364" y="466" type="line"/>
			<point x="457" y="750" type="line"/>
			<point x="391" y="750" type="line"/>
			<point x="242" y="466" type="line"/>
		</contour>
	</outline>
</glyph>
<glyph name="quotedblleft" format="2">
	<unicode hex="201C"/>
	<advance width="600"/>
	<outline>
		<contour>
			<point x="445" y="466" type="line"/>
			<point x="537" y="750" type="line"/>
			<point x="472" y="750" type="line"/>
			<point x="325" y="466" type="line"/>
		</contour>
		<contour>
			<point x="259" y="466" type="line"/>
			<point x="350" y="750" type="line"/>
			<point x="286" y="750" type="line"/>
			<point x="139" y="466" type="line"/>
		</contour>
	</outline>
</glyph>
<glyph name="quotedblright" format="2">
	<unicode hex="201D"/>
	<advance width="600"/>
	<outline>
		<contour>
			<point x="252" y="750" type="line"/>
			<point x="161" y="466" type="line"/>
			<point x="225" y="466" type="line"/>
			<point x="373" y="750" type="line"/>
		</contour>
		<contour>
			<point x="438" y="750" type="line"/>
			<point x="347" y="466" type="line"/>
			<point x="412" y="466" type="line"/>
			<point x="559" y="750" type="line"/>
		</contour>
	</outline>
</glyph>
<glyph name="perthousand" format="2">
	<unicode hex="2030"/>
	<advance width="600"/>
	<outline>
		<contour>
			<point x="176" y="393" type="curve" smooth="yes"/>
			<point x="251" y="393"/>
			<point x="304" y="444"/>
			<point x="317" y="534" type="curve" smooth="yes"/>
			<point x="333" y="644"/>
			<point x="276" y="691"/>
			<point x="198" y="691" type="curve" smooth="yes"/>
			<point x="124" y="691"/>
			<point x="72" y="641"/>
			<point x="59" y="551" type="curve" smooth="yes"/>
			<point x="43" y="441"/>
			<point x="98" y="393"/>
		</contour>
		<contour>
			<point x="178" y="444" type="curve" smooth="yes"/>
			<point x="128" y="444"/>
			<point x="111" y="480"/>
			<point x="120" y="546" type="curve" smooth="yes"/>
			<point x="128" y="604"/>
			<point x="152" y="641"/>
			<point x="197" y="641" type="curve" smooth="yes"/>
			<point x="246" y="641"/>
			<point x="263" y="604"/>
			<point x="254" y="538" type="curve" smooth="yes"/>
			<point x="246" y="481"/>
			<point x="223" y="444"/>
		</contour>
		<contour>
			<point x="21" y="267" type="line"/>
			<point x="588" y="408" type="line"/>
			<point x="596" y="465" type="line"/>
			<point x="29" y="322" type="line"/>
		</contour>
		<contour>
			<point x="223" y="-7" type="curve" smooth="yes"/>
			<point x="265" y="-7"/>
			<point x="300" y="9"/>
			<point x="324" y="40" type="curve"/>
			<point x="345" y="8"/>
			<point x="380" y="-7"/>
			<point x="423" y="-7" type="curve" smooth="yes"/>
			<point x="497" y="-7"/>
			<point x="550" y="44"/>
			<point x="563" y="134" type="curve" smooth="yes"/>
			<point x="579" y="244"/>
			<point x="525" y="291"/>
			<point x="449" y="291" type="curve" smooth="yes"/>
			<point x="407" y="291"/>
			<point x="371" y="275"/>
			<point x="347" y="244" type="curve"/>
			<point x="326" y="276"/>
			<point x="291" y="291"/>
			<point x="248" y="291" type="curve" smooth="yes"/>
			<point x="173" y="291"/>
			<point x="121" y="241"/>
			<point x="108" y="151" type="curve" smooth="yes"/>
			<point x="92" y="41"/>
			<point x="147" y="-7"/>
		</contour>
		<contour>
			<point x="227" y="44" type="curve" smooth="yes"/>
			<point x="176" y="44"/>
			<point x="160" y="80"/>
			<point x="169" y="146" type="curve" smooth="yes"/>
			<point x="177" y="204"/>
			<point x="201" y="241"/>
			<point x="245" y="241" type="curve" smooth="yes"/>
			<point x="295" y="241"/>
			<point x="312" y="204"/>
			<point x="302" y="138" type="curve" smooth="yes"/>
			<point x="295" y="81"/>
			<point x="272" y="44"/>
		</contour>
		<contour>
			<point x="425" y="44" type="curve" smooth="yes"/>
			<point x="375" y="44"/>
			<point x="358" y="80"/>
			<point x="367" y="146" type="curve" smooth="yes"/>
			<point x="376" y="204"/>
			<point x="398" y="241"/>
			<point x="443" y="241" type="curve" smooth="yes"/>
			<point x="493" y="241"/>
			<point x="510" y="204"/>
			<point x="501" y="138" type="curve" smooth="yes"/>
			<point x="493" y="81"/>
			<point x="470" y="44"/>
		</contour>
	</outline>
</glyph>
<glyph name="guilsinglleft" format="2">
	<unicode hex="2039"/>
	<advance width="600"/>
	<outline>
		<contour>
			<point x="320" y="77" type="line"/>
			<point x="436" y="77" type="line"/>
			<point x="248" y="285" type="line"/>
			<point x="496" y="497" type="line"/>
			<point x="373" y="497" type="line"/>
			<point x="130" y="287" type="line"/>
		</contour>
	</outline>
</glyph>
<glyph name="guilsinglright" format="2">
	<unicode hex="203A"/>
	<advance width="600"/>
	<outline>
		<contour>
			<point x="111" y="78" type="line"/>
			<point x="236" y="78" type="line"/>
			<point x="478" y="287" type="line"/>
			<point x="285" y="498" type="line"/>
			<point x="171" y="498" type="line"/>
			<point x="360" y="291" type="line"/>
		</contour>
	</outline>
</glyph>
<glyph name="fraction" format="2">
	<unicode hex="2044"/>
	<advance width="600"/>
	<outline>
		<contour>
			<point x="409" y="417" type="line"/>
			<point x="484" y="417" type="line"/>
			<point x="634" y="684" type="line"/>
			<point x="542" y="684" type="line"/>
		</contour>
		<contour>
			<point x="-12" y="0" type="line"/>
			<point x="81" y="0" type="line"/>
			<point x="215" y="267" type="line"/>
			<point x="139" y="267" type="line"/>
		</contour>
	</outline>
</glyph>
<glyph name="published" format="2">
	<unicode hex="2117"/>
	<advance width="600"/>
	<outline>
		<contour>
			<point x="302" y="105" type="curve" smooth="yes"/>
			<point x="441" y="105"/>
			<point x="547" y="193"/>
			<point x="569" y="345" type="curve" smooth="yes"/>
			<point x="571" y="359" type="line" smooth="yes"/>
			<point x="595" y="532"/>
			<point x="497" y="657"/>
			<point x="331" y="657" type="curve" smooth="yes"/>
			<point x="189" y="657"/>
			<point x="86" y="569"/>
			<point x="65" y="419" type="curve" smooth="yes"/>
			<point x="63" y="405" type="line" smooth="yes"/>
			<point x="38" y="231"/>
			<point x="136" y="105"/>
		</contour>
		<contour>
			<point x="306" y="153" type="curve" smooth="yes"/>
			<point x="167" y="153"/>
			<point x="93" y="255"/>
			<point x="114" y="404" type="curve" smooth="yes"/>
			<point x="115" y="411" type="line" smooth="yes"/>
			<point x="133" y="540"/>
			<point x="211" y="609"/>
			<point x="328" y="609" type="curve" smooth="yes"/>
			<point x="467" y="609"/>
			<point x="540" y="507"/>
			<point x="519" y="360" type="curve" smooth="yes"/>
			<point x="518" y="353" type="line" smooth="yes"/>
			<point x="500" y="222"/>
			<point x="420" y="153"/>
		</contour>
		<contour>
			<point x="207" y="249" type="line"/>
			<point x="256" y="249" type="line"/>
			<point x="268" y="333" type="line"/>
			<point x="325" y="333" type="line" smooth="yes"/>
			<point x="394" y="333"/>
			<point x="436" y="371"/>
			<point x="436" y="429" type="curve" smooth="yes"/>
			<point x="436" y="479"/>
			<point x="401" y="510"/>
			<point x="339" y="510" type="curve" smooth="yes"/>
			<point x="244" y="510" type="line"/>
		</contour>
		<contour>
			<point x="335" y="471" type="line" smooth="yes"/>
			<point x="368" y="471"/>
			<point x="385" y="454"/>
			<point x="385" y="425" type="curve" smooth="yes"/>
			<point x="385" y="394"/>
			<point x="366" y="372"/>
			<point x="325" y="372" type="curve" smooth="yes"/>
			<point x="273" y="372" type="line"/>
			<point x="288" y="471" type="line"/>
		</contour>
	</outline>
</glyph>
<glyph name="servicemark" format="2">
	<unicode hex="2120"/>
	<advance width="600"/>
	<outline>
		<contour>
			<point x="155" y="337" type="curve" smooth="yes"/>
			<point x="228" y="337"/>
			<point x="282" y="381"/>
			<point x="282" y="451" type="curve" smooth="yes"/>
			<point x="282" y="509"/>
			<point x="245" y="522"/>
			<point x="190" y="538" type="curve" smooth="yes"/>
			<point x="143" y="551"/>
			<point x="125" y="558"/>
			<point x="125" y="589" type="curve" smooth="yes"/>
			<point x="125" y="624"/>
			<point x="148" y="645"/>
			<point x="194" y="645" type="curve" smooth="yes"/>
			<point x="240" y="645"/>
			<point x="276" y="628"/>
			<point x="299" y="607" type="curve"/>
			<point x="306" y="658" type="line"/>
			<point x="292" y="670"/>
			<point x="253" y="689"/>
			<point x="200" y="689" type="curve" smooth="yes"/>
			<point x="116" y="689"/>
			<point x="72" y="641"/>
			<point x="72" y="577" type="curve" smooth="yes"/>
			<point x="72" y="514"/>
			<point x="117" y="501"/>
			<point x="168" y="488" type="curve" smooth="yes"/>
			<point x="205" y="479"/>
			<point x="229" y="471"/>
			<point x="229" y="439" type="curve" smooth="yes"/>
			<point x="229" y="405"/>
			<point x="202" y="382"/>
			<point x="158" y="382" type="curve" smooth="yes"/>
			<point x="118" y="382"/>
			<point x="81" y="399"/>
			<point x="55" y="424" type="curve"/>
			<point x="47" y="372" type="line"/>
			<point x="63" y="359"/>
			<point x="101" y="337"/>
		</contour>
		<contour>
			<point x="305" y="342" type="line"/>
			<point x="353" y="342" type="line"/>
			<point x="376" y="509" type="line" smooth="yes"/>
			<point x="382" y="553"/>
			<point x="386" y="590"/>
			<point x="387" y="629" type="curve"/>
			<point x="392" y="629" type="line"/>
			<point x="421" y="433" type="line"/>
			<point x="472" y="433" type="line"/>
			<point x="558" y="629" type="line"/>
			<point x="562" y="629" type="line"/>
			<point x="552" y="586"/>
			<point x="545" y="548"/>
			<point x="539" y="509" type="curve" smooth="yes"/>
			<point x="517" y="342" type="line"/>
			<point x="565" y="342" type="line"/>
			<point x="613" y="684" type="line"/>
			<point x="536" y="684" type="line"/>
			<point x="454" y="490" type="line"/>
			<point x="452" y="490" type="line"/>
			<point x="427" y="684" type="line"/>
			<point x="353" y="684" type="line"/>
		</contour>
	</outline>
</glyph>
<glyph name="arrowleft" format="2">
	<unicode hex="2190"/>
	<advance width="600"/>
	<outline>
		<contour>
			<point x="329" y="132" type="line"/>
			<point x="167" y="319" type="line"/>
			<point x="568" y="319" type="line"/>
			<point x="579" y="398" type="line"/>
			<point x="178" y="398" type="line"/>
			<point x="391" y="583" type="line"/>
			<point x="289" y="583" type="line"/>
			<point x="33" y="358" type="line"/>
			<point x="227" y="132" type="line"/>
		</contour>
	</outline>
</glyph>
<glyph name="arrowup" format="2">
	<unicode hex="2191"/>
	<advance width="600"/>
	<outline>
		<contour>
			<point x="225" y="0" type="line"/>
			<point x="303" y="0" type="line"/>
			<point x="382" y="563" type="line"/>
			<point x="541" y="377" type="line"/>
			<point x="556" y="478" type="line"/>
			<point x="362" y="703" type="line"/>
			<point x="106" y="478" type="line"/>
			<point x="91" y="377" type="line"/>
			<point x="303" y="564" type="line"/>
		</contour>
	</outline>
</glyph>
<glyph name="arrowdown" format="2">
	<unicode hex="2193"/>
	<advance width="600"/>
	<outline>
		<contour>
			<point x="531" y="307" type="line"/>
			<point x="319" y="120" type="line"/>
			<point x="398" y="684" type="line"/>
			<point x="320" y="684" type="line"/>
			<point x="241" y="120" type="line"/>
			<point x="81" y="307" type="line"/>
			<point x="66" y="206" type="line"/>
			<point x="261" y="-19" type="line"/>
			<point x="517" y="206" type="line"/>
		</contour>
	</outline>
</glyph>
<glyph name="uni2197" format="2">
	<unicode hex="2197"/>
	<advance width="600"/>
	<outline>
		<contour>
			<point x="50" y="70" type="line"/>
			<point x="516" y="481" type="line"/>
			<point x="475" y="200" type="line"/>
			<point x="558" y="272" type="line"/>
			<point x="606" y="610" type="line"/>
			<point x="267" y="610" type="line"/>
			<point x="186" y="539" type="line"/>
			<point x="467" y="540" type="line"/>
			<point x="0" y="129" type="line"/>
		</contour>
	</outline>
</glyph>
<glyph name="uni2198" format="2">
	<unicode hex="2198"/>
	<advance width="600"/>
	<outline>
		<contour>
			<point x="192" y="72" type="line"/>
			<point x="530" y="72" type="line"/>
			<point x="578" y="410" type="line"/>
			<point x="518" y="482" type="line"/>
			<point x="478" y="194" type="line"/>
			<point x="118" y="611" type="line"/>
			<point x="60" y="559" type="line"/>
			<point x="419" y="143" type="line"/>
			<point x="130" y="143" type="line"/>
		</contour>
	</outline>
</glyph>
<glyph name="product" format="2">
	<unicode hex="220F"/>
	<advance width="600"/>
	<outline>
		<contour>
			<point x="38" y="0" type="line"/>
			<point x="130" y="0" type="line"/>
			<point x="215" y="604" type="line"/>
			<point x="480" y="604" type="line"/>
			<point x="396" y="0" type="line"/>
			<point x="487" y="0" type="line"/>
			<point x="584" y="684" type="line"/>
			<point x="134" y="684" type="line"/>
		</contour>
	</outline>
</glyph>
<glyph name="infinity" format="2">
	<unicode hex="221E"/>
	<advance width="600"/>
	<outline>
		<contour>
			<point x="208" y="592" type="curve" smooth="yes"/>
			<point x="118" y="592"/>
			<point x="64" y="512"/>
			<point x="41" y="355" type="curve" smooth="yes"/>
			<point x="15" y="178"/>
			<point x="49" y="75"/>
			<point x="158" y="75" type="curve" smooth="yes"/>
			<point x="222" y="75"/>
			<point x="272" y="123"/>
			<point x="294" y="205" type="curve"/>
			<point x="301" y="121"/>
			<point x="341" y="74"/>
			<point x="411" y="74" type="curve" smooth="yes"/>
			<point x="504" y="74"/>
			<point x="558" y="161"/>
			<point x="580" y="317" type="curve" smooth="yes"/>
			<point x="605" y="493"/>
			<point x="569" y="591"/>
			<point x="465" y="591" type="curve" smooth="yes"/>
			<point x="393" y="591"/>
			<point x="348" y="538"/>
			<point x="326" y="463" type="curve"/>
			<point x="318" y="544"/>
			<point x="278" y="592"/>
		</contour>
		<contour>
			<point x="171" y="148" type="curve" smooth="yes"/>
			<point x="114" y="148"/>
			<point x="97" y="218"/>
			<point x="116" y="346" type="curve" smooth="yes"/>
			<point x="131" y="462"/>
			<point x="160" y="519"/>
			<point x="211" y="519" type="curve" smooth="yes"/>
			<point x="268" y="519"/>
			<point x="286" y="454"/>
			<point x="267" y="318" type="curve" smooth="yes"/>
			<point x="251" y="207"/>
			<point x="224" y="148"/>
		</contour>
		<contour>
			<point x="409" y="148" type="curve" smooth="yes"/>
			<point x="354" y="148"/>
			<point x="333" y="210"/>
			<point x="351" y="347" type="curve" smooth="yes"/>
			<point x="366" y="456"/>
			<point x="395" y="519"/>
			<point x="448" y="519" type="curve" smooth="yes"/>
			<point x="512" y="519"/>
			<point x="520" y="434"/>
			<point x="506" y="323" type="curve" smooth="yes"/>
			<point x="490" y="206"/>
			<point x="461" y="148"/>
		</contour>
	</outline>
</glyph>
<glyph name="integral" format="2">
	<unicode hex="222B"/>
	<advance width="600"/>
	<outline>
		<contour>
			<point x="103" y="-204" type="curve" smooth="yes"/>
			<point x="197" y="-204"/>
			<point x="275" y="-161"/>
			<point x="293" y="-36" type="curve" smooth="yes"/>
			<point x="368" y="504" type="line" smooth="yes"/>
			<point x="381" y="593"/>
			<point x="423" y="622"/>
			<point x="486" y="622" type="curve" smooth="yes"/>
			<point x="519" y="622"/>
			<point x="544" y="614"/>
			<point x="558" y="609" type="curve"/>
			<point x="568" y="679" type="line"/>
			<point x="550" y="689"/>
			<point x="514" y="696"/>
			<point x="473" y="696" type="curve" smooth="yes"/>
			<point x="372" y="696"/>
			<point x="297" y="648"/>
			<point x="278" y="517" type="curve" smooth="yes"/>
			<point x="202" y="-27" type="line" smooth="yes"/>
			<point x="192" y="-99"/>
			<point x="162" y="-132"/>
			<point x="92" y="-132" type="curve" smooth="yes"/>
			<point x="64" y="-132"/>
			<point x="35" y="-127"/>
			<point x="12" y="-118" type="curve"/>
			<point x="2" y="-185" type="line"/>
			<point x="22" y="-195"/>
			<point x="63" y="-204"/>
		</contour>
	</outline>
</glyph>
<glyph name="approxequal" format="2">
	<unicode hex="2248"/>
	<advance width="600"/>
	<outline>
		<contour>
			<point x="194" y="394" type="curve" smooth="yes"/>
			<point x="261" y="394"/>
			<point x="341" y="338"/>
			<point x="435" y="338" type="curve" smooth="yes"/>
			<point x="477" y="338"/>
			<point x="522" y="354"/>
			<point x="542" y="379" type="curve"/>
			<point x="555" y="466" type="line"/>
			<point x="520" y="429"/>
			<point x="479" y="418"/>
			<point x="439" y="418" type="curve" smooth="yes"/>
			<point x="368" y="419"/>
			<point x="283" y="474"/>
			<point x="205" y="474" type="curve" smooth="yes"/>
			<point x="163" y="474"/>
			<point x="119" y="459"/>
			<point x="98" y="434" type="curve"/>
			<point x="86" y="346" type="line"/>
			<point x="115" y="379"/>
			<point x="157" y="394"/>
		</contour>
		<contour>
			<point x="164" y="180" type="curve" smooth="yes"/>
			<point x="232" y="180"/>
			<point x="312" y="124"/>
			<point x="405" y="124" type="curve" smooth="yes"/>
			<point x="448" y="124"/>
			<point x="492" y="140"/>
			<point x="512" y="165" type="curve"/>
			<point x="524" y="252" type="line"/>
			<point x="491" y="216"/>
			<point x="450" y="203"/>
			<point x="409" y="204" type="curve" smooth="yes"/>
			<point x="341" y="204"/>
			<point x="252" y="260"/>
			<point x="172" y="260" type="curve" smooth="yes"/>
			<point x="131" y="260"/>
			<point x="89" y="244"/>
			<point x="69" y="220" type="curve"/>
			<point x="56" y="132" type="line"/>
			<point x="85" y="165"/>
			<point x="127" y="180"/>
		</contour>
	</outline>
</glyph>
<glyph name="notequal" format="2">
	<unicode hex="2260"/>
	<advance width="600"/>
	<outline>
		<contour>
			<point x="95" y="76" type="line"/>
			<point x="173" y="76" type="line"/>
			<point x="231" y="153" type="line"/>
			<point x="511" y="153" type="line"/>
			<point x="522" y="234" type="line"/>
			<point x="291" y="234" type="line"/>
			<point x="391" y="367" type="line"/>
			<point x="541" y="367" type="line"/>
			<point x="552" y="448" type="line"/>
			<point x="452" y="448" type="line"/>
			<point x="509" y="524" type="line"/>
			<point x="431" y="524" type="line"/>
			<point x="374" y="448" type="line"/>
			<point x="100" y="448" type="line"/>
			<point x="88" y="367" type="line"/>
			<point x="313" y="367" type="line"/>
			<point x="214" y="234" type="line"/>
			<point x="71" y="234" type="line"/>
			<point x="59" y="153" type="line"/>
			<point x="153" y="153" type="line"/>
		</contour>
	</outline>
</glyph>
<glyph name="anglebracketleft" format="2">
	<unicode hex="3008"/>
	<advance width="600"/>
	<outline>
		<contour>
			<point x="372" y="-163" type="line"/>
			<point x="469" y="-163" type="line"/>
			<point x="237" y="311" type="line"/>
			<point x="606" y="792" type="line"/>
			<point x="503" y="792" type="line"/>
			<point x="139" y="316" type="line"/>
		</contour>
	</outline>
</glyph>
<glyph name="anglebracketright" format="2">
	<unicode hex="3009"/>
	<advance width="600"/>
	<outline>
		<contour>
			<point x="9" y="-163" type="line"/>
			<point x="114" y="-163" type="line"/>
			<point x="477" y="315" type="line"/>
			<point x="241" y="792" type="line"/>
			<point x="146" y="792" type="line"/>
			<point x="379" y="323" type="line"/>
		</contour>
	</outline>
</glyph>
<glyph name="Anocross" format="2">
	<advance width="600"/>
	<outline>
		<contour>
			<point x="-15" y="0" type="line"/>
			<point x="85" y="0" type="line"/>
			<point x="349" y="609" type="line"/>
			<point x="444" y="0" type="line"/>
			<point x="541" y="0" type="line"/>
			<point x="422" y="687" type="line"/>
			<point x="295" y="687" type="line"/>
		</contour>
	</outline>
	<anchor name="bottom" x="281" y="0"/>
	<anchor name="ogonek" x="541" y="0"/>
	<anchor name="top" x="358" y="684"/>
</glyph>
<glyph name="ampersand_ampersand.cLig" format="2">
	<advance width="600"/>
	<outline>
		<contour>
			<point x="-312" y="-14" type="curve" smooth="yes"/>
			<point x="-227" y="-14"/>
			<point x="-152" y="23"/>
			<point x="-93" y="85" type="curve"/>
			<point x="-62" y="24"/>
			<point x="3" y="-14"/>
			<point x="94" y="-14" type="curve" smooth="yes"/>
			<point x="181" y="-14"/>
			<point x="253" y="18"/>
			<point x="312" y="73" type="curve"/>
			<point x="373" y="0" type="line"/>
			<point x="481" y="0" type="line"/>
			<point x="368" y="137" type="line"/>
			<point x="416" y="205"/>
			<point x="452" y="292"/>
			<point x="475" y="389" type="curve"/>
			<point x="395" y="389" type="line"/>
			<point x="376" y="311"/>
			<point x="351" y="246"/>
			<point x="320" y="194" type="curve"/>
			<point x="168" y="378" type="line" smooth="yes"/>
			<point x="130" y="422"/>
			<point x="110" y="458"/>
			<point x="111" y="507" type="curve" smooth="yes"/>
			<point x="113" y="575"/>
			<point x="156" y="621"/>
			<point x="232" y="621" type="curve" smooth="yes"/>
			<point x="292" y="621"/>
			<point x="354" y="593"/>
			<point x="393" y="560" type="curve"/>
			<point x="404" y="643" type="line"/>
			<point x="368" y="672"/>
			<point x="302" y="698"/>
			<point x="233" y="698" type="curve" smooth="yes"/>
			<point x="105" y="698"/>
			<point x="27" y="616"/>
			<point x="23" y="509" type="curve" smooth="yes"/>
			<point x="21" y="472"/>
			<point x="29" y="439"/>
			<point x="44" y="407" type="curve"/>
			<point x="-26" y="374"/>
			<point x="-91" y="312"/>
			<point x="-108" y="222" type="curve"/>
			<point x="-241" y="378" type="line" smooth="yes"/>
			<point x="-278" y="422"/>
			<point x="-299" y="458"/>
			<point x="-297" y="507" type="curve" smooth="yes"/>
			<point x="-296" y="575"/>
			<point x="-252" y="621"/>
			<point x="-178" y="621" type="curve" smooth="yes"/>
			<point x="-121" y="621"/>
			<point x="-64" y="595"/>
			<point x="-28" y="564" type="curve"/>
			<point x="-16" y="647" type="line"/>
			<point x="-50" y="674"/>
			<point x="-111" y="698"/>
			<point x="-177" y="698" type="curve" smooth="yes"/>
			<point x="-304" y="698"/>
			<point x="-382" y="616"/>
			<point x="-386" y="509" type="curve" smooth="yes"/>
			<point x="-388" y="472"/>
			<point x="-379" y="438"/>
			<point x="-364" y="406" type="curve"/>
			<point x="-444" y="368"/>
			<point x="-515" y="294"/>
			<point x="-520" y="182" type="curve" smooth="yes"/>
			<point x="-524" y="66"/>
			<point x="-446" y="-14"/>
		</contour>
		<contour>
			<point x="-27" y="189" type="curve" smooth="yes"/>
			<point x="-26" y="266"/>
			<point x="21" y="323"/>
			<point x="82" y="348" type="curve"/>
			<point x="87" y="341"/>
			<point x="92" y="335"/>
			<point x="97" y="328" type="curve" smooth="yes"/>
			<point x="267" y="126" type="line"/>
			<point x="223" y="83"/>
			<point x="171" y="61"/>
			<point x="112" y="61" type="curve" smooth="yes"/>
			<point x="16" y="61"/>
			<point x="-29" y="115"/>
		</contour>
		<contour>
			<point x="-434" y="189" type="curve" smooth="yes"/>
			<point x="-433" y="266"/>
			<point x="-387" y="322"/>
			<point x="-326" y="347" type="curve"/>
			<point x="-322" y="341"/>
			<point x="-317" y="335"/>
			<point x="-312" y="329" type="curve" smooth="yes"/>
			<point x="-141" y="134" type="line"/>
			<point x="-185" y="86"/>
			<point x="-239" y="61"/>
			<point x="-297" y="61" type="curve" smooth="yes"/>
			<point x="-392" y="61"/>
			<point x="-436" y="115"/>
		</contour>
	</outline>
</glyph>
<glyph name="ampersand_ampersand_ampersand.rem" format="2">
	<advance width="600"/>
	<outline>
		<contour>
			<point x="-854" y="-14" type="curve" smooth="yes"/>
			<point x="-758" y="-14"/>
			<point x="-674" y="24"/>
			<point x="-609" y="89" type="curve"/>
			<point x="-580" y="25"/>
			<point x="-511" y="-14"/>
			<point x="-415" y="-14" type="curve" smooth="yes"/>
			<point x="-318" y="-14"/>
			<point x="-234" y="24"/>
			<point x="-170" y="89" type="curve"/>
			<point x="-141" y="25"/>
			<point x="-72" y="-14"/>
			<point x="25" y="-14" type="curve" smooth="yes"/>
			<point x="118" y="-14"/>
			<point x="196" y="19"/>
			<point x="259" y="76" type="curve"/>
			<point x="325" y="0" type="line"/>
			<point x="432" y="0" type="line"/>
			<point x="315" y="138" type="line"/>
			<point x="366" y="206"/>
			<point x="403" y="292"/>
			<point x="428" y="389" type="curve"/>
			<point x="347" y="389" type="line"/>
			<point x="327" y="311"/>
			<point x="300" y="245"/>
			<point x="267" y="194" type="curve"/>
			<point x="110" y="378" type="line" smooth="yes"/>
			<point x="72" y="423"/>
			<point x="52" y="458"/>
			<point x="54" y="506" type="curve" smooth="yes"/>
			<point x="55" y="575"/>
			<point x="99" y="621"/>
			<point x="175" y="621" type="curve" smooth="yes"/>
			<point x="236" y="621"/>
			<point x="300" y="593"/>
			<point x="339" y="560" type="curve"/>
			<point x="350" y="643" type="line"/>
			<point x="314" y="672"/>
			<point x="246" y="698"/>
			<point x="176" y="698" type="curve" smooth="yes"/>
			<point x="48" y="698"/>
			<point x="-31" y="616"/>
			<point x="-35" y="508" type="curve" smooth="yes"/>
			<point x="-37" y="473"/>
			<point x="-29" y="440"/>
			<point x="-15" y="409" type="curve"/>
			<point x="-92" y="375"/>
			<point x="-164" y="307"/>
			<point x="-182" y="212" type="curve"/>
			<point x="-334" y="378" type="line" smooth="yes"/>
			<point x="-372" y="420"/>
			<point x="-391" y="458"/>
			<point x="-390" y="506" type="curve" smooth="yes"/>
			<point x="-389" y="575"/>
			<point x="-344" y="621"/>
			<point x="-270" y="621" type="curve" smooth="yes"/>
			<point x="-213" y="621"/>
			<point x="-156" y="595"/>
			<point x="-120" y="564" type="curve"/>
			<point x="-108" y="647" type="line"/>
			<point x="-142" y="674"/>
			<point x="-203" y="698"/>
			<point x="-269" y="698" type="curve" smooth="yes"/>
			<point x="-396" y="698"/>
			<point x="-475" y="616"/>
			<point x="-479" y="508" type="curve" smooth="yes"/>
			<point x="-480" y="472"/>
			<point x="-473" y="438"/>
			<point x="-458" y="407" type="curve"/>
			<point x="-535" y="373"/>
			<point x="-606" y="307"/>
			<point x="-622" y="212" type="curve"/>
			<point x="-774" y="378" type="line" smooth="yes"/>
			<point x="-813" y="420"/>
			<point x="-832" y="458"/>
			<point x="-831" y="507" type="curve" smooth="yes"/>
			<point x="-830" y="575"/>
			<point x="-785" y="621"/>
			<point x="-711" y="621" type="curve" smooth="yes"/>
			<point x="-654" y="621"/>
			<point x="-597" y="595"/>
			<point x="-561" y="564" type="curve"/>
			<point x="-546" y="647" type="line"/>
			<point x="-581" y="674"/>
			<point x="-644" y="698"/>
			<point x="-710" y="698" type="curve" smooth="yes"/>
			<point x="-837" y="698"/>
			<point x="-915" y="616"/>
			<point x="-920" y="509" type="curve" smooth="yes"/>
			<point x="-921" y="472"/>
			<point x="-914" y="438"/>
			<point x="-899" y="406" type="curve"/>
			<point x="-983" y="368"/>
			<point x="-1060" y="292"/>
			<point x="-1064" y="179" type="curve" smooth="yes"/>
			<point x="-1069" y="64"/>
			<point x="-988" y="-14"/>
		</contour>
		<contour>
			<point x="-100" y="183" type="curve" smooth="yes"/>
			<point x="-99" y="262"/>
			<point x="-47" y="323"/>
			<point x="23" y="348" type="curve"/>
			<point x="28" y="342"/>
			<point x="34" y="335"/>
			<point x="39" y="328" type="curve" smooth="yes"/>
			<point x="213" y="129" type="line"/>
			<point x="165" y="84"/>
			<point x="108" y="61"/>
			<point x="42" y="61" type="curve" smooth="yes"/>
			<point x="-56" y="61"/>
			<point x="-102" y="110"/>
		</contour>
		<contour>
			<point x="-540" y="184" type="curve" smooth="yes"/>
			<point x="-539" y="263"/>
			<point x="-489" y="322"/>
			<point x="-420" y="347" type="curve"/>
			<point x="-415" y="341"/>
			<point x="-410" y="335"/>
			<point x="-404" y="329" type="curve" smooth="yes"/>
			<point x="-221" y="135" type="line"/>
			<point x="-272" y="86"/>
			<point x="-333" y="61"/>
			<point x="-400" y="61" type="curve" smooth="yes"/>
			<point x="-496" y="61"/>
			<point x="-542" y="112"/>
		</contour>
		<contour>
			<point x="-978" y="185" type="curve" smooth="yes"/>
			<point x="-977" y="264"/>
			<point x="-927" y="322"/>
			<point x="-861" y="347" type="curve"/>
			<point x="-856" y="341"/>
			<point x="-850" y="335"/>
			<point x="-844" y="329" type="curve" smooth="yes"/>
			<point x="-660" y="135" type="line"/>
			<point x="-711" y="86"/>
			<point x="-772" y="61"/>
			<point x="-838" y="61" type="curve" smooth="yes"/>
			<point x="-933" y="61"/>
			<point x="-980" y="113"/>
		</contour>
	</outline>
</glyph>
<glyph name="aogonek.001" format="2">
	<advance width="600"/>
	<outline>
		<contour>
			<point x="226" y="-14" type="curve" smooth="yes"/>
			<point x="296" y="-14"/>
			<point x="358" y="21"/>
			<point x="399" y="107" type="curve"/>
			<point x="383" y="0" type="line"/>
			<point x="401" y="0" type="line"/>
			<point x="330" y="-23"/>
			<point x="288" y="-68"/>
			<point x="288" y="-122" type="curve" smooth="yes"/>
			<point x="288" y="-179"/>
			<point x="330" y="-203"/>
			<point x="397" y="-203" type="curve" smooth="yes"/>
			<point x="420" y="-203"/>
			<point x="444" y="-198"/>
			<point x="457" y="-193" type="curve"/>
			<point x="465" y="-130" type="line"/>
			<point x="456" y="-133"/>
			<point x="440" y="-136"/>
			<point x="423" y="-136" type="curve" smooth="yes"/>
			<point x="392" y="-136"/>
			<point x="370" y="-125"/>
			<point x="370" y="-96" type="curve" smooth="yes"/>
			<point x="370" y="-60"/>
			<point x="397" y="-27"/>
			<point x="475" y="0" type="curve"/>
			<point x="474" y="0" type="line"/>
			<point x="547" y="523" type="line"/>
			<point x="377" y="523" type="line" smooth="yes"/>
			<point x="203" y="523"/>
			<point x="90" y="424"/>
			<point x="67" y="263" type="curve" smooth="yes"/>
			<point x="65" y="249" type="line" smooth="yes"/>
			<point x="41" y="81"/>
			<point x="107" y="-14"/>
		</contour>
		<contour>
			<point x="160" y="252" type="curve" smooth="yes"/>
			<point x="161" y="259" type="line"/>
			<point x="180" y="387"/>
			<point x="251" y="448"/>
			<point x="368" y="448" type="curve" smooth="yes"/>
			<point x="444" y="448" type="line"/>
			<point x="412" y="219" type="line" smooth="yes"/>
			<point x="399" y="129"/>
			<point x="348" y="62"/>
			<point x="267" y="62" type="curve" smooth="yes"/>
			<point x="185" y="62"/>
			<point x="143" y="130"/>
		</contour>
	</outline>
</glyph>
<glyph name="asciicircum_equal.cLig" format="2">
	<advance width="600"/>
	<outline>
		<contour>
			<point x="-433" y="370" type="line"/>
			<point x="-343" y="370" type="line"/>
			<point x="-166" y="638" type="line"/>
			<point x="-69" y="370" type="line"/>
			<point x="-25" y="370" type="line"/>
			<point x="-25" y="367" type="line"/>
			<point x="427" y="367" type="line"/>
			<point x="438" y="448" type="line"/>
			<point x="-11" y="448" type="line"/>
			<point x="-114" y="713" type="line"/>
			<point x="-203" y="713" type="line"/>
		</contour>
		<contour>
			<point x="-55" y="153" type="line"/>
			<point x="397" y="153" type="line"/>
			<point x="408" y="234" type="line"/>
			<point x="-43" y="234" type="line"/>
		</contour>
	</outline>
</glyph>
<glyph name="asciitilde_asciitilde.cLig" format="2">
	<advance width="600"/>
	<outline>
		<contour>
			<point x="-99" y="210" type="curve"/>
			<point x="17" y="210"/>
			<point x="31" y="337"/>
			<point x="111" y="337" type="curve"/>
			<point x="192" y="337"/>
			<point x="193" y="210"/>
			<point x="321" y="210" type="curve"/>
			<point x="411" y="210"/>
			<point x="471" y="289"/>
			<point x="499" y="416" type="curve"/>
			<point x="421" y="416" type="line"/>
			<point x="401" y="341"/>
			<point x="372" y="296"/>
			<point x="322" y="296" type="curve"/>
			<point x="235" y="296"/>
			<point x="243" y="421"/>
			<point x="116" y="421" type="curve"/>
			<point x="-4" y="421"/>
			<point x="-17" y="296"/>
			<point x="-95" y="296" type="curve"/>
			<point x="-173" y="296"/>
			<point x="-170" y="421"/>
			<point x="-294" y="421" type="curve"/>
			<point x="-390" y="421"/>
			<point x="-454" y="343"/>
			<point x="-483" y="216" type="curve"/>
			<point x="-405" y="216" type="line"/>
			<point x="-385" y="292"/>
			<point x="-353" y="336"/>
			<point x="-298" y="336" type="curve"/>
			<point x="-214" y="336"/>
			<point x="-220" y="210"/>
		</contour>
	</outline>
</glyph>
<glyph name="asciitilde_asciitilde_greater.cLig" format="2">
	<advance width="600"/>
	<outline>
		<contour>
			<point x="184" y="629" type="line"/>
			<point x="391" y="356" type="line"/>
			<point x="18" y="357" type="line"/>
			<point x="-8" y="403"/>
			<point x="-50" y="426"/>
			<point x="-99" y="426" type="curve" smooth="yes"/>
			<point x="-214" y="426"/>
			<point x="-236" y="291"/>
			<point x="-318" y="291" type="curve" smooth="yes"/>
			<point x="-401" y="291"/>
			<point x="-393" y="424"/>
			<point x="-514" y="424" type="curve" smooth="yes"/>
			<point x="-627" y="424"/>
			<point x="-654" y="290"/>
			<point x="-729" y="290" type="curve"/>
			<point x="-814" y="290"/>
			<point x="-802" y="425"/>
			<point x="-932" y="425" type="curve" smooth="yes"/>
			<point x="-1018" y="425"/>
			<point x="-1088" y="356"/>
			<point x="-1120" y="225" type="curve"/>
			<point x="-1041" y="225" type="line"/>
			<point x="-1021" y="298"/>
			<point x="-983" y="338"/>
			<point x="-934" y="338" type="curve" smooth="yes"/>
			<point x="-848" y="338"/>
			<point x="-857" y="205"/>
			<point x="-735" y="205" type="curve"/>
			<point x="-621" y="205"/>
			<point x="-600" y="337"/>
			<point x="-518" y="337" type="curve" smooth="yes"/>
			<point x="-434" y="337"/>
			<point x="-447" y="205"/>
			<point x="-326" y="205" type="curve" smooth="yes"/>
			<point x="-207" y="205"/>
			<point x="-190" y="341"/>
			<point x="-107" y="341" type="curve" smooth="yes"/>
			<point x="-67" y="341"/>
			<point x="-44" y="316"/>
			<point x="-33" y="272" type="curve"/>
			<point x="372" y="272" type="line"/>
			<point x="91" y="0" type="line"/>
			<point x="205" y="0" type="line"/>
			<point x="525" y="314" type="line"/>
			<point x="288" y="629" type="line"/>
		</contour>
	</outline>
</glyph>
<glyph name="asciitilde_at.cLig" format="2">
	<advance width="600"/>
	<outline>
		<contour>
			<point x="349" y="-16" type="curve"/>
			<point x="446" y="-16"/>
			<point x="507" y="78"/>
			<point x="534" y="262" type="curve" smooth="yes"/>
			<point x="536" y="276" type="line" smooth="yes"/>
			<point x="574" y="546"/>
			<point x="467" y="698"/>
			<point x="240" y="698" type="curve"/>
			<point x="12" y="698"/>
			<point x="-85" y="570"/>
			<point x="-150" y="382" type="curve" smooth="yes"/>
			<point x="-171" y="322"/>
			<point x="-180" y="287"/>
			<point x="-218" y="287" type="curve" smooth="yes"/>
			<point x="-281" y="287"/>
			<point x="-302" y="412"/>
			<point x="-404" y="412" type="curve" smooth="yes"/>
			<point x="-491" y="412"/>
			<point x="-532" y="337"/>
			<point x="-549" y="211" type="curve"/>
			<point x="-472" y="211" type="line"/>
			<point x="-461" y="290"/>
			<point x="-443" y="327"/>
			<point x="-401" y="328" type="curve" smooth="yes"/>
			<point x="-338" y="328"/>
			<point x="-318" y="201"/>
			<point x="-217" y="201" type="curve" smooth="yes"/>
			<point x="-145" y="201"/>
			<point x="-113" y="249"/>
			<point x="-77" y="359" type="curve" smooth="yes"/>
			<point x="-21" y="533"/>
			<point x="65" y="624"/>
			<point x="233" y="624" type="curve"/>
			<point x="427" y="624"/>
			<point x="487" y="493"/>
			<point x="457" y="282" type="curve" smooth="yes"/>
			<point x="456" y="275" type="line" smooth="yes"/>
			<point x="433" y="114"/>
			<point x="400" y="53"/>
			<point x="356" y="53" type="curve"/>
			<point x="322" y="53"/>
			<point x="311" y="73"/>
			<point x="320" y="134" type="curve" smooth="yes"/>
			<point x="369" y="481" type="line"/>
			<point x="295" y="481" type="line"/>
			<point x="282" y="390" type="line"/>
			<point x="266" y="457"/>
			<point x="230" y="492"/>
			<point x="166" y="492" type="curve" smooth="yes"/>
			<point x="83" y="492"/>
			<point x="20" y="421"/>
			<point x="1" y="281" type="curve" smooth="yes"/>
			<point x="-19" y="147"/>
			<point x="28" y="63"/>
			<point x="121" y="63" type="curve" smooth="yes"/>
			<point x="186" y="63"/>
			<point x="228" y="107"/>
			<point x="252" y="161" type="curve"/>
			<point x="247" y="127" type="line" smooth="yes"/>
			<point x="233" y="27"/>
			<point x="274" y="-16"/>
		</contour>
		<contour>
			<point x="154" y="131" type="curve" smooth="yes"/>
			<point x="92" y="131"/>
			<point x="66" y="183"/>
			<point x="79" y="280" type="curve" smooth="yes"/>
			<point x="93" y="381"/>
			<point x="129" y="422"/>
			<point x="185" y="422" type="curve" smooth="yes"/>
			<point x="242" y="422"/>
			<point x="277" y="372"/>
			<point x="263" y="275" type="curve" smooth="yes"/>
			<point x="249" y="179"/>
			<point x="215" y="131"/>
		</contour>
	</outline>
</glyph>
<glyph name="asciitilde_greater.cLig" format="2">
	<advance width="600"/>
	<outline>
		<contour>
			<point x="293" y="357" type="line"/>
			<point x="-99" y="357" type="line"/>
			<point x="-109" y="312"/>
			<point x="-129" y="285"/>
			<point x="-168" y="285" type="curve" smooth="yes"/>
			<point x="-237" y="285"/>
			<point x="-254" y="414"/>
			<point x="-359" y="414" type="curve" smooth="yes"/>
			<point x="-433" y="414"/>
			<point x="-491" y="366"/>
			<point x="-509" y="220" type="curve"/>
			<point x="-431" y="220" type="line"/>
			<point x="-422" y="294"/>
			<point x="-401" y="329"/>
			<point x="-360" y="329" type="curve" smooth="yes"/>
			<point x="-295" y="329"/>
			<point x="-273" y="201"/>
			<point x="-166" y="201" type="curve" smooth="yes"/>
			<point x="-117" y="201"/>
			<point x="-78" y="224"/>
			<point x="-54" y="272" type="curve"/>
			<point x="-20" y="272" type="line"/>
			<point x="350" y="271" type="line"/>
			<point x="69" y="0" type="line"/>
			<point x="183" y="0" type="line"/>
			<point x="504" y="314" type="line"/>
			<point x="267" y="629" type="line"/>
			<point x="162" y="629" type="line"/>
			<point x="369" y="356" type="line"/>
			<point x="293" y="356" type="line"/>
		</contour>
	</outline>
</glyph>
<glyph name="aster_comp" format="2">
	<advance width="600"/>
	<outline>
		<contour>
			<point x="247" y="530" type="curve" smooth="yes"/>
			<point x="221" y="312" type="line"/>
			<point x="312" y="312" type="line"/>
			<point x="286" y="530" type="line" smooth="yes"/>
			<point x="285" y="540"/>
			<point x="282" y="547"/>
			<point x="276" y="550" type="curve"/>
			<point x="282" y="553"/>
			<point x="285" y="560"/>
			<point x="287" y="570" type="curve" smooth="yes"/>
			<point x="312" y="787" type="line"/>
			<point x="221" y="787" type="line"/>
			<point x="247" y="570" type="line" smooth="yes"/>
			<point x="248" y="560"/>
			<point x="252" y="553"/>
			<point x="257" y="550" type="curve"/>
			<point x="252" y="547"/>
			<point x="248" y="540"/>
		</contour>
	</outline>
</glyph>
<glyph name="asterisk_asterisk_asterisk.cLig" format="2">
	<advance width="600"/>
	<outline>
		<contour>
			<point x="-1064" y="80" type="line"/>
			<point x="-883" y="202" type="line"/>
			<point x="-936" y="0" type="line"/>
			<point x="-843" y="0" type="line"/>
			<point x="-839" y="200" type="line"/>
			<point x="-693" y="81" type="line"/>
			<point x="-636" y="160" type="line"/>
			<point x="-810" y="240" type="line"/>
			<point x="-613" y="321" type="line"/>
			<point x="-647" y="400" type="line"/>
			<point x="-827" y="280" type="line"/>
			<point x="-776" y="481" type="line"/>
			<point x="-868" y="481" type="line"/>
			<point x="-873" y="279" type="line"/>
			<point x="-1020" y="401" type="line"/>
			<point x="-1077" y="321" type="line"/>
			<point x="-900" y="240" type="line"/>
			<point x="-1099" y="160" type="line"/>
		</contour>
		<contour>
			<point x="-486" y="283" type="line"/>
			<point x="-305" y="405" type="line"/>
			<point x="-358" y="203" type="line"/>
			<point x="-265" y="203" type="line"/>
			<point x="-261" y="403" type="line"/>
			<point x="-115" y="284" type="line"/>
			<point x="-58" y="363" type="line"/>
			<point x="-232" y="443" type="line"/>
			<point x="-35" y="524" type="line"/>
			<point x="-69" y="603" type="line"/>
			<point x="-249" y="483" type="line"/>
			<point x="-198" y="684" type="line"/>
			<point x="-290" y="684" type="line"/>
			<point x="-295" y="482" type="line"/>
			<point x="-442" y="604" type="line"/>
			<point x="-499" y="524" type="line"/>
			<point x="-322" y="443" type="line"/>
			<point x="-521" y="363" type="line"/>
		</contour>
		<contour>
			<point x="48" y="80" type="line"/>
			<point x="229" y="202" type="line"/>
			<point x="176" y="0" type="line"/>
			<point x="269" y="0" type="line"/>
			<point x="273" y="200" type="line"/>
			<point x="419" y="81" type="line"/>
			<point x="476" y="160" type="line"/>
			<point x="302" y="240" type="line"/>
			<point x="499" y="321" type="line"/>
			<point x="465" y="400" type="line"/>
			<point x="285" y="280" type="line"/>
			<point x="336" y="481" type="line"/>
			<point x="244" y="481" type="line"/>
			<point x="239" y="279" type="line"/>
			<point x="92" y="401" type="line"/>
			<point x="35" y="321" type="line"/>
			<point x="212" y="240" type="line"/>
			<point x="13" y="160" type="line"/>
		</contour>
	</outline>
</glyph>
<glyph name="asterisk_greater.cLig" format="2">
	<advance width="600"/>
	<outline>
		<contour>
			<point x="103" y="635" type="line"/>
			<point x="89" y="543" type="line"/>
			<point x="431" y="319" type="line"/>
			<point x="26" y="95" type="line"/>
			<point x="12" y="-6" type="line"/>
			<point x="494" y="264" type="line"/>
			<point x="508" y="366" type="line"/>
		</contour>
		<contour>
			<point x="-41" y="474" type="line"/>
			<point x="-221" y="352" type="line"/>
			<point x="-169" y="554" type="line"/>
			<point x="-262" y="554" type="line"/>
			<point x="-266" y="354" type="line"/>
			<point x="-411" y="473" type="line"/>
			<point x="-468" y="394" type="line"/>
			<point x="-295" y="314" type="line"/>
			<point x="-492" y="233" type="line"/>
			<point x="-457" y="154" type="line"/>
			<point x="-278" y="274" type="line"/>
			<point x="-329" y="73" type="line"/>
			<point x="-237" y="73" type="line"/>
			<point x="-232" y="275" type="line"/>
			<point x="-85" y="153" type="line"/>
			<point x="-28" y="233" type="line"/>
			<point x="-205" y="314" type="line"/>
			<point x="-6" y="394" type="line"/>
		</contour>
	</outline>
</glyph>
<glyph name="backslash_backslash_backslash.rem" format="2">
	<advance width="600"/>
	<outline>
		<contour>
			<point x="-715" y="-163" type="line"/>
			<point x="-627" y="-163" type="line"/>
			<point x="-871" y="792" type="line"/>
			<point x="-958" y="792" type="line"/>
		</contour>
		<contour>
			<point x="-215" y="-163" type="line"/>
			<point x="-127" y="-163" type="line"/>
			<point x="-371" y="792" type="line"/>
			<point x="-458" y="792" type="line"/>
		</contour>
		<contour>
			<point x="285" y="-163" type="line"/>
			<point x="373" y="-163" type="line"/>
			<point x="129" y="792" type="line"/>
			<point x="42" y="792" type="line"/>
		</contour>
	</outline>
</glyph>
<glyph name="backslash_slash.cLig" format="2">
	<advance width="600"/>
	<outline>
		<contour>
			<point x="-122" y="-163" type="line"/>
			<point x="9" y="-163" type="line"/>
			<point x="515" y="792" type="line"/>
			<point x="419" y="792" type="line"/>
			<point x="-51" y="-97" type="line"/>
			<point x="-278" y="792" type="line"/>
			<point x="-365" y="792" type="line"/>
		</contour>
	</outline>
</glyph>
<glyph name="bar_bar_equal.med" format="2">
	<advance width="600"/>
	<outline>
		<contour>
			<point x="101" y="-55" type="line"/>
			<point x="189" y="-55" type="line"/>
			<point x="220" y="167" type="line"/>
			<point x="586" y="167" type="line"/>
			<point x="598" y="249" type="line"/>
			<point x="232" y="249" type="line"/>
			<point x="250" y="380" type="line"/>
			<point x="616" y="380" type="line"/>
			<point x="628" y="462" type="line"/>
			<point x="262" y="462" type="line"/>
			<point x="293" y="684" type="line"/>
			<point x="205" y="684" type="line"/>
		</contour>
		<contour>
			<point x="-613" y="167" type="line"/>
			<point x="-247" y="167" type="line"/>
			<point x="-278" y="-55" type="line"/>
			<point x="-190" y="-55" type="line"/>
			<point x="-86" y="684" type="line"/>
			<point x="-174" y="684" type="line"/>
			<point x="-205" y="462" type="line"/>
			<point x="-571" y="462" type="line"/>
			<point x="-583" y="380" type="line"/>
			<point x="-217" y="380" type="line"/>
			<point x="-236" y="249" type="line"/>
			<point x="-602" y="249" type="line"/>
		</contour>
	</outline>
</glyph>
<glyph name="bar_bar_greater.cLig" format="2">
	<advance width="600"/>
	<outline>
		<contour>
			<point x="-798" y="708" type="line"/>
			<point x="-908" y="-79" type="line"/>
			<point x="-820" y="-79" type="line"/>
			<point x="-710" y="708" type="line"/>
		</contour>
		<contour>
			<point x="-348" y="-79" type="line"/>
			<point x="-260" y="-79" type="line"/>
			<point x="330" y="263" type="line"/>
			<point x="344" y="365" type="line"/>
			<point x="-150" y="708" type="line"/>
			<point x="-238" y="708" type="line"/>
		</contour>
		<contour>
			<point x="-166" y="613" type="line"/>
			<point x="263" y="319" type="line"/>
			<point x="-247" y="26" type="line"/>
		</contour>
	</outline>
</glyph>
<glyph name="bar_bar_hyphen.init" format="2">
	<advance width="600"/>
	<outline>
		<contour>
			<point x="-18" y="-55" type="line"/>
			<point x="70" y="-55" type="line"/>
			<point x="116" y="271" type="line"/>
			<point x="601" y="271" type="line"/>
			<point x="613" y="356" type="line"/>
			<point x="128" y="356" type="line"/>
			<point x="174" y="684" type="line"/>
			<point x="86" y="684" type="line"/>
		</contour>
		<contour>
			<point x="-398" y="-55" type="line"/>
			<point x="-310" y="-55" type="line"/>
			<point x="-206" y="684" type="line"/>
			<point x="-294" y="684" type="line"/>
		</contour>
	</outline>
</glyph>
<glyph name="bar_bar_hyphen.rem" format="2">
	<advance width="600"/>
	<outline>
		<contour>
			<point x="-618" y="-55" type="line"/>
			<point x="-530" y="-55" type="line"/>
			<point x="-484" y="271" type="line"/>
			<point x="430" y="271" type="line"/>
			<point x="442" y="356" type="line"/>
			<point x="-472" y="356" type="line"/>
			<point x="-426" y="684" type="line"/>
			<point x="-514" y="684" type="line"/>
		</contour>
		<contour>
			<point x="-1001" y="-55" type="line"/>
			<point x="-913" y="-55" type="line"/>
			<point x="-809" y="684" type="line"/>
			<point x="-897" y="684" type="line"/>
		</contour>
	</outline>
</glyph>
<glyph name="bar_bracketright.cLig" format="2">
	<advance width="600"/>
	<outline>
		<contour>
			<point x="-104" y="-163" type="line"/>
			<point x="327" y="-163" type="line"/>
			<point x="461" y="792" type="line"/>
			<point x="31" y="792" type="line"/>
			<point x="20" y="722" type="line"/>
			<point x="363" y="722" type="line"/>
			<point x="248" y="-93" type="line"/>
			<point x="-94" y="-93" type="line"/>
		</contour>
		<contour>
			<point x="-320" y="-163" type="line"/>
			<point x="-185" y="792" type="line"/>
			<point x="-273" y="792" type="line"/>
			<point x="-407" y="-163" type="line"/>
		</contour>
	</outline>
</glyph>
<glyph name="bar_equal.fina" format="2">
	<advance width="600"/>
	<outline>
		<contour>
			<point x="-13" y="167" type="line"/>
			<point x="352" y="167" type="line"/>
			<point x="321" y="-55" type="line"/>
			<point x="409" y="-55" type="line"/>
			<point x="513" y="684" type="line"/>
			<point x="425" y="684" type="line"/>
			<point x="394" y="462" type="line"/>
			<point x="29" y="462" type="line"/>
			<point x="17" y="380" type="line"/>
			<point x="382" y="380" type="line"/>
			<point x="364" y="249" type="line"/>
			<point x="-1" y="249" type="line"/>
		</contour>
	</outline>
</glyph>
<glyph name="bar_equal.init" format="2">
	<advance width="600"/>
	<outline>
		<contour>
			<point x="204" y="684" type="line"/>
			<point x="100" y="-55" type="line"/>
			<point x="188" y="-55" type="line"/>
			<point x="219" y="167" type="line"/>
			<point x="586" y="167" type="line"/>
			<point x="598" y="249" type="line"/>
			<point x="230" y="249" type="line"/>
			<point x="249" y="380" type="line"/>
			<point x="616" y="380" type="line"/>
			<point x="628" y="462" type="line"/>
			<point x="260" y="462" type="line"/>
			<point x="292" y="684" type="line"/>
		</contour>
	</outline>
</glyph>
<glyph name="bar_equal.med" format="2">
	<advance width="600"/>
	<outline>
		<contour>
			<point x="-13" y="167" type="line"/>
			<point x="242" y="167" type="line"/>
			<point x="210" y="-55" type="line"/>
			<point x="298" y="-55" type="line"/>
			<point x="330" y="167" type="line"/>
			<point x="586" y="167" type="line"/>
			<point x="598" y="249" type="line"/>
			<point x="341" y="249" type="line"/>
			<point x="360" y="380" type="line"/>
			<point x="616" y="380" type="line"/>
			<point x="628" y="462" type="line"/>
			<point x="371" y="462" type="line"/>
			<point x="402" y="684" type="line"/>
			<point x="314" y="684" type="line"/>
			<point x="283" y="462" type="line"/>
			<point x="29" y="462" type="line"/>
			<point x="17" y="380" type="line"/>
			<point x="272" y="380" type="line"/>
			<point x="253" y="249" type="line"/>
			<point x="-2" y="249" type="line"/>
		</contour>
	</outline>
</glyph>
<glyph name="bar_equal.rem" format="2">
	<advance width="600"/>
	<outline>
		<contour>
			<point x="-297" y="684" type="line"/>
			<point x="-401" y="-55" type="line"/>
			<point x="-313" y="-55" type="line"/>
			<point x="-282" y="167" type="line"/>
			<point x="415" y="167" type="line"/>
			<point x="426" y="249" type="line"/>
			<point x="-270" y="249" type="line"/>
			<point x="-252" y="380" type="line"/>
			<point x="445" y="380" type="line"/>
			<point x="456" y="462" type="line"/>
			<point x="-240" y="462" type="line"/>
			<point x="-209" y="684" type="line"/>
		</contour>
	</outline>
</glyph>
<glyph name="bar_hyphen.med" format="2">
	<advance width="600"/>
	<outline>
		<contour>
			<point x="212" y="-55" type="line"/>
			<point x="300" y="-55" type="line"/>
			<point x="346" y="271" type="line"/>
			<point x="601" y="271" type="line"/>
			<point x="613" y="356" type="line"/>
			<point x="358" y="356" type="line"/>
			<point x="404" y="684" type="line"/>
			<point x="316" y="684" type="line"/>
			<point x="270" y="356" type="line"/>
			<point x="13" y="356" type="line"/>
			<point x="1" y="271" type="line"/>
			<point x="258" y="271" type="line"/>
		</contour>
	</outline>
</glyph>
<glyph name="braceleft_bar.cLig" format="2">
	<advance width="600"/>
	<outline>
		<contour>
			<point x="-265" y="-163" type="curve" smooth="yes"/>
			<point x="-13" y="-163" type="line"/>
			<point x="-4" y="-93" type="line"/>
			<point x="-232" y="-93" type="line" smooth="yes"/>
			<point x="-291" y="-93"/>
			<point x="-322" y="-70"/>
			<point x="-322" y="-23" type="curve" smooth="yes"/>
			<point x="-322" y="71"/>
			<point x="-186" y="114"/>
			<point x="-186" y="217" type="curve" smooth="yes"/>
			<point x="-186" y="266"/>
			<point x="-228" y="304"/>
			<point x="-281" y="313" type="curve"/>
			<point x="-226" y="321"/>
			<point x="-156" y="352"/>
			<point x="-156" y="433" type="curve" smooth="yes"/>
			<point x="-156" y="512"/>
			<point x="-229" y="574"/>
			<point x="-229" y="644" type="curve" smooth="yes"/>
			<point x="-229" y="704"/>
			<point x="-186" y="722"/>
			<point x="-121" y="722" type="curve" smooth="yes"/>
			<point x="110" y="722" type="line"/>
			<point x="121" y="792" type="line"/>
			<point x="-148" y="792" type="line" smooth="yes"/>
			<point x="-258" y="792"/>
			<point x="-322" y="737"/>
			<point x="-322" y="653" type="curve" smooth="yes"/>
			<point x="-322" y="568"/>
			<point x="-249" y="500"/>
			<point x="-249" y="431" type="curve" smooth="yes"/>
			<point x="-249" y="389"/>
			<point x="-278" y="355"/>
			<point x="-330" y="355" type="curve" smooth="yes"/>
			<point x="-414" y="355" type="line"/>
			<point x="-426" y="272" type="line"/>
			<point x="-349" y="272" type="line" smooth="yes"/>
			<point x="-298" y="272"/>
			<point x="-281" y="241"/>
			<point x="-281" y="212" type="curve" smooth="yes"/>
			<point x="-281" y="136"/>
			<point x="-419" y="86"/>
			<point x="-419" y="-36" type="curve" smooth="yes"/>
			<point x="-419" y="-105"/>
			<point x="-375" y="-163"/>
		</contour>
		<contour>
			<point x="337" y="792" type="line"/>
			<point x="202" y="-163" type="line"/>
			<point x="289" y="-163" type="line"/>
			<point x="423" y="792" type="line"/>
		</contour>
	</outline>
</glyph>
<glyph name="braceleft_braceleft_numbersign.cLig" format="2">
	<advance width="600"/>
	<outline>
		<contour>
			<point x="-706" y="-163" type="line"/>
			<point x="-696" y="-93" type="line"/>
			<point x="-818" y="-93" type="line" smooth="yes"/>
			<point x="-878" y="-93"/>
			<point x="-908" y="-70"/>
			<point x="-908" y="-23" type="curve" smooth="yes"/>
			<point x="-908" y="71"/>
			<point x="-773" y="114"/>
			<point x="-773" y="217" type="curve" smooth="yes"/>
			<point x="-773" y="266"/>
			<point x="-815" y="304"/>
			<point x="-867" y="313" type="curve"/>
			<point x="-812" y="321"/>
			<point x="-742" y="352"/>
			<point x="-742" y="433" type="curve" smooth="yes"/>
			<point x="-742" y="512"/>
			<point x="-816" y="574"/>
			<point x="-816" y="644" type="curve" smooth="yes"/>
			<point x="-816" y="704"/>
			<point x="-772" y="722"/>
			<point x="-708" y="722" type="curve" smooth="yes"/>
			<point x="-375" y="722" type="line"/>
			<point x="-426" y="707"/>
			<point x="-450" y="677"/>
			<point x="-450" y="631" type="curve" smooth="yes"/>
			<point x="-450" y="555"/>
			<point x="-376" y="495"/>
			<point x="-376" y="428" type="curve" smooth="yes"/>
			<point x="-376" y="386"/>
			<point x="-405" y="355"/>
			<point x="-463" y="355" type="curve" smooth="yes"/>
			<point x="-556" y="355" type="line"/>
			<point x="-568" y="272" type="line"/>
			<point x="-482" y="272" type="line" smooth="yes"/>
			<point x="-427" y="272"/>
			<point x="-408" y="244"/>
			<point x="-408" y="214" type="curve"/>
			<point x="-408" y="137"/>
			<point x="-547" y="86"/>
			<point x="-547" y="-36" type="curve" smooth="yes"/>
			<point x="-547" y="-105"/>
			<point x="-503" y="-163"/>
			<point x="-393" y="-163" type="curve" smooth="yes"/>
			<point x="-211" y="-163" type="line"/>
			<point x="-201" y="-93" type="line"/>
			<point x="-360" y="-93" type="line" smooth="yes"/>
			<point x="-419" y="-93"/>
			<point x="-450" y="-70"/>
			<point x="-450" y="-23" type="curve" smooth="yes"/>
			<point x="-450" y="70"/>
			<point x="-314" y="116"/>
			<point x="-314" y="219" type="curve"/>
			<point x="-314" y="268"/>
			<point x="-355" y="304"/>
			<point x="-408" y="313" type="curve"/>
			<point x="-353" y="320"/>
			<point x="-283" y="349"/>
			<point x="-283" y="431" type="curve" smooth="yes"/>
			<point x="-283" y="510"/>
			<point x="-357" y="570"/>
			<point x="-357" y="642" type="curve" smooth="yes"/>
			<point x="-357" y="700"/>
			<point x="-313" y="722"/>
			<point x="-246" y="722" type="curve" smooth="yes"/>
			<point x="-88" y="722" type="line"/>
			<point x="-77" y="792" type="line"/>
			<point x="-734" y="792" type="line" smooth="yes"/>
			<point x="-844" y="792"/>
			<point x="-908" y="737"/>
			<point x="-908" y="653" type="curve" smooth="yes"/>
			<point x="-908" y="568"/>
			<point x="-835" y="500"/>
			<point x="-835" y="431" type="curve" smooth="yes"/>
			<point x="-835" y="389"/>
			<point x="-864" y="355"/>
			<point x="-917" y="355" type="curve" smooth="yes"/>
			<point x="-1012" y="355" type="line"/>
			<point x="-1024" y="272" type="line"/>
			<point x="-936" y="272" type="line" smooth="yes"/>
			<point x="-885" y="272"/>
			<point x="-867" y="241"/>
			<point x="-867" y="212" type="curve" smooth="yes"/>
			<point x="-867" y="136"/>
			<point x="-1005" y="86"/>
			<point x="-1005" y="-36" type="curve" smooth="yes"/>
			<point x="-1005" y="-105"/>
			<point x="-962" y="-163"/>
			<point x="-851" y="-163" type="curve" smooth="yes"/>
		</contour>
		<contour>
			<point x="-136" y="241" type="line"/>
			<point x="-147" y="167" type="line"/>
			<point x="-17" y="167" type="line"/>
			<point x="-56" y="0" type="line"/>
			<point x="22" y="0" type="line"/>
			<point x="61" y="167" type="line"/>
			<point x="198" y="167" type="line"/>
			<point x="159" y="0" type="line"/>
			<point x="235" y="0" type="line"/>
			<point x="274" y="167" type="line"/>
			<point x="387" y="167" type="line"/>
			<point x="398" y="241" type="line"/>
			<point x="292" y="241" type="line"/>
			<point x="342" y="454" type="line"/>
			<point x="452" y="454" type="line"/>
			<point x="462" y="529" type="line"/>
			<point x="360" y="529" type="line"/>
			<point x="396" y="684" type="line"/>
			<point x="319" y="684" type="line"/>
			<point x="283" y="529" type="line"/>
			<point x="146" y="529" type="line"/>
			<point x="182" y="684" type="line"/>
			<point x="106" y="684" type="line"/>
			<point x="69" y="529" type="line"/>
			<point x="-96" y="529" type="line"/>
			<point x="-106" y="454" type="line"/>
			<point x="51" y="454" type="line"/>
			<point x="1" y="241" type="line"/>
		</contour>
		<contour>
			<point x="78" y="241" type="line"/>
			<point x="128" y="454" type="line"/>
			<point x="265" y="454" type="line"/>
			<point x="215" y="241" type="line"/>
		</contour>
	</outline>
</glyph>
<glyph name="braceleft_numbersign.cLig" format="2">
	<advance width="600"/>
	<outline>
		<contour>
			<point x="-475" y="272" type="line"/>
			<point x="-398" y="272" type="line" smooth="yes"/>
			<point x="-348" y="272"/>
			<point x="-331" y="241"/>
			<point x="-331" y="212" type="curve" smooth="yes"/>
			<point x="-331" y="135"/>
			<point x="-468" y="86"/>
			<point x="-468" y="-37" type="curve" smooth="yes"/>
			<point x="-468" y="-105"/>
			<point x="-425" y="-163"/>
			<point x="-314" y="-163" type="curve" smooth="yes"/>
			<point x="-169" y="-163" type="line"/>
			<point x="-160" y="-93" type="line"/>
			<point x="-282" y="-93" type="line" smooth="yes"/>
			<point x="-341" y="-93"/>
			<point x="-372" y="-70"/>
			<point x="-372" y="-23" type="curve" smooth="yes"/>
			<point x="-372" y="71"/>
			<point x="-237" y="114"/>
			<point x="-237" y="217" type="curve" smooth="yes"/>
			<point x="-237" y="266"/>
			<point x="-277" y="303"/>
			<point x="-330" y="313" type="curve"/>
			<point x="-275" y="321"/>
			<point x="-206" y="352"/>
			<point x="-206" y="433" type="curve" smooth="yes"/>
			<point x="-206" y="512"/>
			<point x="-279" y="574"/>
			<point x="-279" y="644" type="curve" smooth="yes"/>
			<point x="-279" y="704"/>
			<point x="-236" y="722"/>
			<point x="-171" y="722" type="curve" smooth="yes"/>
			<point x="-45" y="722" type="line"/>
			<point x="-35" y="792" type="line"/>
			<point x="-197" y="792" type="line" smooth="yes"/>
			<point x="-307" y="792"/>
			<point x="-371" y="737"/>
			<point x="-371" y="653" type="curve" smooth="yes"/>
			<point x="-371" y="568"/>
			<point x="-298" y="500"/>
			<point x="-298" y="431" type="curve" smooth="yes"/>
			<point x="-298" y="389"/>
			<point x="-328" y="355"/>
			<point x="-380" y="355" type="curve" smooth="yes"/>
			<point x="-463" y="355" type="line"/>
		</contour>
		<contour>
			<point x="-100" y="241" type="line"/>
			<point x="-111" y="167" type="line"/>
			<point x="19" y="167" type="line"/>
			<point x="-20" y="0" type="line"/>
			<point x="58" y="0" type="line"/>
			<point x="97" y="167" type="line"/>
			<point x="234" y="167" type="line"/>
			<point x="195" y="0" type="line"/>
			<point x="271" y="0" type="line"/>
			<point x="310" y="167" type="line"/>
			<point x="423" y="167" type="line"/>
			<point x="434" y="241" type="line"/>
			<point x="328" y="241" type="line"/>
			<point x="378" y="454" type="line"/>
			<point x="488" y="454" type="line"/>
			<point x="498" y="529" type="line"/>
			<point x="396" y="529" type="line"/>
			<point x="432" y="684" type="line"/>
			<point x="355" y="684" type="line"/>
			<point x="319" y="529" type="line"/>
			<point x="182" y="529" type="line"/>
			<point x="218" y="684" type="line"/>
			<point x="142" y="684" type="line"/>
			<point x="105" y="529" type="line"/>
			<point x="-60" y="529" type="line"/>
			<point x="-70" y="454" type="line"/>
			<point x="87" y="454" type="line"/>
			<point x="37" y="241" type="line"/>
		</contour>
		<contour>
			<point x="114" y="241" type="line"/>
			<point x="164" y="454" type="line"/>
			<point x="301" y="454" type="line"/>
			<point x="251" y="241" type="line"/>
		</contour>
	</outline>
</glyph>
<glyph name="bracketleft_bar.cLig" format="2">
	<advance width="600"/>
	<outline>
		<contour>
			<point x="-1" y="-93" type="line"/>
			<point x="-349" y="-93" type="line"/>
			<point x="-234" y="722" type="line"/>
			<point x="114" y="722" type="line"/>
			<point x="124" y="792" type="line"/>
			<point x="-313" y="792" type="line"/>
			<point x="-447" y="-163" type="line"/>
			<point x="-11" y="-163" type="line"/>
		</contour>
		<contour>
			<point x="335" y="792" type="line"/>
			<point x="200" y="-163" type="line"/>
			<point x="287" y="-163" type="line"/>
			<point x="421" y="792" type="line"/>
		</contour>
	</outline>
</glyph>
<glyph name="bracketleft_bracketleft_numbersign.cLig" format="2">
	<advance width="600"/>
	<outline>
		<contour>
			<point x="-138" y="241" type="line"/>
			<point x="-149" y="167" type="line"/>
			<point x="-19" y="167" type="line"/>
			<point x="-58" y="0" type="line"/>
			<point x="20" y="0" type="line"/>
			<point x="59" y="167" type="line"/>
			<point x="196" y="167" type="line"/>
			<point x="157" y="0" type="line"/>
			<point x="233" y="0" type="line"/>
			<point x="272" y="167" type="line"/>
			<point x="385" y="167" type="line"/>
			<point x="396" y="241" type="line"/>
			<point x="290" y="241" type="line"/>
			<point x="340" y="454" type="line"/>
			<point x="450" y="454" type="line"/>
			<point x="460" y="529" type="line"/>
			<point x="358" y="529" type="line"/>
			<point x="394" y="684" type="line"/>
			<point x="317" y="684" type="line"/>
			<point x="281" y="529" type="line"/>
			<point x="144" y="529" type="line"/>
			<point x="180" y="684" type="line"/>
			<point x="104" y="684" type="line"/>
			<point x="67" y="529" type="line"/>
			<point x="-98" y="529" type="line"/>
			<point x="-108" y="454" type="line"/>
			<point x="49" y="454" type="line"/>
			<point x="-1" y="241" type="line"/>
		</contour>
		<contour>
			<point x="76" y="241" type="line"/>
			<point x="126" y="454" type="line"/>
			<point x="263" y="454" type="line"/>
			<point x="213" y="241" type="line"/>
		</contour>
		<contour>
			<point x="-238" y="-93" type="line"/>
			<point x="-476" y="-93" type="line"/>
			<point x="-361" y="722" type="line"/>
			<point x="-123" y="722" type="line"/>
			<point x="-113" y="792" type="line"/>
			<point x="-439" y="792" type="line"/>
			<point x="-574" y="-163" type="line"/>
			<point x="-248" y="-163" type="line"/>
		</contour>
		<contour>
			<point x="-649" y="-93" type="line"/>
			<point x="-949" y="-93" type="line"/>
			<point x="-834" y="722" type="line"/>
			<point x="-534" y="722" type="line"/>
			<point x="-524" y="792" type="line"/>
			<point x="-912" y="792" type="line"/>
			<point x="-1047" y="-163" type="line"/>
			<point x="-659" y="-163" type="line"/>
		</contour>
	</outline>
</glyph>
<glyph name="bracketleft_numbersign.cLig" format="2">
	<advance width="600"/>
	<outline>
		<contour>
			<point x="-103" y="241" type="line"/>
			<point x="-114" y="167" type="line"/>
			<point x="16" y="167" type="line"/>
			<point x="-23" y="0" type="line"/>
			<point x="55" y="0" type="line"/>
			<point x="94" y="167" type="line"/>
			<point x="231" y="167" type="line"/>
			<point x="192" y="0" type="line"/>
			<point x="268" y="0" type="line"/>
			<point x="307" y="167" type="line"/>
			<point x="420" y="167" type="line"/>
			<point x="431" y="241" type="line"/>
			<point x="325" y="241" type="line"/>
			<point x="375" y="454" type="line"/>
			<point x="485" y="454" type="line"/>
			<point x="495" y="529" type="line"/>
			<point x="393" y="529" type="line"/>
			<point x="429" y="684" type="line"/>
			<point x="352" y="684" type="line"/>
			<point x="316" y="529" type="line"/>
			<point x="179" y="529" type="line"/>
			<point x="215" y="684" type="line"/>
			<point x="139" y="684" type="line"/>
			<point x="102" y="529" type="line"/>
			<point x="-63" y="529" type="line"/>
			<point x="-73" y="454" type="line"/>
			<point x="84" y="454" type="line"/>
			<point x="34" y="241" type="line"/>
		</contour>
		<contour>
			<point x="111" y="241" type="line"/>
			<point x="161" y="454" type="line"/>
			<point x="298" y="454" type="line"/>
			<point x="248" y="241" type="line"/>
		</contour>
		<contour>
			<point x="-166" y="-93" type="line"/>
			<point x="-369" y="-93" type="line"/>
			<point x="-255" y="722" type="line"/>
			<point x="-51" y="722" type="line"/>
			<point x="-41" y="792" type="line"/>
			<point x="-332" y="792" type="line"/>
			<point x="-467" y="-163" type="line"/>
			<point x="-176" y="-163" type="line"/>
		</contour>
	</outline>
</glyph>
<glyph name="bracketright_numbersign.cLig" format="2">
	<advance width="600"/>
	<outline>
		<contour>
			<point x="-528" y="-163" type="line"/>
			<point x="-237" y="-163" type="line"/>
			<point x="-191" y="167" type="line"/>
			<point x="37" y="167" type="line"/>
			<point x="-3" y="0" type="line"/>
			<point x="76" y="0" type="line"/>
			<point x="115" y="167" type="line"/>
			<point x="252" y="167" type="line"/>
			<point x="212" y="0" type="line"/>
			<point x="288" y="0" type="line"/>
			<point x="328" y="167" type="line"/>
			<point x="441" y="167" type="line"/>
			<point x="452" y="241" type="line"/>
			<point x="345" y="241" type="line"/>
			<point x="396" y="454" type="line"/>
			<point x="505" y="454" type="line"/>
			<point x="516" y="529" type="line"/>
			<point x="413" y="529" type="line"/>
			<point x="450" y="684" type="line"/>
			<point x="373" y="684" type="line"/>
			<point x="336" y="529" type="line"/>
			<point x="199" y="529" type="line"/>
			<point x="236" y="684" type="line"/>
			<point x="159" y="684" type="line"/>
			<point x="123" y="529" type="line"/>
			<point x="-139" y="529" type="line"/>
			<point x="-102" y="792" type="line"/>
			<point x="-394" y="792" type="line"/>
			<point x="-404" y="722" type="line"/>
			<point x="-200" y="722" type="line"/>
			<point x="-314" y="-93" type="line"/>
			<point x="-518" y="-93" type="line"/>
		</contour>
		<contour>
			<point x="-180" y="241" type="line"/>
			<point x="-150" y="454" type="line"/>
			<point x="105" y="454" type="line"/>
			<point x="54" y="241" type="line"/>
		</contour>
		<contour>
			<point x="132" y="241" type="line"/>
			<point x="182" y="454" type="line"/>
			<point x="319" y="454" type="line"/>
			<point x="269" y="241" type="line"/>
		</contour>
	</outline>
</glyph>
<glyph name="breve.cap" format="2">
	<advance width="600"/>
	<outline>
		<contour>
			<point x="370" y="740" type="curve" smooth="yes"/>
			<point x="473" y="740"/>
			<point x="519" y="781"/>
			<point x="535" y="884" type="curve"/>
			<point x="463" y="884" type="line"/>
			<point x="454" y="818"/>
			<point x="433" y="793"/>
			<point x="375" y="793" type="curve" smooth="yes"/>
			<point x="318" y="793"/>
			<point x="302" y="827"/>
			<point x="310" y="884" type="curve"/>
			<point x="240" y="884" type="line"/>
			<point x="224" y="783"/>
			<point x="276" y="740"/>
		</contour>
	</outline>
	<anchor name="_top" x="360" y="684"/>
</glyph>
<glyph name="caron.cap" format="2">
	<advance width="600"/>
	<outline>
		<contour>
			<point x="555" y="884" type="line"/>
			<point x="465" y="884" type="line"/>
			<point x="371" y="791" type="line"/>
			<point x="304" y="884" type="line"/>
			<point x="218" y="884" type="line"/>
			<point x="319" y="747" type="line"/>
			<point x="413" y="747" type="line"/>
		</contour>
	</outline>
	<anchor name="_top" x="357" y="684"/>
</glyph>
<glyph name="circumflex.cap" format="2">
	<advance width="600"/>
	<outline>
		<contour>
			<point x="199" y="747" type="line"/>
			<point x="290" y="747" type="line"/>
			<point x="385" y="841" type="line"/>
			<point x="452" y="747" type="line"/>
			<point x="536" y="747" type="line"/>
			<point x="435" y="884" type="line"/>
			<point x="342" y="884" type="line"/>
		</contour>
	</outline>
	<anchor name="_top" x="362" y="684"/>
</glyph>
<glyph name="colon_colon.cLig" format="2">
	<advance width="600"/>
	<outline>
		<contour>
			<point x="-253" y="-12" type="curve" smooth="yes"/>
			<point x="-201" y="-12"/>
			<point x="-178" y="9"/>
			<point x="-172" y="53" type="curve" smooth="yes"/>
			<point x="-165" y="101"/>
			<point x="-186" y="129"/>
			<point x="-243" y="129" type="curve" smooth="yes"/>
			<point x="-296" y="129"/>
			<point x="-319" y="106"/>
			<point x="-325" y="63" type="curve" smooth="yes"/>
			<point x="-332" y="15"/>
			<point x="-312" y="-12"/>
		</contour>
		<contour>
			<point x="-198" y="382" type="curve" smooth="yes"/>
			<point x="-146" y="382"/>
			<point x="-123" y="403"/>
			<point x="-117" y="447" type="curve" smooth="yes"/>
			<point x="-110" y="495"/>
			<point x="-131" y="523"/>
			<point x="-188" y="523" type="curve" smooth="yes"/>
			<point x="-241" y="523"/>
			<point x="-264" y="500"/>
			<point x="-270" y="457" type="curve" smooth="yes"/>
			<point x="-277" y="409"/>
			<point x="-257" y="382"/>
		</contour>
		<contour>
			<point x="187" y="-12" type="curve" smooth="yes"/>
			<point x="239" y="-12"/>
			<point x="262" y="9"/>
			<point x="268" y="53" type="curve" smooth="yes"/>
			<point x="275" y="101"/>
			<point x="254" y="129"/>
			<point x="197" y="129" type="curve" smooth="yes"/>
			<point x="144" y="129"/>
			<point x="121" y="106"/>
			<point x="115" y="63" type="curve" smooth="yes"/>
			<point x="108" y="15"/>
			<point x="128" y="-12"/>
		</contour>
		<contour>
			<point x="242" y="382" type="curve" smooth="yes"/>
			<point x="294" y="382"/>
			<point x="317" y="403"/>
			<point x="323" y="447" type="curve" smooth="yes"/>
			<point x="330" y="495"/>
			<point x="309" y="523"/>
			<point x="252" y="523" type="curve" smooth="yes"/>
			<point x="199" y="523"/>
			<point x="176" y="500"/>
			<point x="170" y="457" type="curve" smooth="yes"/>
			<point x="163" y="409"/>
			<point x="183" y="382"/>
		</contour>
	</outline>
</glyph>
<glyph name="colon_colon_colon.cLig" format="2">
	<advance width="600"/>
	<outline>
		<contour>
			<point x="-789" y="-12" type="curve" smooth="yes"/>
			<point x="-737" y="-12"/>
			<point x="-714" y="9"/>
			<point x="-708" y="53" type="curve" smooth="yes"/>
			<point x="-701" y="101"/>
			<point x="-722" y="129"/>
			<point x="-779" y="129" type="curve" smooth="yes"/>
			<point x="-832" y="129"/>
			<point x="-855" y="106"/>
			<point x="-861" y="63" type="curve" smooth="yes"/>
			<point x="-868" y="15"/>
			<point x="-848" y="-12"/>
		</contour>
		<contour>
			<point x="-734" y="382" type="curve" smooth="yes"/>
			<point x="-682" y="382"/>
			<point x="-659" y="403"/>
			<point x="-653" y="447" type="curve" smooth="yes"/>
			<point x="-646" y="495"/>
			<point x="-667" y="523"/>
			<point x="-724" y="523" type="curve" smooth="yes"/>
			<point x="-777" y="523"/>
			<point x="-800" y="500"/>
			<point x="-806" y="457" type="curve" smooth="yes"/>
			<point x="-813" y="409"/>
			<point x="-793" y="382"/>
		</contour>
		<contour>
			<point x="-333" y="-12" type="curve" smooth="yes"/>
			<point x="-281" y="-12"/>
			<point x="-258" y="9"/>
			<point x="-252" y="53" type="curve" smooth="yes"/>
			<point x="-245" y="101"/>
			<point x="-266" y="129"/>
			<point x="-323" y="129" type="curve" smooth="yes"/>
			<point x="-376" y="129"/>
			<point x="-399" y="106"/>
			<point x="-405" y="63" type="curve" smooth="yes"/>
			<point x="-412" y="15"/>
			<point x="-392" y="-12"/>
		</contour>
		<contour>
			<point x="-278" y="382" type="curve" smooth="yes"/>
			<point x="-226" y="382"/>
			<point x="-203" y="403"/>
			<point x="-197" y="447" type="curve" smooth="yes"/>
			<point x="-190" y="495"/>
			<point x="-211" y="523"/>
			<point x="-268" y="523" type="curve" smooth="yes"/>
			<point x="-321" y="523"/>
			<point x="-344" y="500"/>
			<point x="-350" y="457" type="curve" smooth="yes"/>
			<point x="-357" y="409"/>
			<point x="-337" y="382"/>
		</contour>
		<contour>
			<point x="123" y="-12" type="curve" smooth="yes"/>
			<point x="175" y="-12"/>
			<point x="198" y="9"/>
			<point x="204" y="53" type="curve" smooth="yes"/>
			<point x="211" y="101"/>
			<point x="190" y="129"/>
			<point x="133" y="129" type="curve" smooth="yes"/>
			<point x="80" y="129"/>
			<point x="57" y="106"/>
			<point x="51" y="63" type="curve" smooth="yes"/>
			<point x="44" y="15"/>
			<point x="64" y="-12"/>
		</contour>
		<contour>
			<point x="178" y="382" type="curve" smooth="yes"/>
			<point x="230" y="382"/>
			<point x="253" y="403"/>
			<point x="259" y="447" type="curve" smooth="yes"/>
			<point x="266" y="495"/>
			<point x="245" y="523"/>
			<point x="188" y="523" type="curve" smooth="yes"/>
			<point x="135" y="523"/>
			<point x="112" y="500"/>
			<point x="106" y="457" type="curve" smooth="yes"/>
			<point x="99" y="409"/>
			<point x="119" y="382"/>
		</contour>
	</outline>
</glyph>
<glyph name="colon_equal.cLig" format="2">
	<advance width="600"/>
	<outline>
		<contour>
			<point x="-319" y="376" type="curve" smooth="yes"/>
			<point x="-267" y="376"/>
			<point x="-243" y="397"/>
			<point x="-237" y="440" type="curve" smooth="yes"/>
			<point x="-230" y="489"/>
			<point x="-251" y="516"/>
			<point x="-308" y="516" type="curve" smooth="yes"/>
			<point x="-361" y="516"/>
			<point x="-385" y="494"/>
			<point x="-390" y="451" type="curve" smooth="yes"/>
			<point x="-398" y="402"/>
			<point x="-377" y="376"/>
		</contour>
		<contour>
			<point x="-63" y="370" type="line"/>
			<point x="437" y="370" type="line"/>
			<point x="449" y="452" type="line"/>
			<point x="-51" y="452" type="line"/>
		</contour>
		<contour>
			<point x="-92" y="156" type="line"/>
			<point x="407" y="156" type="line"/>
			<point x="419" y="238" type="line"/>
			<point x="-81" y="238" type="line"/>
		</contour>
		<contour>
			<point x="-358" y="88" type="curve" smooth="yes"/>
			<point x="-306" y="88"/>
			<point x="-283" y="110"/>
			<point x="-277" y="153" type="curve" smooth="yes"/>
			<point x="-270" y="201"/>
			<point x="-291" y="229"/>
			<point x="-348" y="229" type="curve" smooth="yes"/>
			<point x="-401" y="229"/>
			<point x="-424" y="207"/>
			<point x="-430" y="163" type="curve" smooth="yes"/>
			<point x="-438" y="115"/>
			<point x="-417" y="88"/>
		</contour>
	</outline>
</glyph>
<glyph name="colon_equal.med" format="2">
	<advance width="600"/>
	<outline>
		<contour>
			<point x="321" y="376" type="curve" smooth="yes"/>
			<point x="373" y="376"/>
			<point x="397" y="397"/>
			<point x="403" y="440" type="curve" smooth="yes"/>
			<point x="410" y="489"/>
			<point x="389" y="516"/>
			<point x="331" y="516" type="curve" smooth="yes"/>
			<point x="279" y="516"/>
			<point x="255" y="494"/>
			<point x="250" y="451" type="curve" smooth="yes"/>
			<point x="242" y="402"/>
			<point x="263" y="376"/>
		</contour>
		<contour>
			<point x="512" y="381" type="line"/>
			<point x="617" y="381" type="line"/>
			<point x="628" y="463" type="line"/>
			<point x="524" y="463" type="line"/>
		</contour>
		<contour>
			<point x="17" y="381" type="line"/>
			<point x="121" y="381" type="line"/>
			<point x="132" y="463" type="line"/>
			<point x="28" y="463" type="line"/>
		</contour>
		<contour>
			<point x="482" y="168" type="line"/>
			<point x="587" y="168" type="line"/>
			<point x="598" y="250" type="line"/>
			<point x="494" y="250" type="line"/>
		</contour>
		<contour>
			<point x="-13" y="168" type="line"/>
			<point x="91" y="168" type="line"/>
			<point x="102" y="250" type="line"/>
			<point x="-1" y="250" type="line"/>
		</contour>
		<contour>
			<point x="281" y="88" type="curve" smooth="yes"/>
			<point x="333" y="88"/>
			<point x="357" y="110"/>
			<point x="363" y="153" type="curve" smooth="yes"/>
			<point x="370" y="201"/>
			<point x="349" y="229"/>
			<point x="292" y="229" type="curve" smooth="yes"/>
			<point x="239" y="229"/>
			<point x="215" y="207"/>
			<point x="210" y="163" type="curve" smooth="yes"/>
			<point x="202" y="115"/>
			<point x="223" y="88"/>
		</contour>
	</outline>
</glyph>
<glyph name="colon_greater.cLig.x" format="2">
	<advance width="600"/>
	<outline>
		<contour>
			<point x="40" y="635" type="line"/>
			<point x="26" y="543" type="line"/>
			<point x="365" y="318" type="line"/>
			<point x="-37" y="95" type="line"/>
			<point x="-51" y="-6" type="line"/>
			<point x="431" y="263" type="line"/>
			<point x="446" y="365" type="line"/>
		</contour>
		<contour>
			<point x="-271" y="439" type="curve" smooth="yes"/>
			<point x="-219" y="439"/>
			<point x="-196" y="460"/>
			<point x="-189" y="503" type="curve" smooth="yes"/>
			<point x="-182" y="552"/>
			<point x="-203" y="579"/>
			<point x="-261" y="579" type="curve" smooth="yes"/>
			<point x="-314" y="579"/>
			<point x="-337" y="557"/>
			<point x="-342" y="514" type="curve" smooth="yes"/>
			<point x="-350" y="465"/>
			<point x="-329" y="439"/>
		</contour>
		<contour>
			<point x="-326" y="45" type="curve" smooth="yes"/>
			<point x="-274" y="45"/>
			<point x="-250" y="66"/>
			<point x="-244" y="109" type="curve" smooth="yes"/>
			<point x="-237" y="158"/>
			<point x="-258" y="185"/>
			<point x="-316" y="185" type="curve" smooth="yes"/>
			<point x="-368" y="185"/>
			<point x="-392" y="163"/>
			<point x="-397" y="120" type="curve" smooth="yes"/>
			<point x="-405" y="71"/>
			<point x="-384" y="45"/>
		</contour>
	</outline>
</glyph>
<glyph name="cordinal" format="2">
	<advance width="600"/>
	<outline>
		<contour>
			<point x="376" y="225" type="curve" smooth="yes"/>
			<point x="419" y="225"/>
			<point x="453" y="233"/>
			<point x="478" y="243" type="curve"/>
			<point x="485" y="307" type="line"/>
			<point x="464" y="298"/>
			<point x="429" y="288"/>
			<point x="389" y="288" type="curve" smooth="yes"/>
			<point x="280" y="288"/>
			<point x="211" y="356"/>
			<point x="228" y="477" type="curve" smooth="yes"/>
			<point x="243" y="579"/>
			<point x="310" y="631"/>
			<point x="403" y="631" type="curve" smooth="yes"/>
			<point x="453" y="631"/>
			<point x="499" y="618"/>
			<point x="527" y="602" type="curve"/>
			<point x="536" y="667" type="line"/>
			<point x="509" y="682"/>
			<point x="457" y="695"/>
			<point x="398" y="695" type="curve" smooth="yes"/>
			<point x="261" y="695"/>
			<point x="167" y="615"/>
			<point x="148" y="484" type="curve" smooth="yes"/>
			<point x="124" y="319"/>
			<point x="226" y="225"/>
		</contour>
	</outline>
</glyph>
<glyph name="dollar_greater.cLig" format="2">
	<advance width="600"/>
	<outline>
		<contour>
			<point x="-427" y="-93" type="line"/>
			<point x="-358" y="-93" type="line"/>
			<point x="-332" y="-9" type="line"/>
			<point x="-317" y="-11"/>
			<point x="-301" y="-12"/>
			<point x="-284" y="-12" type="curve" smooth="yes"/>
			<point x="-137" y="-12"/>
			<point x="-32" y="71"/>
			<point x="-32" y="209" type="curve" smooth="yes"/>
			<point x="-32" y="320"/>
			<point x="-105" y="352"/>
			<point x="-220" y="380" type="curve"/>
			<point x="-150" y="612" type="line"/>
			<point x="-76" y="598"/>
			<point x="-7" y="567"/>
			<point x="76" y="521" type="curve" smooth="yes"/>
			<point x="448" y="318" type="line"/>
			<point x="73" y="140" type="line"/>
			<point x="60" y="43" type="line"/>
			<point x="511" y="263" type="line"/>
			<point x="525" y="365" type="line"/>
			<point x="114" y="592" type="line" smooth="yes"/>
			<point x="24" y="640"/>
			<point x="-46" y="672"/>
			<point x="-122" y="686" type="curve"/>
			<point x="-96" y="774" type="line"/>
			<point x="-166" y="774" type="line"/>
			<point x="-190" y="695" type="line"/>
			<point x="-202" y="695"/>
			<point x="-213" y="696"/>
			<point x="-226" y="696" type="curve" smooth="yes"/>
			<point x="-389" y="696"/>
			<point x="-482" y="611"/>
			<point x="-482" y="482" type="curve" smooth="yes"/>
			<point x="-482" y="361"/>
			<point x="-398" y="328"/>
			<point x="-302" y="305" type="curve"/>
			<point x="-370" y="79" type="line"/>
			<point x="-424" y="93"/>
			<point x="-476" y="121"/>
			<point x="-518" y="163" type="curve"/>
			<point x="-531" y="74" type="line"/>
			<point x="-497" y="42"/>
			<point x="-451" y="18"/>
			<point x="-399" y="4" type="curve"/>
		</contour>
		<contour>
			<point x="-388" y="495" type="curve" smooth="yes"/>
			<point x="-388" y="573"/>
			<point x="-332" y="619"/>
			<point x="-232" y="619" type="curve" smooth="yes"/>
			<point x="-208" y="619" type="line"/>
			<point x="-276" y="393" type="line"/>
			<point x="-348" y="412"/>
			<point x="-388" y="431"/>
		</contour>
		<contour>
			<point x="-126" y="193" type="curve" smooth="yes"/>
			<point x="-126" y="113"/>
			<point x="-190" y="67"/>
			<point x="-285" y="67" type="curve" smooth="yes"/>
			<point x="-295" y="67"/>
			<point x="-304" y="68"/>
			<point x="-313" y="69" type="curve"/>
			<point x="-246" y="293" type="line"/>
			<point x="-172" y="277"/>
			<point x="-126" y="261"/>
		</contour>
	</outline>
</glyph>
<glyph name="eight.den" format="2">
	<advance width="600"/>
	<outline>
		<contour>
			<point x="271" y="-8" type="curve" smooth="yes"/>
			<point x="378" y="-8"/>
			<point x="437" y="42"/>
			<point x="437" y="119" type="curve" smooth="yes"/>
			<point x="437" y="169"/>
			<point x="406" y="197"/>
			<point x="359" y="208" type="curve"/>
			<point x="421" y="221"/>
			<point x="458" y="255"/>
			<point x="458" y="318" type="curve" smooth="yes"/>
			<point x="458" y="383"/>
			<point x="403" y="418"/>
			<point x="312" y="418" type="curve" smooth="yes"/>
			<point x="217" y="418"/>
			<point x="158" y="376"/>
			<point x="158" y="300" type="curve" smooth="yes"/>
			<point x="158" y="252"/>
			<point x="185" y="224"/>
			<point x="230" y="213" type="curve"/>
			<point x="160" y="204"/>
			<point x="120" y="163"/>
			<point x="120" y="100" type="curve" smooth="yes"/>
			<point x="120" y="24"/>
			<point x="186" y="-8"/>
		</contour>
		<contour>
			<point x="303" y="235" type="curve" smooth="yes"/>
			<point x="255" y="235"/>
			<point x="224" y="258"/>
			<point x="224" y="296" type="curve" smooth="yes"/>
			<point x="224" y="344"/>
			<point x="253" y="368"/>
			<point x="311" y="368" type="curve" smooth="yes"/>
			<point x="358" y="368"/>
			<point x="392" y="350"/>
			<point x="392" y="309" type="curve" smooth="yes"/>
			<point x="392" y="261"/>
			<point x="359" y="235"/>
		</contour>
		<contour>
			<point x="274" y="43" type="curve" smooth="yes"/>
			<point x="227" y="43"/>
			<point x="189" y="63"/>
			<point x="189" y="109" type="curve" smooth="yes"/>
			<point x="189" y="158"/>
			<point x="221" y="183"/>
			<point x="283" y="183" type="curve" smooth="yes"/>
			<point x="338" y="183"/>
			<point x="368" y="164"/>
			<point x="368" y="123" type="curve" smooth="yes"/>
			<point x="368" y="74"/>
			<point x="334" y="43"/>
		</contour>
	</outline>
</glyph>
<glyph name="eight.numr" format="2">
	<advance width="600"/>
	<outline>
		<contour>
			<point x="321" y="366" type="curve" smooth="yes"/>
			<point x="410" y="366"/>
			<point x="463" y="408"/>
			<point x="463" y="474" type="curve" smooth="yes"/>
			<point x="463" y="515"/>
			<point x="436" y="538"/>
			<point x="397" y="547" type="curve"/>
			<point x="450" y="557"/>
			<point x="483" y="588"/>
			<point x="483" y="640" type="curve" smooth="yes"/>
			<point x="483" y="695"/>
			<point x="435" y="724"/>
			<point x="360" y="724" type="curve" smooth="yes"/>
			<point x="279" y="724"/>
			<point x="227" y="688"/>
			<point x="227" y="623" type="curve" smooth="yes"/>
			<point x="227" y="586"/>
			<point x="252" y="560"/>
			<point x="285" y="550" type="curve"/>
			<point x="231" y="543"/>
			<point x="194" y="507"/>
			<point x="194" y="454" type="curve" smooth="yes"/>
			<point x="194" y="390"/>
			<point x="250" y="366"/>
		</contour>
		<contour>
			<point x="350" y="572" type="curve" smooth="yes"/>
			<point x="309" y="572"/>
			<point x="286" y="592"/>
			<point x="286" y="622" type="curve" smooth="yes"/>
			<point x="286" y="662"/>
			<point x="312" y="679"/>
			<point x="358" y="679" type="curve" smooth="yes"/>
			<point x="396" y="679"/>
			<point x="424" y="668"/>
			<point x="424" y="633" type="curve" smooth="yes"/>
			<point x="424" y="595"/>
			<point x="395" y="572"/>
		</contour>
		<contour>
			<point x="323" y="411" type="curve" smooth="yes"/>
			<point x="285" y="411"/>
			<point x="255" y="425"/>
			<point x="255" y="462" type="curve" smooth="yes"/>
			<point x="255" y="503"/>
			<point x="282" y="525"/>
			<point x="333" y="525" type="curve" smooth="yes"/>
			<point x="378" y="525"/>
			<point x="402" y="508"/>
			<point x="402" y="476" type="curve" smooth="yes"/>
			<point x="402" y="435"/>
			<point x="374" y="411"/>
		</contour>
	</outline>
</glyph>
<glyph name="equal.den" format="2">
	<advance width="600"/>
	<outline>
		<contour>
			<point x="151" y="282" type="line"/>
			<point x="143" y="227" type="line"/>
			<point x="447" y="227" type="line"/>
			<point x="455" y="282" type="line"/>
		</contour>
		<contour>
			<point x="133" y="150" type="line"/>
			<point x="125" y="95" type="line"/>
			<point x="428" y="95" type="line"/>
			<point x="436" y="150" type="line"/>
		</contour>
	</outline>
</glyph>
<glyph name="equal.fina" format="2">
	<advance width="600"/>
	<outline>
		<contour>
			<point x="17" y="380" type="line"/>
			<point x="446" y="380" type="line"/>
			<point x="457" y="462" type="line"/>
			<point x="29" y="462" type="line"/>
		</contour>
		<contour>
			<point x="-13" y="167" type="line"/>
			<point x="416" y="167" type="line"/>
			<point x="427" y="249" type="line"/>
			<point x="-1" y="249" type="line"/>
		</contour>
	</outline>
</glyph>
<glyph name="equal_colon_equal.rem" format="2">
	<advance width="600"/>
	<outline>
		<contour>
			<point x="-279" y="376" type="curve" smooth="yes"/>
			<point x="-227" y="376"/>
			<point x="-204" y="397"/>
			<point x="-198" y="440" type="curve" smooth="yes"/>
			<point x="-191" y="489"/>
			<point x="-212" y="516"/>
			<point x="-269" y="516" type="curve" smooth="yes"/>
			<point x="-322" y="516"/>
			<point x="-345" y="494"/>
			<point x="-351" y="451" type="curve" smooth="yes"/>
			<point x="-358" y="402"/>
			<point x="-338" y="376"/>
		</contour>
		<contour>
			<point x="-41" y="370" type="line"/>
			<point x="443" y="370" type="line"/>
			<point x="455" y="452" type="line"/>
			<point x="-29" y="452" type="line"/>
		</contour>
		<contour>
			<point x="-1014" y="370" type="line"/>
			<point x="-530" y="370" type="line"/>
			<point x="-518" y="452" type="line"/>
			<point x="-1002" y="452" type="line"/>
		</contour>
		<contour>
			<point x="-1043" y="156" type="line"/>
			<point x="-559" y="156" type="line"/>
			<point x="-548" y="238" type="line"/>
			<point x="-1032" y="238" type="line"/>
		</contour>
		<contour>
			<point x="-71" y="156" type="line"/>
			<point x="413" y="156" type="line"/>
			<point x="425" y="238" type="line"/>
			<point x="-59" y="238" type="line"/>
		</contour>
		<contour>
			<point x="-319" y="88" type="curve" smooth="yes"/>
			<point x="-267" y="88"/>
			<point x="-244" y="110"/>
			<point x="-238" y="153" type="curve" smooth="yes"/>
			<point x="-231" y="201"/>
			<point x="-251" y="229"/>
			<point x="-309" y="229" type="curve" smooth="yes"/>
			<point x="-362" y="229"/>
			<point x="-385" y="207"/>
			<point x="-391" y="163" type="curve" smooth="yes"/>
			<point x="-398" y="115"/>
			<point x="-377" y="88"/>
		</contour>
	</outline>
</glyph>
<glyph name="equal_equal_equal.cLig" format="2">
	<advance width="600"/>
	<outline>
		<contour>
			<point x="-1019" y="478" type="line"/>
			<point x="481" y="478" type="line"/>
			<point x="491" y="556" type="line"/>
			<point x="-1008" y="556" type="line"/>
		</contour>
		<contour>
			<point x="-1048" y="275" type="line"/>
			<point x="451" y="275" type="line"/>
			<point x="463" y="352" type="line"/>
			<point x="-1037" y="352" type="line"/>
		</contour>
		<contour>
			<point x="-1077" y="71" type="line"/>
			<point x="423" y="71" type="line"/>
			<point x="434" y="149" type="line"/>
			<point x="-1066" y="149" type="line"/>
		</contour>
	</outline>
</glyph>
<glyph name="equal_exclam_equal.rem" format="2">
	<advance width="600"/>
	<outline>
		<contour>
			<point x="-344" y="203" type="line"/>
			<point x="-276" y="203" type="line"/>
			<point x="-211" y="541" type="line"/>
			<point x="-190" y="684" type="line"/>
			<point x="-294" y="684" type="line"/>
			<point x="-314" y="542" type="line"/>
		</contour>
		<contour>
			<point x="-41" y="370" type="line"/>
			<point x="443" y="370" type="line"/>
			<point x="455" y="452" type="line"/>
			<point x="-29" y="452" type="line"/>
		</contour>
		<contour>
			<point x="-1014" y="370" type="line"/>
			<point x="-530" y="370" type="line"/>
			<point x="-518" y="452" type="line"/>
			<point x="-1002" y="452" type="line"/>
		</contour>
		<contour>
			<point x="-1043" y="156" type="line"/>
			<point x="-559" y="156" type="line"/>
			<point x="-548" y="238" type="line"/>
			<point x="-1032" y="238" type="line"/>
		</contour>
		<contour>
			<point x="-71" y="156" type="line"/>
			<point x="413" y="156" type="line"/>
			<point x="425" y="238" type="line"/>
			<point x="-59" y="238" type="line"/>
		</contour>
		<contour>
			<point x="-334" y="-12" type="curve" smooth="yes"/>
			<point x="-285" y="-12"/>
			<point x="-265" y="7"/>
			<point x="-260" y="47" type="curve" smooth="yes"/>
			<point x="-254" y="90"/>
			<point x="-274" y="115"/>
			<point x="-326" y="115" type="curve" smooth="yes"/>
			<point x="-373" y="115"/>
			<point x="-394" y="95"/>
			<point x="-399" y="56" type="curve" smooth="yes"/>
			<point x="-405" y="12"/>
			<point x="-385" y="-12"/>
		</contour>
	</outline>
</glyph>
<glyph name="equal_greater.rem" format="2">
	<advance width="600"/>
	<outline>
		<contour>
			<point x="-441" y="167" type="line"/>
			<point x="224" y="167" type="line"/>
			<point x="55" y="0" type="line"/>
			<point x="168" y="0" type="line"/>
			<point x="484" y="312" type="line"/>
			<point x="249" y="629" type="line"/>
			<point x="146" y="629" type="line"/>
			<point x="270" y="462" type="line"/>
			<point x="-400" y="462" type="line"/>
			<point x="-411" y="380" type="line"/>
			<point x="330" y="380" type="line"/>
			<point x="377" y="317" type="line"/>
			<point x="307" y="249" type="line"/>
			<point x="-430" y="249" type="line"/>
		</contour>
	</outline>
</glyph>
<glyph name="equal_greater_greater.rem" format="2">
	<advance width="600"/>
	<outline>
		<contour>
			<point x="40" y="0" type="line"/>
			<point x="155" y="0" type="line"/>
			<point x="470" y="313" type="line"/>
			<point x="232" y="629" type="line"/>
			<point x="126" y="629" type="line"/>
			<point x="361" y="318" type="line"/>
		</contour>
		<contour>
			<point x="-1041" y="167" type="line"/>
			<point x="-167" y="167" type="line"/>
			<point x="-337" y="0" type="line"/>
			<point x="-224" y="0" type="line"/>
			<point x="93" y="312" type="line"/>
			<point x="-143" y="629" type="line"/>
			<point x="-246" y="629" type="line"/>
			<point x="-122" y="462" type="line"/>
			<point x="-1000" y="462" type="line"/>
			<point x="-1011" y="380" type="line"/>
			<point x="-62" y="380" type="line"/>
			<point x="-15" y="317" type="line"/>
			<point x="-84" y="249" type="line"/>
			<point x="-1030" y="249" type="line"/>
		</contour>
	</outline>
</glyph>
<glyph name="equal_less_less.rem" format="2">
	<advance width="600"/>
	<outline>
		<contour>
			<point x="550" y="629" type="line"/>
			<point x="435" y="629" type="line"/>
			<point x="118" y="316" type="line"/>
			<point x="356" y="0" type="line"/>
			<point x="462" y="0" type="line"/>
			<point x="225" y="310" type="line"/>
		</contour>
		<contour>
			<point x="171" y="629" type="line"/>
			<point x="57" y="629" type="line"/>
			<point x="-110" y="462" type="line"/>
			<point x="-1000" y="462" type="line"/>
			<point x="-1011" y="380" type="line"/>
			<point x="-76" y="380" type="line"/>
		</contour>
		<contour>
			<point x="-94" y="249" type="line"/>
			<point x="-1030" y="249" type="line"/>
			<point x="-1041" y="167" type="line"/>
			<point x="-139" y="167" type="line"/>
			<point x="-17" y="0" type="line"/>
			<point x="86" y="0" type="line"/>
		</contour>
	</outline>
</glyph>
<glyph name="equal_slash_equal.rem" format="2">
	<advance width="600"/>
	<outline>
		<contour>
			<point x="-1042" y="153" type="line"/>
			<point x="-449" y="153" type="line"/>
			<point x="-623" y="-75" type="line"/>
			<point x="-530" y="-75" type="line"/>
			<point x="-356" y="153" type="line"/>
			<point x="413" y="153" type="line"/>
			<point x="424" y="234" type="line"/>
			<point x="-293" y="234" type="line"/>
			<point x="-192" y="367" type="line"/>
			<point x="442" y="367" type="line"/>
			<point x="453" y="448" type="line"/>
			<point x="-130" y="448" type="line"/>
			<point x="24" y="649" type="line"/>
			<point x="-69" y="649" type="line"/>
			<point x="-223" y="448" type="line"/>
			<point x="-1001" y="448" type="line"/>
			<point x="-1013" y="367" type="line"/>
			<point x="-285" y="367" type="line"/>
			<point x="-387" y="234" type="line"/>
			<point x="-1031" y="234" type="line"/>
		</contour>
	</outline>
</glyph>
<glyph name="exclam_equal.cLig" format="2">
	<advance width="600"/>
	<outline>
		<contour>
			<point x="-443" y="153" type="line"/>
			<point x="-147" y="153" type="line"/>
			<point x="-321" y="-75" type="line"/>
			<point x="-228" y="-75" type="line"/>
			<point x="-54" y="153" type="line"/>
			<point x="413" y="153" type="line"/>
			<point x="424" y="234" type="line"/>
			<point x="8" y="234" type="line"/>
			<point x="110" y="367" type="line"/>
			<point x="442" y="367" type="line"/>
			<point x="453" y="448" type="line"/>
			<point x="172" y="448" type="line"/>
			<point x="326" y="649" type="line"/>
			<point x="233" y="649" type="line"/>
			<point x="79" y="448" type="line"/>
			<point x="-402" y="448" type="line"/>
			<point x="-414" y="367" type="line"/>
			<point x="17" y="367" type="line"/>
			<point x="-85" y="234" type="line"/>
			<point x="-432" y="234" type="line"/>
		</contour>
	</outline>
</glyph>
<glyph name="exclam_equal.med" format="2">
	<advance width="600"/>
	<outline>
		<contour>
			<point x="257" y="203" type="line"/>
			<point x="324" y="203" type="line"/>
			<point x="389" y="541" type="line"/>
			<point x="410" y="684" type="line"/>
			<point x="306" y="684" type="line"/>
			<point x="287" y="542" type="line"/>
		</contour>
		<contour>
			<point x="512" y="381" type="line"/>
			<point x="616" y="381" type="line"/>
			<point x="628" y="463" type="line"/>
			<point x="523" y="463" type="line"/>
		</contour>
		<contour>
			<point x="17" y="381" type="line"/>
			<point x="121" y="381" type="line"/>
			<point x="132" y="463" type="line"/>
			<point x="28" y="463" type="line"/>
		</contour>
		<contour>
			<point x="482" y="168" type="line"/>
			<point x="586" y="168" type="line"/>
			<point x="598" y="250" type="line"/>
			<point x="494" y="250" type="line"/>
		</contour>
		<contour>
			<point x="-14" y="168" type="line"/>
			<point x="91" y="168" type="line"/>
			<point x="102" y="250" type="line"/>
			<point x="-2" y="250" type="line"/>
		</contour>
		<contour>
			<point x="267" y="-12" type="curve" smooth="yes"/>
			<point x="315" y="-12"/>
			<point x="335" y="7"/>
			<point x="340" y="47" type="curve" smooth="yes"/>
			<point x="346" y="90"/>
			<point x="326" y="115"/>
			<point x="274" y="115" type="curve" smooth="yes"/>
			<point x="227" y="115"/>
			<point x="206" y="95"/>
			<point x="201" y="56" type="curve" smooth="yes"/>
			<point x="195" y="12"/>
			<point x="215" y="-12"/>
		</contour>
	</outline>
</glyph>
<glyph name="exclam_exclam_exclam.rem" format="2">
	<advance width="600"/>
	<outline>
		<contour>
			<point x="-830" y="203" type="line"/>
			<point x="-763" y="203" type="line"/>
			<point x="-698" y="541" type="line"/>
			<point x="-677" y="684" type="line"/>
			<point x="-781" y="684" type="line"/>
			<point x="-800" y="542" type="line"/>
		</contour>
		<contour>
			<point x="-820" y="-12" type="curve" smooth="yes"/>
			<point x="-772" y="-12"/>
			<point x="-752" y="7"/>
			<point x="-747" y="47" type="curve" smooth="yes"/>
			<point x="-741" y="90"/>
			<point x="-761" y="115"/>
			<point x="-813" y="115" type="curve" smooth="yes"/>
			<point x="-860" y="115"/>
			<point x="-881" y="95"/>
			<point x="-886" y="56" type="curve" smooth="yes"/>
			<point x="-892" y="12"/>
			<point x="-872" y="-12"/>
		</contour>
		<contour>
			<point x="-343" y="203" type="line"/>
			<point x="-276" y="203" type="line"/>
			<point x="-211" y="541" type="line"/>
			<point x="-190" y="684" type="line"/>
			<point x="-294" y="684" type="line"/>
			<point x="-313" y="542" type="line"/>
		</contour>
		<contour>
			<point x="-333" y="-12" type="curve" smooth="yes"/>
			<point x="-285" y="-12"/>
			<point x="-265" y="7"/>
			<point x="-260" y="47" type="curve" smooth="yes"/>
			<point x="-254" y="90"/>
			<point x="-274" y="115"/>
			<point x="-326" y="115" type="curve" smooth="yes"/>
			<point x="-373" y="115"/>
			<point x="-394" y="95"/>
			<point x="-399" y="56" type="curve" smooth="yes"/>
			<point x="-405" y="12"/>
			<point x="-385" y="-12"/>
		</contour>
		<contour>
			<point x="144" y="203" type="line"/>
			<point x="211" y="203" type="line"/>
			<point x="276" y="541" type="line"/>
			<point x="297" y="684" type="line"/>
			<point x="193" y="684" type="line"/>
			<point x="174" y="542" type="line"/>
		</contour>
		<contour>
			<point x="154" y="-12" type="curve" smooth="yes"/>
			<point x="202" y="-12"/>
			<point x="222" y="7"/>
			<point x="227" y="47" type="curve" smooth="yes"/>
			<point x="233" y="90"/>
			<point x="213" y="115"/>
			<point x="161" y="115" type="curve" smooth="yes"/>
			<point x="114" y="115"/>
			<point x="93" y="95"/>
			<point x="88" y="56" type="curve" smooth="yes"/>
			<point x="82" y="12"/>
			<point x="102" y="-12"/>
		</contour>
	</outline>
</glyph>
<glyph name="exclam_exclam_period.cLig" format="2">
	<advance width="600"/>
	<outline>
		<contour>
			<point x="-830" y="203" type="line"/>
			<point x="-763" y="203" type="line"/>
			<point x="-698" y="541" type="line"/>
			<point x="-677" y="684" type="line"/>
			<point x="-781" y="684" type="line"/>
			<point x="-800" y="542" type="line"/>
		</contour>
		<contour>
			<point x="-820" y="-12" type="curve" smooth="yes"/>
			<point x="-772" y="-12"/>
			<point x="-752" y="7"/>
			<point x="-747" y="47" type="curve" smooth="yes"/>
			<point x="-741" y="90"/>
			<point x="-761" y="115"/>
			<point x="-813" y="115" type="curve" smooth="yes"/>
			<point x="-860" y="115"/>
			<point x="-881" y="95"/>
			<point x="-886" y="56" type="curve" smooth="yes"/>
			<point x="-892" y="12"/>
			<point x="-872" y="-12"/>
		</contour>
		<contour>
			<point x="-342" y="203" type="line"/>
			<point x="-275" y="203" type="line"/>
			<point x="-210" y="541" type="line"/>
			<point x="-189" y="684" type="line"/>
			<point x="-293" y="684" type="line"/>
			<point x="-312" y="542" type="line"/>
		</contour>
		<contour>
			<point x="-332" y="-12" type="curve" smooth="yes"/>
			<point x="-284" y="-12"/>
			<point x="-264" y="7"/>
			<point x="-259" y="47" type="curve" smooth="yes"/>
			<point x="-253" y="90"/>
			<point x="-273" y="115"/>
			<point x="-325" y="115" type="curve" smooth="yes"/>
			<point x="-372" y="115"/>
			<point x="-393" y="95"/>
			<point x="-398" y="56" type="curve" smooth="yes"/>
			<point x="-404" y="12"/>
			<point x="-384" y="-12"/>
		</contour>
		<contour>
			<point x="157" y="-12" type="curve" smooth="yes"/>
			<point x="209" y="-12"/>
			<point x="232" y="9"/>
			<point x="238" y="53" type="curve" smooth="yes"/>
			<point x="245" y="101"/>
			<point x="224" y="129"/>
			<point x="167" y="129" type="curve" smooth="yes"/>
			<point x="114" y="129"/>
			<point x="91" y="106"/>
			<point x="85" y="63" type="curve" smooth="yes"/>
			<point x="78" y="15"/>
			<point x="98" y="-12"/>
		</contour>
	</outline>
</glyph>
<glyph name="four.numr" format="2">
	<advance width="600"/>
	<outline>
		<contour>
			<point x="350" y="372" type="line"/>
			<point x="409" y="372" type="line"/>
			<point x="419" y="439" type="line"/>
			<point x="457" y="439" type="line"/>
			<point x="464" y="488" type="line"/>
			<point x="425" y="488" type="line"/>
			<point x="458" y="718" type="line"/>
			<point x="368" y="718" type="line"/>
			<point x="192" y="488" type="line"/>
			<point x="185" y="439" type="line"/>
			<point x="360" y="439" type="line"/>
		</contour>
		<contour>
			<point x="252" y="488" type="line"/>
			<point x="392" y="673" type="line"/>
			<point x="366" y="488" type="line"/>
		</contour>
	</outline>
</glyph>
<glyph name="g.ss01" format="2">
	<advance width="600"/>
	<outline>
		<contour>
			<point x="225" y="-204" type="curve" smooth="yes"/>
			<point x="357" y="-204"/>
			<point x="454" y="-139"/>
			<point x="476" y="22" type="curve" smooth="yes"/>
			<point x="547" y="523" type="line"/>
			<point x="377" y="523" type="line" smooth="yes"/>
			<point x="202" y="523"/>
			<point x="91" y="432"/>
			<point x="68" y="272" type="curve" smooth="yes"/>
			<point x="66" y="258" type="line" smooth="yes"/>
			<point x="43" y="102"/>
			<point x="108" y="6"/>
			<point x="230" y="6" type="curve" smooth="yes"/>
			<point x="297" y="6"/>
			<point x="358" y="39"/>
			<point x="398" y="119" type="curve"/>
			<point x="386" y="37" type="line" smooth="yes"/>
			<point x="371" y="-77"/>
			<point x="320" y="-128"/>
			<point x="222" y="-128" type="curve" smooth="yes"/>
			<point x="152" y="-128"/>
			<point x="95" y="-99"/>
			<point x="54" y="-65" type="curve"/>
			<point x="43" y="-145" type="line"/>
			<point x="78" y="-173"/>
			<point x="141" y="-204"/>
		</contour>
		<contour>
			<point x="270" y="81" type="curve" smooth="yes"/>
			<point x="187" y="81"/>
			<point x="145" y="149"/>
			<point x="162" y="262" type="curve" smooth="yes"/>
			<point x="163" y="269" type="line" smooth="yes"/>
			<point x="180" y="391"/>
			<point x="251" y="448"/>
			<point x="368" y="448" type="curve" smooth="yes"/>
			<point x="444" y="448" type="line"/>
			<point x="415" y="238" type="line" smooth="yes"/>
			<point x="401" y="148"/>
			<point x="350" y="81"/>
		</contour>
	</outline>
	<anchor name="top" x="361" y="523"/>
</glyph>
<glyph name="grave.cap" format="2">
	<advance width="600"/>
	<outline>
		<contour>
			<point x="449" y="747" type="line"/>
			<point x="407" y="884" type="line"/>
			<point x="304" y="884" type="line"/>
			<point x="378" y="747" type="line"/>
		</contour>
	</outline>
	<anchor name="_top" x="409" y="684"/>
</glyph>
<glyph name="greater_equal.fina" format="2">
	<advance width="600"/>
	<outline>
		<contour>
			<point x="-13" y="167" type="line"/>
			<point x="274" y="167" type="line"/>
			<point x="105" y="0" type="line"/>
			<point x="218" y="0" type="line"/>
			<point x="534" y="312" type="line"/>
			<point x="299" y="629" type="line"/>
			<point x="196" y="629" type="line"/>
			<point x="320" y="462" type="line"/>
			<point x="29" y="462" type="line"/>
			<point x="17" y="380" type="line"/>
			<point x="380" y="380" type="line"/>
			<point x="427" y="317" type="line"/>
			<point x="357" y="249" type="line"/>
			<point x="-2" y="249" type="line"/>
		</contour>
	</outline>
</glyph>
<glyph name="greater_equal.init" format="2">
	<advance width="600"/>
	<outline>
		<contour>
			<point x="283" y="380" type="line"/>
			<point x="616" y="380" type="line"/>
			<point x="628" y="462" type="line"/>
			<point x="328" y="462" type="line"/>
			<point x="206" y="629" type="line"/>
			<point x="103" y="629" type="line"/>
		</contour>
		<contour>
			<point x="18" y="0" type="line"/>
			<point x="131" y="0" type="line"/>
			<point x="299" y="167" type="line"/>
			<point x="586" y="167" type="line"/>
			<point x="598" y="249" type="line"/>
			<point x="265" y="249" type="line"/>
		</contour>
	</outline>
</glyph>
<glyph name="greater_equal.med" format="2">
	<advance width="600"/>
	<outline>
		<contour>
			<point x="88" y="0" type="line"/>
			<point x="204" y="0" type="line"/>
			<point x="373" y="167" type="line"/>
			<point x="586" y="167" type="line"/>
			<point x="598" y="249" type="line"/>
			<point x="455" y="249" type="line"/>
			<point x="520" y="313" type="line"/>
			<point x="469" y="380" type="line"/>
			<point x="616" y="380" type="line"/>
			<point x="628" y="462" type="line"/>
			<point x="407" y="462" type="line"/>
			<point x="281" y="629" type="line"/>
			<point x="174" y="629" type="line"/>
			<point x="301" y="462" type="line"/>
			<point x="29" y="462" type="line"/>
			<point x="17" y="380" type="line"/>
			<point x="363" y="380" type="line"/>
			<point x="410" y="318" type="line"/>
			<point x="340" y="249" type="line"/>
			<point x="-2" y="249" type="line"/>
			<point x="-13" y="167" type="line"/>
			<point x="257" y="167" type="line"/>
		</contour>
	</outline>
</glyph>
<glyph name="greater_equal_greater.rem" format="2">
	<advance width="600"/>
	<outline>
		<contour>
			<point x="-1106" y="0" type="line"/>
			<point x="-993" y="0" type="line"/>
			<point x="-825" y="167" type="line"/>
			<point x="232" y="167" type="line"/>
			<point x="63" y="0" type="line"/>
			<point x="176" y="0" type="line"/>
			<point x="492" y="312" type="line"/>
			<point x="257" y="629" type="line"/>
			<point x="154" y="629" type="line"/>
			<point x="278" y="462" type="line"/>
			<point x="-796" y="462" type="line"/>
			<point x="-918" y="629" type="line"/>
			<point x="-1021" y="629" type="line"/>
			<point x="-841" y="380" type="line"/>
			<point x="338" y="380" type="line"/>
			<point x="385" y="317" type="line"/>
			<point x="315" y="249" type="line"/>
			<point x="-859" y="249" type="line"/>
		</contour>
	</outline>
</glyph>
<glyph name="greater_greater_equal.fina" format="2">
	<advance width="600"/>
	<outline>
		<contour>
			<point x="55" y="0" type="line"/>
			<point x="170" y="0" type="line"/>
			<point x="485" y="313" type="line"/>
			<point x="247" y="629" type="line"/>
			<point x="141" y="629" type="line"/>
			<point x="376" y="318" type="line"/>
		</contour>
		<contour>
			<point x="-613" y="167" type="line"/>
			<point x="-152" y="167" type="line"/>
			<point x="-322" y="0" type="line"/>
			<point x="-209" y="0" type="line"/>
			<point x="108" y="312" type="line"/>
			<point x="-128" y="629" type="line"/>
			<point x="-231" y="629" type="line"/>
			<point x="-107" y="462" type="line"/>
			<point x="-571" y="462" type="line"/>
			<point x="-583" y="380" type="line"/>
			<point x="-47" y="380" type="line"/>
			<point x="0" y="317" type="line"/>
			<point x="-69" y="249" type="line"/>
			<point x="-601" y="249" type="line"/>
		</contour>
	</outline>
</glyph>
<glyph name="greater_greater_greater.cLig" format="2">
	<advance width="600"/>
	<outline>
		<contour>
			<point x="-1137" y="40" type="line"/>
			<point x="-655" y="253" type="line"/>
			<point x="-641" y="355" type="line"/>
			<point x="-1062" y="569" type="line"/>
			<point x="-1075" y="480" type="line"/>
			<point x="-726" y="307" type="line"/>
			<point x="-1123" y="137" type="line"/>
		</contour>
		<contour>
			<point x="-553" y="40" type="line"/>
			<point x="-71" y="253" type="line"/>
			<point x="-57" y="355" type="line"/>
			<point x="-478" y="569" type="line"/>
			<point x="-491" y="480" type="line"/>
			<point x="-142" y="307" type="line"/>
			<point x="-539" y="137" type="line"/>
		</contour>
		<contour>
			<point x="30" y="40" type="line"/>
			<point x="512" y="253" type="line"/>
			<point x="526" y="355" type="line"/>
			<point x="105" y="569" type="line"/>
			<point x="92" y="480" type="line"/>
			<point x="441" y="307" type="line"/>
			<point x="44" y="137" type="line"/>
		</contour>
	</outline>
</glyph>
<glyph name="greater_hyphen.fina" format="2">
	<advance width="600"/>
	<outline>
		<contour>
			<point x="183" y="629" type="line"/>
			<point x="390" y="356" type="line"/>
			<point x="13" y="357" type="line"/>
			<point x="1" y="272" type="line"/>
			<point x="371" y="271" type="line"/>
			<point x="90" y="0" type="line"/>
			<point x="204" y="0" type="line"/>
			<point x="525" y="314" type="line"/>
			<point x="288" y="629" type="line"/>
		</contour>
	</outline>
</glyph>
<glyph name="greater_hyphen.init" format="2">
	<advance width="600"/>
	<outline>
		<contour>
			<point x="49" y="0" type="line"/>
			<point x="166" y="0" type="line"/>
			<point x="438" y="272" type="line"/>
			<point x="601" y="272" type="line"/>
			<point x="613" y="357" type="line"/>
			<point x="448" y="357" type="line"/>
			<point x="239" y="629" type="line"/>
			<point x="135" y="629" type="line"/>
			<point x="368" y="320" type="line"/>
		</contour>
	</outline>
</glyph>
<glyph name="hungarumlaut.cap" format="2">
	<advance width="600"/>
	<outline>
		<contour>
			<point x="366" y="747" type="line"/>
			<point x="434" y="747" type="line"/>
			<point x="536" y="884" type="line"/>
			<point x="445" y="884" type="line"/>
		</contour>
		<contour>
			<point x="219" y="747" type="line"/>
			<point x="288" y="747" type="line"/>
			<point x="389" y="884" type="line"/>
			<point x="298" y="884" type="line"/>
		</contour>
	</outline>
	<anchor name="_top" x="317" y="684"/>
</glyph>
<glyph name="hyphen.med" format="2">
	<advance width="600"/>
	<outline>
		<contour>
			<point x="614" y="357" type="line"/>
			<point x="14" y="357" type="line"/>
			<point x="2" y="272" type="line"/>
			<point x="602" y="272" type="line"/>
		</contour>
	</outline>
</glyph>
<glyph name="hyphen_bar_bar.rem" format="2">
	<advance width="600"/>
	<outline>
		<contour>
			<point x="33" y="683" type="line"/>
			<point x="-55" y="683" type="line"/>
			<point x="-101" y="357" type="line"/>
			<point x="-1015" y="357" type="line"/>
			<point x="-1027" y="272" type="line"/>
			<point x="-113" y="272" type="line"/>
			<point x="-159" y="-56" type="line"/>
			<point x="-71" y="-56" type="line"/>
		</contour>
		<contour>
			<point x="416" y="683" type="line"/>
			<point x="328" y="683" type="line"/>
			<point x="224" y="-56" type="line"/>
			<point x="312" y="-56" type="line"/>
		</contour>
	</outline>
</glyph>
<glyph name="hyphen_hyphen.cLig" format="2">
	<advance width="600"/>
	<outline>
		<contour>
			<point x="-76" y="345" type="line"/>
			<point x="-426" y="345" type="line"/>
			<point x="-439" y="261" type="line"/>
			<point x="-88" y="261" type="line"/>
		</contour>
		<contour>
			<point x="450" y="345" type="line"/>
			<point x="100" y="345" type="line"/>
			<point x="87" y="261" type="line"/>
			<point x="438" y="261" type="line"/>
		</contour>
	</outline>
</glyph>
<glyph name="hyphen_less_less.rem" format="2">
	<advance width="600"/>
	<outline>
		<contour>
			<point x="501" y="629" type="line"/>
			<point x="386" y="629" type="line"/>
			<point x="72" y="315" type="line"/>
			<point x="312" y="0" type="line"/>
			<point x="416" y="0" type="line"/>
			<point x="184" y="310" type="line"/>
		</contour>
		<contour>
			<point x="122" y="629" type="line"/>
			<point x="6" y="629" type="line"/>
			<point x="-267" y="357" type="line"/>
			<point x="-1071" y="357" type="line"/>
			<point x="-1083" y="272" type="line"/>
			<point x="-276" y="272" type="line"/>
			<point x="-68" y="0" type="line"/>
			<point x="37" y="0" type="line"/>
			<point x="-196" y="309" type="line"/>
		</contour>
	</outline>
</glyph>
<glyph name="k.ss01" format="2">
	<advance width="600"/>
	<outline>
		<contour>
			<point x="70" y="0" type="line"/>
			<point x="162" y="0" type="line"/>
			<point x="180" y="128" type="line"/>
			<point x="290" y="243" type="line"/>
			<point x="403" y="0" type="line"/>
			<point x="504" y="0" type="line"/>
			<point x="366" y="299" type="line"/>
			<point x="570" y="524" type="line"/>
			<point x="460" y="524" type="line"/>
			<point x="194" y="229" type="line"/>
			<point x="266" y="742" type="line"/>
			<point x="174" y="742" type="line"/>
		</contour>
	</outline>
	<anchor name="bottom" x="275" y="0"/>
</glyph>
